<ttFont>
<head>
    <!-- Most of this table will be recalculated by the compiler -->
    <tableVersion value="1.0"/>
    <fontRevision value="1.00002"/>
    <checkSumAdjustment value="0xad3398df"/>
    <magicNumber value="0x5f0f3cf5"/>
    <flags value="00000000 00000011"/>
    <unitsPerEm value="2048"/>
    <created value="Mon Dec 21 20:00:52 1998"/>
    <modified value="Sat Oct 15 23:22:17 2022"/>
    <xMin value="-156"/>
    <yMin value="-535"/>
    <xMax value="1159"/>
    <yMax value="1927"/>
    <macStyle value="00000000 00000000"/>
    <lowestRecPPEM value="6"/>
    <fontDirectionHint value="1"/>
    <indexToLocFormat value="0"/>
    <glyphDataFormat value="0"/>
  </head>
    <TTGlyph name=".notdef" xMin="0" yMin="-362" xMax="1024" yMax="1444">
      <contour>
        <pt x="0" y="-362" on="1"/>
        <pt x="0" y="1444" on="1"/>
        <pt x="1024" y="1444" on="1"/>
        <pt x="1024" y="-362" on="1"/>
      </contour>
      <contour>
        <pt x="115" y="-248" on="1"/>
        <pt x="909" y="-248" on="1"/>
        <pt x="909" y="1329" on="1"/>
        <pt x="115" y="1329" on="1"/>
      </contour>
    </TTGlyph>
    <TTGlyph name="A" xMin="6" yMin="-4" xMax="944" yMax="1325">
      <contour>
        <pt x="319" y="500" on="1"/>
        <pt x="349" y="501" on="0"/>
        <pt x="443" y="504" on="0"/>
        <pt x="455" y="504" on="1"/>
        <pt x="476" y="504" on="0"/>
        <pt x="547" y="501" on="1"/>
        <pt x="583" y="500" on="0"/>
        <pt x="602" y="500" on="1"/>
        <pt x="575" y="608" on="0"/>
        <pt x="532" y="829" on="0"/>
        <pt x="516" y="940" on="1"/>
        <pt x="487" y="940" on="1"/>
        <pt x="430" y="811" on="0"/>
        <pt x="345" y="586" on="0"/>
      </contour>
      <contour>
        <pt x="282" y="405" on="1"/>
        <pt x="235" y="290" on="0"/>
        <pt x="160" y="16" on="0"/>
        <pt x="131" y="12" on="1"/>
        <pt x="29" y="2" on="1"/>
        <pt x="23" y="2" on="1"/>
        <pt x="15" y="2" on="0"/>
        <pt x="7" y="7" on="0"/>
        <pt x="6" y="12" on="1"/>
        <pt x="6" y="50" on="0"/>
        <pt x="107" y="312" on="1"/>
        <pt x="127" y="362" on="1"/>
        <pt x="60" y="391" on="1"/>
        <pt x="65" y="437" on="0"/>
        <pt x="97" y="475" on="0"/>
        <pt x="170" y="500" on="1"/>
        <pt x="234" y="661" on="0"/>
        <pt x="385" y="1011" on="0"/>
        <pt x="471" y="1200" on="1"/>
        <pt x="459" y="1288" on="1"/>
        <pt x="637" y="1325" on="1"/>
        <pt x="634" y="1294" on="0"/>
        <pt x="633" y="1263" on="0"/>
        <pt x="633" y="1247" on="1"/>
        <pt x="633" y="1153" on="0"/>
        <pt x="675" y="882" on="0"/>
        <pt x="719" y="688" on="1"/>
        <pt x="775" y="444" on="0"/>
        <pt x="879" y="150" on="0"/>
        <pt x="944" y="43" on="1"/>
        <pt x="866" y="10" on="1"/>
        <pt x="850" y="3" on="0"/>
        <pt x="824" y="-4" on="0"/>
        <pt x="813" y="-4" on="1"/>
        <pt x="782" y="-4" on="0"/>
        <pt x="707" y="163" on="0"/>
        <pt x="633" y="405" on="1"/>
        <pt x="600" y="404" on="0"/>
        <pt x="527" y="403" on="0"/>
        <pt x="453" y="403" on="1"/>
        <pt x="402" y="403" on="0"/>
        <pt x="324" y="404" on="0"/>
      </contour>
    </TTGlyph>
    <TTGlyph name="AE" xMin="-45" yMin="-23" xMax="969" yMax="1303">
      <contour>
        <pt x="281" y="535" on="1"/>
        <pt x="446" y="543" on="1"/>
        <pt x="453" y="579" on="0"/>
        <pt x="468" y="665" on="1"/>
        <pt x="519" y="960" on="0"/>
        <pt x="557" y="1165" on="1"/>
        <pt x="526" y="1161" on="1"/>
        <pt x="456" y="993" on="0"/>
        <pt x="332" y="678" on="0"/>
      </contour>
      <contour>
        <pt x="444" y="1233" on="1"/>
        <pt x="434" y="1282" on="1"/>
        <pt x="589" y="1282" on="0"/>
        <pt x="932" y="1301" on="1"/>
        <pt x="969" y="1303" on="1"/>
        <pt x="952" y="1198" on="1"/>
        <pt x="879" y="1189" on="0"/>
        <pt x="749" y="1178" on="0"/>
        <pt x="688" y="1175" on="1"/>
        <pt x="672" y="1087" on="0"/>
        <pt x="638" y="881" on="0"/>
        <pt x="621" y="762" on="1"/>
        <pt x="699" y="762" on="0"/>
        <pt x="856" y="765" on="0"/>
        <pt x="936" y="768" on="1"/>
        <pt x="913" y="666" on="1"/>
        <pt x="857" y="663" on="0"/>
        <pt x="728" y="657" on="0"/>
        <pt x="598" y="649" on="1"/>
        <pt x="566" y="447" on="0"/>
        <pt x="545" y="272" on="0"/>
        <pt x="545" y="227" on="1"/>
        <pt x="545" y="169" on="0"/>
        <pt x="615" y="111" on="0"/>
        <pt x="684" y="111" on="1"/>
        <pt x="737" y="111" on="0"/>
        <pt x="874" y="124" on="0"/>
        <pt x="956" y="137" on="1"/>
        <pt x="946" y="37" on="1"/>
        <pt x="837" y="7" on="0"/>
        <pt x="668" y="-23" on="0"/>
        <pt x="604" y="-23" on="1"/>
        <pt x="496" y="-23" on="0"/>
        <pt x="393" y="79" on="0"/>
        <pt x="393" y="186" on="1"/>
        <pt x="393" y="225" on="0"/>
        <pt x="409" y="353" on="0"/>
        <pt x="426" y="455" on="1"/>
        <pt x="248" y="444" on="1"/>
        <pt x="195" y="319" on="0"/>
        <pt x="110" y="16" on="0"/>
        <pt x="79" y="12" on="1"/>
        <pt x="-23" y="2" on="1"/>
        <pt x="-29" y="2" on="1"/>
        <pt x="-36" y="2" on="0"/>
        <pt x="-45" y="8" on="0"/>
        <pt x="-45" y="12" on="1"/>
        <pt x="-45" y="50" on="0"/>
        <pt x="51" y="302" on="1"/>
        <pt x="76" y="367" on="0"/>
        <pt x="90" y="403" on="1"/>
        <pt x="23" y="434" on="1"/>
        <pt x="31" y="509" on="0"/>
        <pt x="138" y="540" on="1"/>
        <pt x="141" y="541" on="1"/>
        <pt x="210" y="713" on="0"/>
        <pt x="360" y="1056" on="0"/>
      </contour>
    </TTGlyph>
    <TTGlyph name="Aacute" xMin="6" yMin="-4" xMax="951" yMax="1821">
      <component glyphName="A" x="0" y="0" flags="0x4"/>
      <component glyphName="acute" x="31" y="451" flags="0x4"/>
    </TTGlyph>
    <TTGlyph name="Acircumflex" xMin="6" yMin="-4" xMax="944" yMax="1797">
      <component glyphName="A" x="0" y="0" flags="0x4"/>
      <component glyphName="circumflex" x="31" y="451" flags="0x4"/>
    </TTGlyph>
    <TTGlyph name="Adieresis" xMin="6" yMin="-4" xMax="967" yMax="1762">
      <component glyphName="A" x="0" y="0" flags="0x4"/>
      <component glyphName="dieresis" x="31" y="451" flags="0x4"/>
    </TTGlyph>
    <TTGlyph name="Agrave" xMin="6" yMin="-4" xMax="944" yMax="1821">
      <component glyphName="A" x="0" y="0" flags="0x4"/>
      <component glyphName="grave" x="31" y="451" flags="0x4"/>
    </TTGlyph>
    <TTGlyph name="Aring" xMin="6" yMin="-4" xMax="944" yMax="1927">
      <contour>
        <pt x="426" y="1675" on="1"/>
        <pt x="426" y="1618" on="0"/>
        <pt x="504" y="1540" on="0"/>
        <pt x="561" y="1540" on="1"/>
        <pt x="617" y="1540" on="0"/>
        <pt x="694" y="1619" on="0"/>
        <pt x="694" y="1675" on="1"/>
        <pt x="694" y="1731" on="0"/>
        <pt x="616" y="1810" on="0"/>
        <pt x="561" y="1810" on="1"/>
        <pt x="504" y="1810" on="0"/>
        <pt x="426" y="1732" on="0"/>
      </contour>
      <contour>
        <pt x="307" y="1675" on="1"/>
        <pt x="307" y="1781" on="0"/>
        <pt x="453" y="1927" on="0"/>
        <pt x="559" y="1927" on="1"/>
        <pt x="666" y="1927" on="0"/>
        <pt x="813" y="1781" on="0"/>
        <pt x="813" y="1675" on="1"/>
        <pt x="813" y="1569" on="0"/>
        <pt x="665" y="1421" on="0"/>
        <pt x="559" y="1421" on="1"/>
        <pt x="454" y="1421" on="0"/>
        <pt x="307" y="1569" on="0"/>
      </contour>
      <contour>
        <pt x="282" y="405" on="1"/>
        <pt x="235" y="290" on="0"/>
        <pt x="160" y="16" on="0"/>
        <pt x="131" y="12" on="1"/>
        <pt x="29" y="2" on="1"/>
        <pt x="23" y="2" on="1"/>
        <pt x="15" y="2" on="0"/>
        <pt x="7" y="7" on="0"/>
        <pt x="6" y="12" on="1"/>
        <pt x="6" y="50" on="0"/>
        <pt x="107" y="312" on="1"/>
        <pt x="127" y="362" on="1"/>
        <pt x="60" y="391" on="1"/>
        <pt x="65" y="437" on="0"/>
        <pt x="97" y="475" on="0"/>
        <pt x="170" y="500" on="1"/>
        <pt x="234" y="661" on="0"/>
        <pt x="385" y="1011" on="0"/>
        <pt x="471" y="1200" on="1"/>
        <pt x="459" y="1288" on="1"/>
        <pt x="637" y="1325" on="1"/>
        <pt x="634" y="1294" on="0"/>
        <pt x="633" y="1263" on="0"/>
        <pt x="633" y="1247" on="1"/>
        <pt x="633" y="1153" on="0"/>
        <pt x="675" y="882" on="0"/>
        <pt x="719" y="688" on="1"/>
        <pt x="775" y="444" on="0"/>
        <pt x="879" y="150" on="0"/>
        <pt x="944" y="43" on="1"/>
        <pt x="866" y="10" on="1"/>
        <pt x="850" y="3" on="0"/>
        <pt x="824" y="-4" on="0"/>
        <pt x="813" y="-4" on="1"/>
        <pt x="782" y="-4" on="0"/>
        <pt x="707" y="163" on="0"/>
        <pt x="633" y="405" on="1"/>
        <pt x="600" y="404" on="0"/>
        <pt x="527" y="403" on="0"/>
        <pt x="453" y="403" on="1"/>
        <pt x="402" y="403" on="0"/>
        <pt x="324" y="404" on="0"/>
      </contour>
      <contour>
        <pt x="319" y="500" on="1"/>
        <pt x="349" y="501" on="0"/>
        <pt x="443" y="504" on="0"/>
        <pt x="455" y="504" on="1"/>
        <pt x="476" y="504" on="0"/>
        <pt x="547" y="501" on="1"/>
        <pt x="583" y="500" on="0"/>
        <pt x="602" y="500" on="1"/>
        <pt x="575" y="608" on="0"/>
        <pt x="532" y="829" on="0"/>
        <pt x="516" y="940" on="1"/>
        <pt x="487" y="940" on="1"/>
        <pt x="430" y="811" on="0"/>
        <pt x="345" y="586" on="0"/>
      </contour>
    </TTGlyph>
    <TTGlyph name="Atilde" xMin="6" yMin="-4" xMax="953" yMax="1754">
      <component glyphName="A" x="0" y="0" flags="0x4"/>
      <component glyphName="tilde" x="31" y="451" flags="0x4"/>
    </TTGlyph>
    <TTGlyph name="B" xMin="78" yMin="-33" xMax="899" yMax="1333">
      <contour>
        <pt x="319" y="745" on="1"/>
        <pt x="525" y="798" on="0"/>
        <pt x="745" y="962" on="0"/>
        <pt x="745" y="1061" on="1"/>
        <pt x="745" y="1140" on="0"/>
        <pt x="648" y="1221" on="0"/>
        <pt x="553" y="1221" on="1"/>
        <pt x="524" y="1221" on="0"/>
        <pt x="456" y="1209" on="0"/>
        <pt x="418" y="1198" on="1"/>
        <pt x="380" y="1050" on="0"/>
        <pt x="333" y="835" on="0"/>
      </contour>
      <contour>
        <pt x="94" y="1112" on="1"/>
        <pt x="94" y="1206" on="1"/>
        <pt x="285" y="1279" on="0"/>
        <pt x="517" y="1333" on="0"/>
        <pt x="616" y="1333" on="1"/>
        <pt x="751" y="1333" on="0"/>
        <pt x="897" y="1216" on="0"/>
        <pt x="897" y="1110" on="1"/>
        <pt x="897" y="1008" on="0"/>
        <pt x="747" y="830" on="0"/>
        <pt x="586" y="741" on="1"/>
        <pt x="741" y="702" on="0"/>
        <pt x="899" y="520" on="0"/>
        <pt x="899" y="381" on="1"/>
        <pt x="899" y="199" on="0"/>
        <pt x="661" y="-33" on="0"/>
        <pt x="469" y="-33" on="1"/>
        <pt x="379" y="-33" on="0"/>
        <pt x="274" y="46" on="0"/>
        <pt x="274" y="113" on="1"/>
        <pt x="274" y="156" on="0"/>
        <pt x="317" y="215" on="0"/>
        <pt x="346" y="215" on="1"/>
        <pt x="359" y="215" on="0"/>
        <pt x="470" y="80" on="0"/>
        <pt x="559" y="80" on="1"/>
        <pt x="655" y="80" on="0"/>
        <pt x="758" y="215" on="0"/>
        <pt x="758" y="342" on="1"/>
        <pt x="758" y="480" on="0"/>
        <pt x="571" y="635" on="0"/>
        <pt x="403" y="635" on="1"/>
        <pt x="394" y="635" on="0"/>
        <pt x="321" y="632" on="0"/>
        <pt x="299" y="631" on="1"/>
        <pt x="268" y="465" on="0"/>
        <pt x="253" y="85" on="0"/>
        <pt x="203" y="63" on="1"/>
        <pt x="113" y="29" on="1"/>
        <pt x="111" y="28" on="0"/>
        <pt x="106" y="27" on="0"/>
        <pt x="102" y="27" on="1"/>
        <pt x="91" y="27" on="0"/>
        <pt x="78" y="49" on="0"/>
        <pt x="78" y="70" on="1"/>
        <pt x="78" y="192" on="0"/>
        <pt x="174" y="811" on="0"/>
        <pt x="256" y="1159" on="1"/>
        <pt x="213" y="1151" on="0"/>
        <pt x="133" y="1127" on="0"/>
      </contour>
    </TTGlyph>
    <TTGlyph name="C" xMin="78" yMin="-37" xMax="907" yMax="1307">
      <contour>
        <pt x="819" y="799" on="1"/>
        <pt x="719" y="823" on="1"/>
        <pt x="738" y="882" on="0"/>
        <pt x="764" y="1013" on="0"/>
        <pt x="770" y="1085" on="1"/>
        <pt x="698" y="1132" on="0"/>
        <pt x="595" y="1171" on="0"/>
        <pt x="549" y="1171" on="1"/>
        <pt x="427" y="1171" on="0"/>
        <pt x="244" y="820" on="0"/>
        <pt x="244" y="575" on="1"/>
        <pt x="244" y="336" on="0"/>
        <pt x="410" y="70" on="0"/>
        <pt x="559" y="70" on="1"/>
        <pt x="619" y="70" on="0"/>
        <pt x="722" y="137" on="0"/>
        <pt x="809" y="244" on="1"/>
        <pt x="862" y="197" on="1"/>
        <pt x="778" y="72" on="0"/>
        <pt x="605" y="-37" on="0"/>
        <pt x="494" y="-37" on="1"/>
        <pt x="297" y="-37" on="0"/>
        <pt x="78" y="264" on="0"/>
        <pt x="78" y="537" on="1"/>
        <pt x="78" y="706" on="0"/>
        <pt x="175" y="1002" on="0"/>
        <pt x="266" y="1112" on="1"/>
        <pt x="342" y="1204" on="0"/>
        <pt x="528" y="1307" on="0"/>
        <pt x="618" y="1307" on="1"/>
        <pt x="675" y="1307" on="0"/>
        <pt x="790" y="1274" on="0"/>
        <pt x="848" y="1241" on="1"/>
        <pt x="883" y="1222" on="0"/>
        <pt x="907" y="1190" on="0"/>
        <pt x="907" y="1159" on="1"/>
        <pt x="907" y="1088" on="0"/>
        <pt x="861" y="895" on="0"/>
      </contour>
    </TTGlyph>
    <TTGlyph name="Cacute" xMin="78" yMin="-37" xMax="951" yMax="1821">
      <component glyphName="C" x="0" y="0" flags="0x4"/>
      <component glyphName="acute" x="31" y="451" flags="0x4"/>
    </TTGlyph>
    <TTGlyph name="Ccaron" xMin="78" yMin="-37" xMax="934" yMax="1801">
      <component glyphName="C" x="0" y="0" flags="0x4"/>
      <component glyphName="caron" x="31" y="451" flags="0x4"/>
    </TTGlyph>
    <TTGlyph name="Ccedilla" xMin="78" yMin="-463" xMax="907" yMax="1307">
      <component glyphName="C" x="0" y="0" flags="0x4"/>
      <component glyphName="cedilla" x="76" y="0" flags="0x4"/>
    </TTGlyph>
    <TTGlyph name="D" xMin="0" yMin="-57" xMax="975" yMax="1343">
      <contour>
        <pt x="31" y="948" on="1"/>
        <pt x="15" y="948" on="0"/>
        <pt x="0" y="966" on="0"/>
        <pt x="0" y="985" on="1"/>
        <pt x="0" y="1069" on="0"/>
        <pt x="187" y="1183" on="1"/>
        <pt x="188" y="1184" on="1"/>
        <pt x="321" y="1264" on="0"/>
        <pt x="560" y="1343" on="0"/>
        <pt x="668" y="1343" on="1"/>
        <pt x="814" y="1343" on="0"/>
        <pt x="975" y="1131" on="0"/>
        <pt x="975" y="938" on="1"/>
        <pt x="975" y="728" on="0"/>
        <pt x="780" y="302" on="0"/>
        <pt x="610" y="145" on="1"/>
        <pt x="513" y="56" on="0"/>
        <pt x="308" y="-57" on="0"/>
        <pt x="252" y="-57" on="1"/>
        <pt x="203" y="-57" on="0"/>
        <pt x="119" y="40" on="0"/>
        <pt x="119" y="98" on="1"/>
        <pt x="119" y="147" on="0"/>
        <pt x="145" y="363" on="0"/>
        <pt x="170" y="514" on="1"/>
        <pt x="197" y="677" on="0"/>
        <pt x="247" y="946" on="0"/>
        <pt x="252" y="967" on="1"/>
        <pt x="267" y="1027" on="0"/>
        <pt x="337" y="1092" on="0"/>
        <pt x="385" y="1092" on="1"/>
        <pt x="405" y="1092" on="0"/>
        <pt x="424" y="1070" on="0"/>
        <pt x="424" y="1047" on="1"/>
        <pt x="424" y="1020" on="0"/>
        <pt x="388" y="848" on="1"/>
        <pt x="364" y="733" on="0"/>
        <pt x="350" y="662" on="1"/>
        <pt x="313" y="473" on="0"/>
        <pt x="272" y="217" on="0"/>
        <pt x="272" y="174" on="1"/>
        <pt x="272" y="137" on="0"/>
        <pt x="295" y="104" on="0"/>
        <pt x="319" y="104" on="1"/>
        <pt x="368" y="104" on="0"/>
        <pt x="526" y="211" on="0"/>
        <pt x="596" y="295" on="1"/>
        <pt x="697" y="414" on="0"/>
        <pt x="811" y="737" on="0"/>
        <pt x="811" y="901" on="1"/>
        <pt x="811" y="1052" on="0"/>
        <pt x="705" y="1204" on="0"/>
        <pt x="600" y="1204" on="1"/>
        <pt x="535" y="1204" on="0"/>
        <pt x="356" y="1146" on="0"/>
        <pt x="264" y="1094" on="1"/>
        <pt x="200" y="1057" on="0"/>
        <pt x="47" y="948" on="0"/>
      </contour>
    </TTGlyph>
    <TTGlyph name="Delta" xMin="49" yMin="0" xMax="975" yMax="1389">
      <contour>
        <pt x="449" y="958" on="1"/>
        <pt x="233" y="131" on="1"/>
        <pt x="782" y="131" on="1"/>
        <pt x="559" y="963" on="1"/>
        <pt x="542" y="1029" on="0"/>
        <pt x="516" y="1162" on="0"/>
        <pt x="506" y="1231" on="1"/>
        <pt x="492" y="1154" on="0"/>
        <pt x="463" y="1015" on="0"/>
      </contour>
      <contour>
        <pt x="975" y="0" on="1"/>
        <pt x="49" y="0" on="1"/>
        <pt x="424" y="1389" on="1"/>
        <pt x="598" y="1389" on="1"/>
      </contour>
    </TTGlyph>
    <TTGlyph name="E" xMin="113" yMin="-23" xMax="934" yMax="1325">
      <contour>
        <pt x="145" y="1155" on="1"/>
        <pt x="177" y="1282" on="1"/>
        <pt x="442" y="1289" on="0"/>
        <pt x="806" y="1310" on="0"/>
        <pt x="934" y="1325" on="1"/>
        <pt x="895" y="1206" on="1"/>
        <pt x="774" y="1200" on="0"/>
        <pt x="539" y="1184" on="0"/>
        <pt x="429" y="1176" on="1"/>
        <pt x="412" y="1087" on="0"/>
        <pt x="378" y="881" on="0"/>
        <pt x="361" y="762" on="1"/>
        <pt x="482" y="765" on="0"/>
        <pt x="710" y="774" on="0"/>
        <pt x="819" y="780" on="1"/>
        <pt x="794" y="676" on="1"/>
        <pt x="751" y="673" on="1"/>
        <pt x="472" y="655" on="0"/>
        <pt x="338" y="649" on="1"/>
        <pt x="307" y="452" on="0"/>
        <pt x="285" y="272" on="0"/>
        <pt x="285" y="227" on="1"/>
        <pt x="285" y="169" on="0"/>
        <pt x="355" y="111" on="0"/>
        <pt x="424" y="111" on="1"/>
        <pt x="501" y="111" on="0"/>
        <pt x="712" y="137" on="0"/>
        <pt x="834" y="162" on="1"/>
        <pt x="817" y="51" on="1"/>
        <pt x="648" y="14" on="0"/>
        <pt x="412" y="-23" on="0"/>
        <pt x="344" y="-23" on="1"/>
        <pt x="237" y="-23" on="0"/>
        <pt x="135" y="79" on="0"/>
        <pt x="135" y="186" on="1"/>
        <pt x="135" y="232" on="0"/>
        <pt x="163" y="437" on="0"/>
        <pt x="197" y="641" on="1"/>
        <pt x="113" y="645" on="1"/>
        <pt x="123" y="717" on="1"/>
        <pt x="213" y="764" on="1"/>
        <pt x="230" y="861" on="0"/>
        <pt x="269" y="1064" on="0"/>
        <pt x="291" y="1171" on="1"/>
      </contour>
    </TTGlyph>
    <TTGlyph name="Eacute" xMin="113" yMin="-23" xMax="951" yMax="1821">
      <component glyphName="E" x="0" y="0" flags="0x4"/>
      <component glyphName="acute" x="31" y="451" flags="0x4"/>
    </TTGlyph>
    <TTGlyph name="Ecircumflex" xMin="113" yMin="-23" xMax="934" yMax="1797">
      <component glyphName="E" x="0" y="0" flags="0x4"/>
      <component glyphName="circumflex" x="31" y="451" flags="0x4"/>
    </TTGlyph>
    <TTGlyph name="Edieresis" xMin="113" yMin="-23" xMax="967" yMax="1762">
      <component glyphName="E" x="0" y="0" flags="0x4"/>
      <component glyphName="dieresis" x="31" y="451" flags="0x4"/>
    </TTGlyph>
    <TTGlyph name="Egrave" xMin="113" yMin="-23" xMax="934" yMax="1821">
      <component glyphName="E" x="0" y="0" flags="0x4"/>
      <component glyphName="grave" x="31" y="451" flags="0x4"/>
    </TTGlyph>
    <TTGlyph name="Eth" xMin="0" yMin="-57" xMax="975" yMax="1343">
      <contour>
        <pt x="184" y="604" on="1"/>
        <pt x="104" y="602" on="1"/>
        <pt x="81" y="602" on="0"/>
        <pt x="66" y="618" on="0"/>
        <pt x="66" y="639" on="1"/>
        <pt x="66" y="662" on="0"/>
        <pt x="92" y="691" on="0"/>
        <pt x="131" y="705" on="1"/>
        <pt x="209" y="729" on="1"/>
        <pt x="245" y="970" on="0"/>
        <pt x="316" y="1092" on="0"/>
        <pt x="385" y="1092" on="1"/>
        <pt x="405" y="1092" on="0"/>
        <pt x="424" y="1070" on="0"/>
        <pt x="424" y="1047" on="1"/>
        <pt x="424" y="1022" on="0"/>
        <pt x="398" y="902" on="1"/>
        <pt x="377" y="803" on="0"/>
        <pt x="365" y="739" on="1"/>
        <pt x="487" y="750" on="1"/>
        <pt x="492" y="750" on="0"/>
        <pt x="504" y="752" on="0"/>
        <pt x="506" y="752" on="1"/>
        <pt x="523" y="752" on="0"/>
        <pt x="535" y="734" on="0"/>
        <pt x="535" y="705" on="1"/>
        <pt x="535" y="677" on="0"/>
        <pt x="509" y="650" on="0"/>
        <pt x="475" y="643" on="1"/>
        <pt x="342" y="616" on="1"/>
        <pt x="310" y="462" on="0"/>
        <pt x="272" y="219" on="0"/>
        <pt x="272" y="174" on="1"/>
        <pt x="272" y="137" on="0"/>
        <pt x="295" y="104" on="0"/>
        <pt x="319" y="104" on="1"/>
        <pt x="368" y="104" on="0"/>
        <pt x="526" y="211" on="0"/>
        <pt x="596" y="295" on="1"/>
        <pt x="697" y="414" on="0"/>
        <pt x="811" y="737" on="0"/>
        <pt x="811" y="901" on="1"/>
        <pt x="811" y="1052" on="0"/>
        <pt x="705" y="1204" on="0"/>
        <pt x="600" y="1204" on="1"/>
        <pt x="534" y="1204" on="0"/>
        <pt x="354" y="1146" on="0"/>
        <pt x="262" y="1094" on="1"/>
        <pt x="197" y="1057" on="0"/>
        <pt x="47" y="948" on="0"/>
        <pt x="31" y="948" on="1"/>
        <pt x="15" y="948" on="0"/>
        <pt x="0" y="966" on="0"/>
        <pt x="0" y="985" on="1"/>
        <pt x="0" y="1067" on="0"/>
        <pt x="179" y="1178" on="1"/>
        <pt x="189" y="1184" on="1"/>
        <pt x="321" y="1264" on="0"/>
        <pt x="560" y="1343" on="0"/>
        <pt x="668" y="1343" on="1"/>
        <pt x="814" y="1343" on="0"/>
        <pt x="975" y="1131" on="0"/>
        <pt x="975" y="938" on="1"/>
        <pt x="975" y="728" on="0"/>
        <pt x="780" y="302" on="0"/>
        <pt x="610" y="145" on="1"/>
        <pt x="513" y="56" on="0"/>
        <pt x="308" y="-57" on="0"/>
        <pt x="252" y="-57" on="1"/>
        <pt x="203" y="-57" on="0"/>
        <pt x="119" y="40" on="0"/>
        <pt x="119" y="98" on="1"/>
        <pt x="119" y="152" on="0"/>
        <pt x="147" y="373" on="0"/>
      </contour>
    </TTGlyph>
    <TTGlyph name="Euro" xMin="78" yMin="-82" xMax="922" yMax="1300">
      <contour>
        <pt x="922" y="1165" on="1"/>
        <pt x="922" y="1110" on="0"/>
        <pt x="887" y="972" on="0"/>
        <pt x="858" y="913" on="1"/>
        <pt x="762" y="936" on="1"/>
        <pt x="776" y="976" on="0"/>
        <pt x="795" y="1071" on="0"/>
        <pt x="795" y="1106" on="1"/>
        <pt x="760" y="1137" on="0"/>
        <pt x="671" y="1171" on="0"/>
        <pt x="629" y="1171" on="1"/>
        <pt x="572" y="1171" on="0"/>
        <pt x="444" y="968" on="0"/>
        <pt x="408" y="817" on="1"/>
        <pt x="729" y="817" on="1"/>
        <pt x="744" y="817" on="0"/>
        <pt x="756" y="810" on="0"/>
        <pt x="756" y="801" on="1"/>
        <pt x="756" y="797" on="0"/>
        <pt x="751" y="784" on="1"/>
        <pt x="749" y="778" on="0"/>
        <pt x="748" y="775" on="1"/>
        <pt x="735" y="743" on="1"/>
        <pt x="724" y="715" on="0"/>
        <pt x="704" y="698" on="0"/>
        <pt x="682" y="698" on="1"/>
        <pt x="385" y="698" on="1"/>
        <pt x="380" y="659" on="0"/>
        <pt x="375" y="587" on="0"/>
        <pt x="375" y="553" on="1"/>
        <pt x="375" y="532" on="1"/>
        <pt x="612" y="532" on="1"/>
        <pt x="627" y="532" on="0"/>
        <pt x="639" y="525" on="0"/>
        <pt x="639" y="516" on="1"/>
        <pt x="639" y="512" on="0"/>
        <pt x="634" y="499" on="1"/>
        <pt x="632" y="493" on="0"/>
        <pt x="631" y="490" on="1"/>
        <pt x="618" y="458" on="1"/>
        <pt x="607" y="430" on="0"/>
        <pt x="587" y="414" on="0"/>
        <pt x="565" y="414" on="1"/>
        <pt x="379" y="414" on="1"/>
        <pt x="391" y="220" on="0"/>
        <pt x="488" y="25" on="0"/>
        <pt x="573" y="25" on="1"/>
        <pt x="611" y="25" on="0"/>
        <pt x="702" y="92" on="0"/>
        <pt x="756" y="160" on="1"/>
        <pt x="809" y="113" on="1"/>
        <pt x="733" y="5" on="0"/>
        <pt x="605" y="-82" on="0"/>
        <pt x="522" y="-82" on="1"/>
        <pt x="390" y="-82" on="0"/>
        <pt x="229" y="178" on="0"/>
        <pt x="215" y="414" on="1"/>
        <pt x="104" y="414" on="1"/>
        <pt x="90" y="414" on="0"/>
        <pt x="78" y="421" on="0"/>
        <pt x="78" y="430" on="1"/>
        <pt x="78" y="434" on="0"/>
        <pt x="82" y="446" on="1"/>
        <pt x="85" y="453" on="0"/>
        <pt x="86" y="457" on="1"/>
        <pt x="98" y="487" on="1"/>
        <pt x="109" y="516" on="0"/>
        <pt x="129" y="532" on="0"/>
        <pt x="152" y="532" on="1"/>
        <pt x="213" y="532" on="1"/>
        <pt x="213" y="569" on="0"/>
        <pt x="220" y="650" on="0"/>
        <pt x="227" y="698" on="1"/>
        <pt x="139" y="698" on="1"/>
        <pt x="125" y="698" on="0"/>
        <pt x="113" y="706" on="0"/>
        <pt x="113" y="715" on="1"/>
        <pt x="113" y="719" on="0"/>
        <pt x="117" y="731" on="1"/>
        <pt x="120" y="738" on="0"/>
        <pt x="121" y="742" on="1"/>
        <pt x="133" y="772" on="1"/>
        <pt x="144" y="800" on="0"/>
        <pt x="164" y="817" on="0"/>
        <pt x="186" y="817" on="1"/>
        <pt x="252" y="817" on="1"/>
        <pt x="275" y="901" on="0"/>
        <pt x="342" y="1048" on="0"/>
        <pt x="383" y="1106" on="1"/>
        <pt x="448" y="1197" on="0"/>
        <pt x="608" y="1300" on="0"/>
        <pt x="684" y="1300" on="1"/>
        <pt x="734" y="1300" on="0"/>
        <pt x="833" y="1270" on="0"/>
        <pt x="874" y="1241" on="1"/>
        <pt x="906" y="1220" on="0"/>
        <pt x="922" y="1193" on="0"/>
      </contour>
    </TTGlyph>
    <TTGlyph name="F" xMin="158" yMin="-4" xMax="977" yMax="1374">
      <contour>
        <pt x="188" y="1155" on="1"/>
        <pt x="219" y="1280" on="1"/>
        <pt x="344" y="1288" on="1"/>
        <pt x="356" y="1370" on="1"/>
        <pt x="489" y="1374" on="1"/>
        <pt x="481" y="1292" on="1"/>
        <pt x="498" y="1293" on="0"/>
        <pt x="534" y="1295" on="1"/>
        <pt x="838" y="1308" on="0"/>
        <pt x="977" y="1325" on="1"/>
        <pt x="938" y="1206" on="1"/>
        <pt x="817" y="1200" on="0"/>
        <pt x="582" y="1184" on="0"/>
        <pt x="471" y="1175" on="1"/>
        <pt x="449" y="1065" on="0"/>
        <pt x="416" y="846" on="0"/>
        <pt x="404" y="735" on="1"/>
        <pt x="500" y="737" on="0"/>
        <pt x="715" y="745" on="0"/>
        <pt x="846" y="751" on="1"/>
        <pt x="819" y="647" on="1"/>
        <pt x="736" y="641" on="0"/>
        <pt x="534" y="628" on="0"/>
        <pt x="383" y="621" on="1"/>
        <pt x="381" y="602" on="0"/>
        <pt x="377" y="563" on="1"/>
        <pt x="347" y="287" on="0"/>
        <pt x="342" y="111" on="1"/>
        <pt x="340" y="79" on="0"/>
        <pt x="317" y="44" on="0"/>
        <pt x="293" y="35" on="1"/>
        <pt x="203" y="-2" on="1"/>
        <pt x="201" y="-3" on="0"/>
        <pt x="197" y="-4" on="0"/>
        <pt x="193" y="-4" on="1"/>
        <pt x="181" y="-4" on="0"/>
        <pt x="168" y="19" on="0"/>
        <pt x="168" y="39" on="1"/>
        <pt x="168" y="85" on="0"/>
        <pt x="205" y="414" on="0"/>
        <pt x="236" y="612" on="1"/>
        <pt x="158" y="616" on="1"/>
        <pt x="166" y="688" on="1"/>
        <pt x="258" y="735" on="1"/>
        <pt x="284" y="909" on="0"/>
        <pt x="316" y="1096" on="0"/>
        <pt x="330" y="1169" on="1"/>
      </contour>
    </TTGlyph>
    <TTGlyph name="G" xMin="23" yMin="-29" xMax="950" yMax="1315">
      <contour>
        <pt x="930" y="928" on="1"/>
        <pt x="801" y="910" on="1"/>
        <pt x="805" y="956" on="0"/>
        <pt x="819" y="1087" on="0"/>
        <pt x="819" y="1096" on="1"/>
        <pt x="819" y="1139" on="0"/>
        <pt x="683" y="1212" on="0"/>
        <pt x="598" y="1212" on="1"/>
        <pt x="420" y="1212" on="0"/>
        <pt x="190" y="862" on="0"/>
        <pt x="190" y="590" on="1"/>
        <pt x="190" y="366" on="0"/>
        <pt x="344" y="94" on="0"/>
        <pt x="469" y="94" on="1"/>
        <pt x="586" y="94" on="0"/>
        <pt x="744" y="314" on="0"/>
        <pt x="793" y="545" on="1"/>
        <pt x="723" y="536" on="0"/>
        <pt x="581" y="504" on="0"/>
        <pt x="506" y="479" on="1"/>
        <pt x="522" y="606" on="1"/>
        <pt x="641" y="640" on="0"/>
        <pt x="829" y="674" on="0"/>
        <pt x="901" y="674" on="1"/>
        <pt x="921" y="674" on="0"/>
        <pt x="932" y="642" on="0"/>
        <pt x="932" y="582" on="1"/>
        <pt x="932" y="510" on="0"/>
        <pt x="856" y="276" on="0"/>
        <pt x="803" y="193" on="1"/>
        <pt x="734" y="84" on="0"/>
        <pt x="552" y="-29" on="0"/>
        <pt x="446" y="-29" on="1"/>
        <pt x="253" y="-29" on="0"/>
        <pt x="23" y="295" on="0"/>
        <pt x="23" y="567" on="1"/>
        <pt x="23" y="890" on="0"/>
        <pt x="358" y="1315" on="0"/>
        <pt x="608" y="1315" on="1"/>
        <pt x="693" y="1315" on="0"/>
        <pt x="856" y="1262" on="0"/>
        <pt x="909" y="1219" on="1"/>
        <pt x="935" y="1197" on="0"/>
        <pt x="950" y="1165" on="0"/>
        <pt x="950" y="1130" on="1"/>
        <pt x="950" y="1087" on="0"/>
        <pt x="940" y="984" on="0"/>
      </contour>
    </TTGlyph>
    <TTGlyph name="Gbreve" xMin="23" yMin="-29" xMax="973" yMax="1805">
      <component glyphName="G" x="0" y="0" flags="0x4"/>
      <component glyphName="breve" x="31" y="451" flags="0x4"/>
    </TTGlyph>
    <TTGlyph name="H" xMin="55" yMin="-41" xMax="985" yMax="1327">
      <contour>
        <pt x="686" y="635" on="1"/>
        <pt x="285" y="614" on="1"/>
        <pt x="267" y="418" on="0"/>
        <pt x="244" y="101" on="0"/>
        <pt x="244" y="66" on="1"/>
        <pt x="244" y="13" on="0"/>
        <pt x="195" y="-41" on="0"/>
        <pt x="147" y="-41" on="1"/>
        <pt x="115" y="-41" on="0"/>
        <pt x="84" y="-3" on="0"/>
        <pt x="84" y="37" on="1"/>
        <pt x="84" y="81" on="0"/>
        <pt x="113" y="405" on="0"/>
        <pt x="137" y="604" on="1"/>
        <pt x="55" y="610" on="1"/>
        <pt x="63" y="682" on="1"/>
        <pt x="152" y="729" on="1"/>
        <pt x="170" y="866" on="0"/>
        <pt x="220" y="1138" on="0"/>
        <pt x="252" y="1276" on="1"/>
        <pt x="406" y="1296" on="1"/>
        <pt x="372" y="1160" on="0"/>
        <pt x="318" y="881" on="0"/>
        <pt x="297" y="735" on="1"/>
        <pt x="711" y="760" on="1"/>
        <pt x="738" y="930" on="0"/>
        <pt x="790" y="1187" on="0"/>
        <pt x="819" y="1300" on="1"/>
        <pt x="985" y="1327" on="1"/>
        <pt x="899" y="1030" on="0"/>
        <pt x="815" y="546" on="0"/>
        <pt x="815" y="350" on="1"/>
        <pt x="815" y="241" on="0"/>
        <pt x="829" y="125" on="1"/>
        <pt x="831" y="100" on="0"/>
        <pt x="831" y="94" on="1"/>
        <pt x="831" y="61" on="0"/>
        <pt x="759" y="-8" on="0"/>
        <pt x="717" y="-8" on="1"/>
        <pt x="682" y="-8" on="0"/>
        <pt x="653" y="52" on="0"/>
        <pt x="653" y="125" on="1"/>
        <pt x="653" y="264" on="0"/>
        <pt x="669" y="512" on="0"/>
      </contour>
    </TTGlyph>
    <TTGlyph name="I" xMin="180" yMin="-53" xMax="819" yMax="1321">
      <contour>
        <pt x="330" y="86" on="1"/>
        <pt x="506" y="1155" on="1"/>
        <pt x="233" y="1114" on="1"/>
        <pt x="233" y="1114" on="0"/>
        <pt x="231" y="1114" on="1"/>
        <pt x="224" y="1112" on="0"/>
        <pt x="217" y="1112" on="1"/>
        <pt x="202" y="1112" on="0"/>
        <pt x="182" y="1130" on="0"/>
        <pt x="182" y="1143" on="1"/>
        <pt x="182" y="1147" on="0"/>
        <pt x="188" y="1159" on="0"/>
        <pt x="193" y="1166" on="1"/>
        <pt x="236" y="1221" on="1"/>
        <pt x="239" y="1226" on="0"/>
        <pt x="274" y="1244" on="0"/>
        <pt x="284" y="1245" on="1"/>
        <pt x="786" y="1321" on="1"/>
        <pt x="793" y="1321" on="1"/>
        <pt x="805" y="1321" on="0"/>
        <pt x="819" y="1303" on="0"/>
        <pt x="819" y="1286" on="1"/>
        <pt x="819" y="1277" on="0"/>
        <pt x="815" y="1261" on="0"/>
        <pt x="811" y="1257" on="1"/>
        <pt x="772" y="1214" on="1"/>
        <pt x="768" y="1211" on="0"/>
        <pt x="736" y="1194" on="0"/>
        <pt x="727" y="1192" on="1"/>
        <pt x="670" y="1184" on="1"/>
        <pt x="609" y="974" on="0"/>
        <pt x="534" y="436" on="0"/>
        <pt x="520" y="115" on="1"/>
        <pt x="680" y="141" on="1"/>
        <pt x="688" y="141" on="1"/>
        <pt x="700" y="141" on="0"/>
        <pt x="713" y="125" on="0"/>
        <pt x="713" y="111" on="1"/>
        <pt x="713" y="103" on="0"/>
        <pt x="709" y="90" on="0"/>
        <pt x="707" y="87" on="1"/>
        <pt x="657" y="30" on="1"/>
        <pt x="655" y="27" on="0"/>
        <pt x="617" y="8" on="0"/>
        <pt x="608" y="6" on="1"/>
        <pt x="225" y="-53" on="1"/>
        <pt x="217" y="-53" on="1"/>
        <pt x="200" y="-53" on="0"/>
        <pt x="180" y="-36" on="0"/>
        <pt x="180" y="-23" on="1"/>
        <pt x="180" y="-16" on="0"/>
        <pt x="184" y="-6" on="0"/>
        <pt x="188" y="-2" on="1"/>
        <pt x="230" y="46" on="1"/>
        <pt x="241" y="58" on="0"/>
        <pt x="264" y="74" on="0"/>
        <pt x="274" y="76" on="1"/>
      </contour>
    </TTGlyph>
    <TTGlyph name="Iacute" xMin="180" yMin="-53" xMax="951" yMax="1821">
      <component glyphName="I" x="0" y="0" flags="0x4"/>
      <component glyphName="acute" x="31" y="451" flags="0x4"/>
    </TTGlyph>
    <TTGlyph name="Icircumflex" xMin="180" yMin="-53" xMax="934" yMax="1797">
      <component glyphName="I" x="0" y="0" flags="0x4"/>
      <component glyphName="circumflex" x="31" y="451" flags="0x4"/>
    </TTGlyph>
    <TTGlyph name="Idieresis" xMin="180" yMin="-53" xMax="967" yMax="1762">
      <component glyphName="I" x="0" y="0" flags="0x4"/>
      <component glyphName="dieresis" x="31" y="451" flags="0x4"/>
    </TTGlyph>
    <TTGlyph name="Idotaccent" xMin="180" yMin="-53" xMax="819" yMax="1784">
      <component glyphName="I" x="0" y="0" flags="0x4"/>
      <component glyphName="dotaccent" x="31" y="451" flags="0x4"/>
    </TTGlyph>
    <TTGlyph name="Igrave" xMin="180" yMin="-53" xMax="819" yMax="1821">
      <component glyphName="I" x="0" y="0" flags="0x4"/>
      <component glyphName="grave" x="31" y="451" flags="0x4"/>
    </TTGlyph>
    <TTGlyph name="J" xMin="-92" yMin="-53" xMax="840" yMax="1343">
      <contour>
        <pt x="283" y="1151" on="1"/>
        <pt x="307" y="1268" on="1"/>
        <pt x="399" y="1293" on="0"/>
        <pt x="756" y="1323" on="0"/>
        <pt x="840" y="1343" on="1"/>
        <pt x="838" y="1255" on="1"/>
        <pt x="725" y="1208" on="1"/>
        <pt x="675" y="973" on="0"/>
        <pt x="616" y="288" on="0"/>
        <pt x="575" y="199" on="1"/>
        <pt x="524" y="83" on="0"/>
        <pt x="260" y="-53" on="0"/>
        <pt x="86" y="-53" on="1"/>
        <pt x="41" y="-53" on="0"/>
        <pt x="-48" y="-41" on="0"/>
        <pt x="-92" y="-29" on="1"/>
        <pt x="-10" y="119" on="1"/>
        <pt x="59" y="111" on="0"/>
        <pt x="184" y="102" on="0"/>
        <pt x="242" y="102" on="1"/>
        <pt x="358" y="102" on="0"/>
        <pt x="449" y="175" on="0"/>
        <pt x="469" y="297" on="1"/>
        <pt x="475" y="335" on="0"/>
        <pt x="525" y="933" on="0"/>
        <pt x="563" y="1196" on="1"/>
        <pt x="489" y="1194" on="0"/>
        <pt x="351" y="1172" on="0"/>
      </contour>
    </TTGlyph>
    <TTGlyph name="K" xMin="70" yMin="-33" xMax="1030" yMax="1305">
      <contour>
        <pt x="256" y="1278" on="1"/>
        <pt x="408" y="1305" on="1"/>
        <pt x="368" y="1125" on="0"/>
        <pt x="318" y="868" on="0"/>
        <pt x="303" y="766" on="1"/>
        <pt x="322" y="766" on="1"/>
        <pt x="503" y="912" on="0"/>
        <pt x="764" y="1170" on="1"/>
        <pt x="838" y="1243" on="0"/>
        <pt x="872" y="1276" on="1"/>
        <pt x="1030" y="1286" on="1"/>
        <pt x="822" y="1064" on="0"/>
        <pt x="425" y="717" on="1"/>
        <pt x="401" y="696" on="1"/>
        <pt x="509" y="523" on="0"/>
        <pt x="707" y="256" on="0"/>
        <pt x="799" y="162" on="1"/>
        <pt x="830" y="129" on="0"/>
        <pt x="879" y="86" on="1"/>
        <pt x="936" y="37" on="0"/>
        <pt x="936" y="14" on="1"/>
        <pt x="936" y="1" on="0"/>
        <pt x="919" y="-15" on="0"/>
        <pt x="904" y="-18" on="1"/>
        <pt x="817" y="-33" on="1"/>
        <pt x="809" y="-33" on="1"/>
        <pt x="755" y="-33" on="0"/>
        <pt x="543" y="232" on="0"/>
        <pt x="307" y="602" on="1"/>
        <pt x="287" y="602" on="1"/>
        <pt x="262" y="438" on="0"/>
        <pt x="254" y="228" on="1"/>
        <pt x="247" y="46" on="0"/>
        <pt x="195" y="25" on="1"/>
        <pt x="107" y="-12" on="1"/>
        <pt x="105" y="-13" on="0"/>
        <pt x="100" y="-14" on="0"/>
        <pt x="96" y="-14" on="1"/>
        <pt x="85" y="-14" on="0"/>
        <pt x="70" y="11" on="0"/>
        <pt x="70" y="31" on="1"/>
        <pt x="70" y="152" on="0"/>
        <pt x="172" y="874" on="0"/>
      </contour>
    </TTGlyph>
    <TTGlyph name="L" xMin="150" yMin="-14" xMax="924" yMax="1317">
      <contour>
        <pt x="150" y="-14" on="1"/>
        <pt x="166" y="57" on="1"/>
        <pt x="238" y="104" on="1"/>
        <pt x="294" y="518" on="0"/>
        <pt x="361" y="1053" on="0"/>
        <pt x="383" y="1270" on="1"/>
        <pt x="528" y="1317" on="1"/>
        <pt x="563" y="1292" on="1"/>
        <pt x="501" y="1002" on="0"/>
        <pt x="426" y="417" on="0"/>
        <pt x="414" y="125" on="1"/>
        <pt x="447" y="122" on="0"/>
        <pt x="503" y="119" on="0"/>
        <pt x="526" y="119" on="1"/>
        <pt x="613" y="119" on="0"/>
        <pt x="801" y="133" on="0"/>
        <pt x="901" y="147" on="1"/>
        <pt x="924" y="104" on="1"/>
        <pt x="877" y="16" on="1"/>
        <pt x="876" y="15" on="0"/>
        <pt x="875" y="13" on="1"/>
        <pt x="865" y="-8" on="0"/>
        <pt x="825" y="-8" on="1"/>
        <pt x="809" y="-8" on="0"/>
        <pt x="642" y="-4" on="0"/>
        <pt x="573" y="-4" on="1"/>
        <pt x="493" y="-4" on="0"/>
        <pt x="288" y="-9" on="0"/>
      </contour>
    </TTGlyph>
    <TTGlyph name="Lslash" xMin="55" yMin="-14" xMax="924" yMax="1317">
      <contour>
        <pt x="313" y="686" on="1"/>
        <pt x="333" y="829" on="0"/>
        <pt x="367" y="1119" on="0"/>
        <pt x="383" y="1270" on="1"/>
        <pt x="528" y="1317" on="1"/>
        <pt x="563" y="1292" on="1"/>
        <pt x="537" y="1172" on="0"/>
        <pt x="494" y="921" on="0"/>
        <pt x="477" y="791" on="1"/>
        <pt x="535" y="826" on="0"/>
        <pt x="615" y="879" on="1"/>
        <pt x="695" y="932" on="0"/>
        <pt x="705" y="932" on="1"/>
        <pt x="724" y="932" on="0"/>
        <pt x="748" y="905" on="0"/>
        <pt x="748" y="883" on="1"/>
        <pt x="748" y="837" on="0"/>
        <pt x="542" y="703" on="1"/>
        <pt x="487" y="668" on="0"/>
        <pt x="457" y="647" on="1"/>
        <pt x="445" y="575" on="0"/>
        <pt x="427" y="365" on="0"/>
        <pt x="414" y="125" on="1"/>
        <pt x="447" y="122" on="0"/>
        <pt x="503" y="119" on="0"/>
        <pt x="526" y="119" on="1"/>
        <pt x="613" y="119" on="0"/>
        <pt x="801" y="133" on="0"/>
        <pt x="901" y="147" on="1"/>
        <pt x="924" y="104" on="1"/>
        <pt x="877" y="16" on="1"/>
        <pt x="876" y="15" on="0"/>
        <pt x="875" y="13" on="1"/>
        <pt x="865" y="-8" on="0"/>
        <pt x="825" y="-8" on="1"/>
        <pt x="809" y="-8" on="0"/>
        <pt x="642" y="-4" on="0"/>
        <pt x="573" y="-4" on="1"/>
        <pt x="493" y="-4" on="0"/>
        <pt x="288" y="-9" on="0"/>
        <pt x="150" y="-14" on="1"/>
        <pt x="166" y="57" on="1"/>
        <pt x="238" y="104" on="1"/>
        <pt x="251" y="201" on="1"/>
        <pt x="285" y="446" on="0"/>
        <pt x="297" y="539" on="1"/>
        <pt x="253" y="511" on="0"/>
        <pt x="128" y="416" on="0"/>
        <pt x="109" y="416" on="1"/>
        <pt x="90" y="416" on="0"/>
        <pt x="55" y="462" on="0"/>
        <pt x="55" y="485" on="1"/>
        <pt x="55" y="515" on="0"/>
        <pt x="163" y="583" on="1"/>
        <pt x="255" y="642" on="0"/>
      </contour>
    </TTGlyph>
    <TTGlyph name="M" xMin="-20" yMin="-43" xMax="971" yMax="1343">
      <contour>
        <pt x="227" y="1032" on="1"/>
        <pt x="158" y="492" on="1"/>
        <pt x="149" y="429" on="0"/>
        <pt x="139" y="218" on="0"/>
        <pt x="139" y="88" on="1"/>
        <pt x="139" y="70" on="1"/>
        <pt x="139" y="45" on="0"/>
        <pt x="130" y="25" on="0"/>
        <pt x="116" y="16" on="1"/>
        <pt x="14" y="-39" on="1"/>
        <pt x="14" y="-39" on="0"/>
        <pt x="4" y="-43" on="0"/>
        <pt x="0" y="-43" on="1"/>
        <pt x="-14" y="-43" on="0"/>
        <pt x="-20" y="-34" on="0"/>
        <pt x="-20" y="-20" on="1"/>
        <pt x="-20" y="-4" on="0"/>
        <pt x="-8" y="89" on="0"/>
        <pt x="2" y="150" on="1"/>
        <pt x="176" y="1207" on="1"/>
        <pt x="175" y="1216" on="0"/>
        <pt x="172" y="1233" on="1"/>
        <pt x="168" y="1259" on="0"/>
        <pt x="168" y="1266" on="1"/>
        <pt x="168" y="1272" on="0"/>
        <pt x="179" y="1285" on="0"/>
        <pt x="186" y="1288" on="1"/>
        <pt x="295" y="1327" on="1"/>
        <pt x="299" y="1329" on="0"/>
        <pt x="309" y="1331" on="0"/>
        <pt x="317" y="1331" on="1"/>
        <pt x="327" y="1331" on="0"/>
        <pt x="338" y="1319" on="0"/>
        <pt x="338" y="1309" on="1"/>
        <pt x="338" y="1308" on="0"/>
        <pt x="337" y="1301" on="1"/>
        <pt x="330" y="1264" on="0"/>
        <pt x="330" y="1217" on="1"/>
        <pt x="330" y="1081" on="0"/>
        <pt x="403" y="576" on="0"/>
        <pt x="467" y="307" on="1"/>
        <pt x="591" y="628" on="0"/>
        <pt x="734" y="1036" on="0"/>
        <pt x="780" y="1198" on="1"/>
        <pt x="784" y="1273" on="0"/>
        <pt x="821" y="1289" on="1"/>
        <pt x="826" y="1291" on="0"/>
        <pt x="829" y="1292" on="1"/>
        <pt x="950" y="1343" on="1"/>
        <pt x="958" y="1343" on="1"/>
        <pt x="965" y="1343" on="0"/>
        <pt x="971" y="1335" on="0"/>
        <pt x="971" y="1329" on="1"/>
        <pt x="969" y="1309" on="1"/>
        <pt x="967" y="1296" on="0"/>
        <pt x="946" y="1270" on="0"/>
        <pt x="928" y="1257" on="1"/>
        <pt x="909" y="1056" on="0"/>
        <pt x="891" y="648" on="0"/>
        <pt x="891" y="440" on="1"/>
        <pt x="891" y="211" on="0"/>
        <pt x="917" y="53" on="1"/>
        <pt x="920" y="37" on="0"/>
        <pt x="920" y="35" on="1"/>
        <pt x="920" y="17" on="0"/>
        <pt x="900" y="0" on="0"/>
        <pt x="874" y="-6" on="1"/>
        <pt x="813" y="-18" on="1"/>
        <pt x="793" y="-18" on="1"/>
        <pt x="764" y="-18" on="0"/>
        <pt x="745" y="80" on="0"/>
        <pt x="745" y="240" on="1"/>
        <pt x="745" y="360" on="0"/>
        <pt x="763" y="700" on="0"/>
        <pt x="780" y="928" on="1"/>
        <pt x="708" y="706" on="0"/>
        <pt x="567" y="324" on="0"/>
        <pt x="518" y="213" on="1"/>
        <pt x="494" y="162" on="1"/>
        <pt x="484" y="141" on="0"/>
        <pt x="444" y="117" on="0"/>
        <pt x="422" y="117" on="1"/>
        <pt x="379" y="117" on="0"/>
        <pt x="272" y="613" on="0"/>
      </contour>
    </TTGlyph>
    <TTGlyph name="N" xMin="18" yMin="-8" xMax="987" yMax="1331">
      <contour>
        <pt x="143" y="1253" on="1"/>
        <pt x="319" y="1331" on="1"/>
        <pt x="349" y="1061" on="0"/>
        <pt x="540" y="518" on="0"/>
        <pt x="709" y="225" on="1"/>
        <pt x="721" y="234" on="1"/>
        <pt x="722" y="407" on="0"/>
        <pt x="783" y="906" on="0"/>
        <pt x="848" y="1266" on="1"/>
        <pt x="987" y="1309" on="1"/>
        <pt x="912" y="958" on="0"/>
        <pt x="836" y="360" on="0"/>
        <pt x="836" y="129" on="1"/>
        <pt x="836" y="76" on="1"/>
        <pt x="805" y="48" on="0"/>
        <pt x="731" y="12" on="0"/>
        <pt x="684" y="2" on="1"/>
        <pt x="531" y="236" on="0"/>
        <pt x="328" y="659" on="0"/>
        <pt x="272" y="862" on="1"/>
        <pt x="258" y="864" on="1"/>
        <pt x="255" y="844" on="1"/>
        <pt x="193" y="432" on="0"/>
        <pt x="160" y="96" on="1"/>
        <pt x="153" y="34" on="0"/>
        <pt x="147" y="24" on="0"/>
        <pt x="120" y="16" on="1"/>
        <pt x="47" y="-4" on="1"/>
        <pt x="35" y="-8" on="0"/>
        <pt x="27" y="-8" on="1"/>
        <pt x="22" y="-8" on="0"/>
        <pt x="18" y="5" on="0"/>
        <pt x="18" y="20" on="1"/>
        <pt x="18" y="36" on="0"/>
        <pt x="36" y="142" on="1"/>
        <pt x="117" y="633" on="0"/>
        <pt x="158" y="1122" on="1"/>
        <pt x="149" y="1149" on="0"/>
        <pt x="141" y="1198" on="0"/>
        <pt x="141" y="1221" on="1"/>
        <pt x="141" y="1234" on="0"/>
        <pt x="142" y="1248" on="0"/>
      </contour>
    </TTGlyph>
    <TTGlyph name="Ntilde" xMin="18" yMin="-8" xMax="987" yMax="1754">
      <component glyphName="N" x="0" y="0" flags="0x4"/>
      <component glyphName="tilde" x="31" y="451" flags="0x4"/>
    </TTGlyph>
    <TTGlyph name="O" xMin="55" yMin="-70" xMax="905" yMax="1389">
      <contour>
        <pt x="602" y="1389" on="1"/>
        <pt x="739" y="1389" on="0"/>
        <pt x="905" y="1135" on="0"/>
        <pt x="905" y="920" on="1"/>
        <pt x="905" y="730" on="0"/>
        <pt x="796" y="327" on="0"/>
        <pt x="707" y="182" on="1"/>
        <pt x="633" y="63" on="0"/>
        <pt x="456" y="-70" on="0"/>
        <pt x="371" y="-70" on="1"/>
        <pt x="228" y="-70" on="0"/>
        <pt x="55" y="227" on="0"/>
        <pt x="55" y="477" on="1"/>
        <pt x="55" y="636" on="0"/>
        <pt x="142" y="936" on="0"/>
        <pt x="223" y="1057" on="1"/>
        <pt x="260" y="1113" on="0"/>
        <pt x="314" y="1157" on="0"/>
        <pt x="342" y="1157" on="1"/>
        <pt x="371" y="1157" on="0"/>
        <pt x="442" y="1109" on="0"/>
        <pt x="442" y="1090" on="1"/>
        <pt x="442" y="1064" on="0"/>
        <pt x="411" y="1037" on="1"/>
        <pt x="398" y="1025" on="0"/>
        <pt x="391" y="1018" on="1"/>
        <pt x="320" y="941" on="0"/>
        <pt x="229" y="670" on="0"/>
        <pt x="229" y="522" on="1"/>
        <pt x="229" y="302" on="0"/>
        <pt x="328" y="74" on="0"/>
        <pt x="422" y="74" on="1"/>
        <pt x="472" y="74" on="0"/>
        <pt x="568" y="152" on="0"/>
        <pt x="616" y="231" on="1"/>
        <pt x="688" y="350" on="0"/>
        <pt x="764" y="656" on="0"/>
        <pt x="764" y="823" on="1"/>
        <pt x="764" y="1004" on="0"/>
        <pt x="689" y="1210" on="0"/>
        <pt x="625" y="1210" on="1"/>
        <pt x="607" y="1210" on="0"/>
        <pt x="541" y="1176" on="0"/>
        <pt x="516" y="1176" on="1"/>
        <pt x="470" y="1176" on="0"/>
        <pt x="416" y="1215" on="0"/>
        <pt x="416" y="1247" on="1"/>
        <pt x="416" y="1298" on="0"/>
        <pt x="527" y="1389" on="0"/>
      </contour>
    </TTGlyph>
    <TTGlyph name="OE" xMin="-51" yMin="-45" xMax="969" yMax="1329">
      <contour>
        <pt x="446" y="27" on="1"/>
        <pt x="403" y="-9" on="0"/>
        <pt x="310" y="-45" on="0"/>
        <pt x="260" y="-45" on="1"/>
        <pt x="115" y="-45" on="0"/>
        <pt x="-51" y="225" on="0"/>
        <pt x="-51" y="463" on="1"/>
        <pt x="-51" y="610" on="0"/>
        <pt x="8" y="871" on="0"/>
        <pt x="68" y="985" on="1"/>
        <pt x="122" y="1086" on="0"/>
        <pt x="193" y="1167" on="0"/>
        <pt x="227" y="1167" on="1"/>
        <pt x="250" y="1167" on="0"/>
        <pt x="322" y="1118" on="0"/>
        <pt x="322" y="1102" on="1"/>
        <pt x="322" y="1092" on="0"/>
        <pt x="254" y="1003" on="0"/>
        <pt x="229" y="965" on="1"/>
        <pt x="166" y="863" on="0"/>
        <pt x="104" y="635" on="0"/>
        <pt x="104" y="500" on="1"/>
        <pt x="104" y="301" on="0"/>
        <pt x="205" y="80" on="0"/>
        <pt x="295" y="80" on="1"/>
        <pt x="342" y="80" on="0"/>
        <pt x="384" y="143" on="0"/>
        <pt x="401" y="274" on="1"/>
        <pt x="432" y="499" on="0"/>
        <pt x="527" y="1091" on="0"/>
        <pt x="532" y="1160" on="1"/>
        <pt x="518" y="1182" on="1"/>
        <pt x="494" y="1178" on="0"/>
        <pt x="420" y="1124" on="0"/>
        <pt x="395" y="1124" on="1"/>
        <pt x="362" y="1124" on="0"/>
        <pt x="319" y="1160" on="0"/>
        <pt x="319" y="1188" on="1"/>
        <pt x="319" y="1244" on="0"/>
        <pt x="416" y="1329" on="0"/>
        <pt x="483" y="1329" on="1"/>
        <pt x="526" y="1329" on="0"/>
        <pt x="622" y="1298" on="1"/>
        <pt x="642" y="1292" on="0"/>
        <pt x="654" y="1288" on="1"/>
        <pt x="681" y="1289" on="0"/>
        <pt x="733" y="1292" on="1"/>
        <pt x="917" y="1299" on="0"/>
        <pt x="969" y="1302" on="1"/>
        <pt x="952" y="1198" on="1"/>
        <pt x="879" y="1189" on="0"/>
        <pt x="749" y="1178" on="0"/>
        <pt x="688" y="1175" on="1"/>
        <pt x="672" y="1087" on="0"/>
        <pt x="638" y="881" on="0"/>
        <pt x="621" y="762" on="1"/>
        <pt x="699" y="762" on="0"/>
        <pt x="856" y="765" on="0"/>
        <pt x="936" y="768" on="1"/>
        <pt x="913" y="666" on="1"/>
        <pt x="857" y="663" on="0"/>
        <pt x="728" y="657" on="0"/>
        <pt x="598" y="649" on="1"/>
        <pt x="566" y="447" on="0"/>
        <pt x="545" y="272" on="0"/>
        <pt x="545" y="227" on="1"/>
        <pt x="545" y="169" on="0"/>
        <pt x="615" y="111" on="0"/>
        <pt x="684" y="111" on="1"/>
        <pt x="737" y="111" on="0"/>
        <pt x="874" y="124" on="0"/>
        <pt x="956" y="137" on="1"/>
        <pt x="946" y="37" on="1"/>
        <pt x="837" y="7" on="0"/>
        <pt x="668" y="-23" on="0"/>
        <pt x="604" y="-23" on="1"/>
        <pt x="549" y="-23" on="0"/>
        <pt x="477" y="0" on="0"/>
      </contour>
    </TTGlyph>
    <TTGlyph name="Oacute" xMin="55" yMin="-70" xMax="951" yMax="1821">
      <component glyphName="O" x="0" y="0" flags="0x4"/>
      <component glyphName="acute" x="31" y="451" flags="0x4"/>
    </TTGlyph>
    <TTGlyph name="Ocircumflex" xMin="55" yMin="-70" xMax="934" yMax="1797">
      <component glyphName="O" x="0" y="0" flags="0x4"/>
      <component glyphName="circumflex" x="31" y="451" flags="0x4"/>
    </TTGlyph>
    <TTGlyph name="Odieresis" xMin="55" yMin="-70" xMax="967" yMax="1762">
      <component glyphName="O" x="0" y="0" flags="0x4"/>
      <component glyphName="dieresis" x="31" y="451" flags="0x4"/>
    </TTGlyph>
    <TTGlyph name="Ograve" xMin="55" yMin="-70" xMax="905" yMax="1821">
      <component glyphName="O" x="0" y="0" flags="0x4"/>
      <component glyphName="grave" x="31" y="451" flags="0x4"/>
    </TTGlyph>
    <TTGlyph name="Omega" xMin="82" yMin="0" xMax="942" yMax="1407">
      <contour>
        <pt x="82" y="0" on="1"/>
        <pt x="82" y="131" on="1"/>
        <pt x="295" y="131" on="1"/>
        <pt x="187" y="215" on="0"/>
        <pt x="82" y="501" on="0"/>
        <pt x="82" y="713" on="1"/>
        <pt x="82" y="1042" on="0"/>
        <pt x="308" y="1407" on="0"/>
        <pt x="512" y="1407" on="1"/>
        <pt x="716" y="1407" on="0"/>
        <pt x="942" y="1042" on="0"/>
        <pt x="942" y="713" on="1"/>
        <pt x="942" y="501" on="0"/>
        <pt x="837" y="215" on="0"/>
        <pt x="729" y="131" on="1"/>
        <pt x="942" y="131" on="1"/>
        <pt x="942" y="0" on="1"/>
        <pt x="588" y="0" on="1"/>
        <pt x="588" y="131" on="1"/>
        <pt x="689" y="190" on="0"/>
        <pt x="780" y="449" on="0"/>
        <pt x="780" y="686" on="1"/>
        <pt x="780" y="978" on="0"/>
        <pt x="646" y="1272" on="0"/>
        <pt x="512" y="1272" on="1"/>
        <pt x="375" y="1272" on="0"/>
        <pt x="244" y="973" on="0"/>
        <pt x="244" y="659" on="1"/>
        <pt x="244" y="443" on="0"/>
        <pt x="337" y="186" on="0"/>
        <pt x="436" y="131" on="1"/>
        <pt x="436" y="0" on="1"/>
      </contour>
    </TTGlyph>
    <TTGlyph name="Oslash" xMin="55" yMin="-256" xMax="905" yMax="1542">
      <contour>
        <pt x="727" y="1114" on="1"/>
        <pt x="348" y="96" on="1"/>
        <pt x="373" y="84" on="0"/>
        <pt x="407" y="74" on="0"/>
        <pt x="422" y="74" on="1"/>
        <pt x="471" y="74" on="0"/>
        <pt x="569" y="153" on="0"/>
        <pt x="616" y="231" on="1"/>
        <pt x="688" y="351" on="0"/>
        <pt x="766" y="661" on="0"/>
        <pt x="766" y="827" on="1"/>
        <pt x="766" y="892" on="0"/>
        <pt x="747" y="1033" on="0"/>
      </contour>
      <contour>
        <pt x="653" y="1202" on="1"/>
        <pt x="651" y="1203" on="0"/>
        <pt x="649" y="1204" on="1"/>
        <pt x="634" y="1210" on="0"/>
        <pt x="625" y="1210" on="1"/>
        <pt x="607" y="1210" on="0"/>
        <pt x="541" y="1176" on="0"/>
        <pt x="516" y="1176" on="1"/>
        <pt x="470" y="1176" on="0"/>
        <pt x="416" y="1215" on="0"/>
        <pt x="416" y="1247" on="1"/>
        <pt x="416" y="1298" on="0"/>
        <pt x="527" y="1389" on="0"/>
        <pt x="602" y="1389" on="1"/>
        <pt x="630" y="1389" on="0"/>
        <pt x="685" y="1376" on="0"/>
        <pt x="715" y="1364" on="1"/>
        <pt x="752" y="1473" on="1"/>
        <pt x="764" y="1509" on="0"/>
        <pt x="787" y="1542" on="0"/>
        <pt x="799" y="1542" on="1"/>
        <pt x="803" y="1542" on="1"/>
        <pt x="846" y="1532" on="1"/>
        <pt x="854" y="1530" on="0"/>
        <pt x="864" y="1510" on="0"/>
        <pt x="864" y="1495" on="1"/>
        <pt x="864" y="1490" on="0"/>
        <pt x="858" y="1469" on="0"/>
        <pt x="852" y="1450" on="1"/>
        <pt x="795" y="1298" on="1"/>
        <pt x="851" y="1233" on="0"/>
        <pt x="905" y="1048" on="0"/>
        <pt x="905" y="922" on="1"/>
        <pt x="905" y="731" on="0"/>
        <pt x="796" y="327" on="0"/>
        <pt x="707" y="182" on="1"/>
        <pt x="633" y="62" on="0"/>
        <pt x="459" y="-68" on="0"/>
        <pt x="375" y="-68" on="1"/>
        <pt x="355" y="-68" on="0"/>
        <pt x="312" y="-61" on="0"/>
        <pt x="291" y="-55" on="1"/>
        <pt x="246" y="-186" on="1"/>
        <pt x="233" y="-223" on="0"/>
        <pt x="211" y="-256" on="0"/>
        <pt x="199" y="-256" on="1"/>
        <pt x="195" y="-256" on="1"/>
        <pt x="152" y="-246" on="1"/>
        <pt x="145" y="-244" on="0"/>
        <pt x="133" y="-224" on="0"/>
        <pt x="133" y="-213" on="1"/>
        <pt x="133" y="-204" on="0"/>
        <pt x="139" y="-182" on="0"/>
        <pt x="145" y="-166" on="1"/>
        <pt x="209" y="-6" on="1"/>
        <pt x="132" y="61" on="0"/>
        <pt x="55" y="296" on="0"/>
        <pt x="55" y="463" on="1"/>
        <pt x="55" y="633" on="0"/>
        <pt x="141" y="936" on="0"/>
        <pt x="223" y="1057" on="1"/>
        <pt x="260" y="1113" on="0"/>
        <pt x="314" y="1157" on="0"/>
        <pt x="342" y="1157" on="1"/>
        <pt x="371" y="1157" on="0"/>
        <pt x="442" y="1109" on="0"/>
        <pt x="442" y="1090" on="1"/>
        <pt x="442" y="1064" on="0"/>
        <pt x="411" y="1037" on="1"/>
        <pt x="398" y="1025" on="0"/>
        <pt x="391" y="1018" on="1"/>
        <pt x="320" y="941" on="0"/>
        <pt x="225" y="656" on="0"/>
        <pt x="225" y="506" on="1"/>
        <pt x="225" y="412" on="0"/>
        <pt x="252" y="252" on="0"/>
        <pt x="279" y="184" on="1"/>
      </contour>
    </TTGlyph>
    <TTGlyph name="Otilde" xMin="55" yMin="-70" xMax="953" yMax="1754">
      <component glyphName="O" x="0" y="0" flags="0x4"/>
      <component glyphName="tilde" x="31" y="451" flags="0x4"/>
    </TTGlyph>
    <TTGlyph name="P" xMin="141" yMin="-4" xMax="985" yMax="1323">
      <contour>
        <pt x="141" y="1100" on="1"/>
        <pt x="141" y="1188" on="1"/>
        <pt x="275" y="1254" on="0"/>
        <pt x="548" y="1323" on="0"/>
        <pt x="674" y="1323" on="1"/>
        <pt x="832" y="1323" on="0"/>
        <pt x="985" y="1192" on="0"/>
        <pt x="985" y="1057" on="1"/>
        <pt x="985" y="868" on="0"/>
        <pt x="644" y="561" on="0"/>
        <pt x="360" y="500" on="1"/>
        <pt x="341" y="372" on="0"/>
        <pt x="337" y="208" on="1"/>
        <pt x="333" y="53" on="0"/>
        <pt x="283" y="33" on="1"/>
        <pt x="197" y="-2" on="1"/>
        <pt x="194" y="-3" on="0"/>
        <pt x="191" y="-4" on="0"/>
        <pt x="186" y="-4" on="1"/>
        <pt x="177" y="-4" on="0"/>
        <pt x="166" y="14" on="0"/>
        <pt x="166" y="29" on="1"/>
        <pt x="166" y="185" on="0"/>
        <pt x="241" y="794" on="0"/>
        <pt x="307" y="1146" on="1"/>
        <pt x="269" y="1140" on="0"/>
        <pt x="186" y="1116" on="0"/>
      </contour>
      <contour>
        <pt x="371" y="604" on="1"/>
        <pt x="587" y="653" on="0"/>
        <pt x="840" y="883" on="0"/>
        <pt x="840" y="1026" on="1"/>
        <pt x="840" y="1113" on="0"/>
        <pt x="738" y="1212" on="0"/>
        <pt x="649" y="1212" on="1"/>
        <pt x="616" y="1212" on="0"/>
        <pt x="520" y="1199" on="0"/>
        <pt x="449" y="1184" on="1"/>
        <pt x="426" y="1067" on="0"/>
        <pt x="387" y="774" on="0"/>
      </contour>
    </TTGlyph>
    <TTGlyph name="Q" xMin="37" yMin="-395" xMax="1075" yMax="1307">
      <contour>
        <pt x="121" y="-172" on="1"/>
        <pt x="115" y="-106" on="1"/>
        <pt x="399" y="-62" on="0"/>
        <pt x="766" y="474" on="0"/>
        <pt x="766" y="844" on="1"/>
        <pt x="766" y="1007" on="0"/>
        <pt x="649" y="1186" on="0"/>
        <pt x="543" y="1186" on="1"/>
        <pt x="467" y="1186" on="0"/>
        <pt x="350" y="1089" on="0"/>
        <pt x="299" y="983" on="1"/>
        <pt x="253" y="889" on="0"/>
        <pt x="201" y="663" on="0"/>
        <pt x="201" y="555" on="1"/>
        <pt x="201" y="447" on="0"/>
        <pt x="259" y="315" on="0"/>
        <pt x="328" y="262" on="1"/>
        <pt x="326" y="233" on="1"/>
        <pt x="238" y="188" on="1"/>
        <pt x="220" y="179" on="0"/>
        <pt x="203" y="172" on="0"/>
        <pt x="197" y="172" on="1"/>
        <pt x="143" y="172" on="0"/>
        <pt x="37" y="403" on="0"/>
        <pt x="37" y="553" on="1"/>
        <pt x="37" y="682" on="0"/>
        <pt x="109" y="939" on="0"/>
        <pt x="174" y="1042" on="1"/>
        <pt x="252" y="1166" on="0"/>
        <pt x="470" y="1307" on="0"/>
        <pt x="582" y="1307" on="1"/>
        <pt x="748" y="1307" on="0"/>
        <pt x="932" y="1056" on="0"/>
        <pt x="932" y="829" on="1"/>
        <pt x="932" y="557" on="0"/>
        <pt x="655" y="62" on="0"/>
        <pt x="420" y="-86" on="1"/>
        <pt x="638" y="-139" on="0"/>
        <pt x="946" y="-243" on="0"/>
        <pt x="1075" y="-307" on="1"/>
        <pt x="984" y="-376" on="1"/>
        <pt x="972" y="-385" on="0"/>
        <pt x="943" y="-395" on="0"/>
        <pt x="930" y="-395" on="1"/>
        <pt x="914" y="-395" on="0"/>
        <pt x="835" y="-364" on="1"/>
        <pt x="492" y="-226" on="0"/>
      </contour>
    </TTGlyph>
    <TTGlyph name="R" xMin="80" yMin="-16" xMax="946" yMax="1323">
      <contour>
        <pt x="80" y="1100" on="1"/>
        <pt x="80" y="1188" on="1"/>
        <pt x="213" y="1254" on="0"/>
        <pt x="486" y="1323" on="0"/>
        <pt x="612" y="1323" on="1"/>
        <pt x="771" y="1323" on="0"/>
        <pt x="924" y="1192" on="0"/>
        <pt x="924" y="1057" on="1"/>
        <pt x="924" y="910" on="0"/>
        <pt x="714" y="660" on="0"/>
        <pt x="516" y="571" on="1"/>
        <pt x="615" y="391" on="0"/>
        <pt x="833" y="130" on="0"/>
        <pt x="946" y="57" on="1"/>
        <pt x="938" y="21" on="0"/>
        <pt x="877" y="-16" on="0"/>
        <pt x="825" y="-16" on="1"/>
        <pt x="750" y="-16" on="0"/>
        <pt x="540" y="234" on="0"/>
        <pt x="379" y="518" on="1"/>
        <pt x="299" y="500" on="1"/>
        <pt x="280" y="373" on="0"/>
        <pt x="275" y="207" on="1"/>
        <pt x="271" y="53" on="0"/>
        <pt x="221" y="33" on="1"/>
        <pt x="135" y="-2" on="1"/>
        <pt x="133" y="-3" on="0"/>
        <pt x="129" y="-4" on="0"/>
        <pt x="125" y="-4" on="1"/>
        <pt x="115" y="-4" on="0"/>
        <pt x="102" y="14" on="0"/>
        <pt x="102" y="29" on="1"/>
        <pt x="102" y="185" on="0"/>
        <pt x="177" y="794" on="0"/>
        <pt x="243" y="1147" on="1"/>
        <pt x="206" y="1140" on="0"/>
        <pt x="127" y="1117" on="0"/>
      </contour>
      <contour>
        <pt x="307" y="604" on="1"/>
        <pt x="524" y="654" on="0"/>
        <pt x="778" y="884" on="0"/>
        <pt x="778" y="1026" on="1"/>
        <pt x="778" y="1113" on="0"/>
        <pt x="676" y="1212" on="0"/>
        <pt x="588" y="1212" on="1"/>
        <pt x="554" y="1212" on="0"/>
        <pt x="455" y="1198" on="0"/>
        <pt x="385" y="1184" on="1"/>
        <pt x="363" y="1067" on="0"/>
        <pt x="324" y="774" on="0"/>
      </contour>
    </TTGlyph>
    <TTGlyph name="S" xMin="-72" yMin="-41" xMax="883" yMax="1303">
      <contour>
        <pt x="821" y="860" on="1"/>
        <pt x="723" y="885" on="1"/>
        <pt x="739" y="932" on="0"/>
        <pt x="756" y="1018" on="0"/>
        <pt x="756" y="1055" on="1"/>
        <pt x="756" y="1095" on="0"/>
        <pt x="593" y="1198" on="0"/>
        <pt x="512" y="1198" on="1"/>
        <pt x="418" y="1198" on="0"/>
        <pt x="293" y="1068" on="0"/>
        <pt x="293" y="971" on="1"/>
        <pt x="293" y="818" on="0"/>
        <pt x="529" y="688" on="1"/>
        <pt x="581" y="659" on="0"/>
        <pt x="608" y="643" on="1"/>
        <pt x="736" y="568" on="0"/>
        <pt x="854" y="401" on="0"/>
        <pt x="854" y="297" on="1"/>
        <pt x="854" y="136" on="0"/>
        <pt x="620" y="-41" on="0"/>
        <pt x="406" y="-41" on="1"/>
        <pt x="263" y="-41" on="0"/>
        <pt x="22" y="38" on="0"/>
        <pt x="-72" y="115" on="1"/>
        <pt x="-10" y="219" on="1"/>
        <pt x="-4" y="229" on="0"/>
        <pt x="22" y="244" on="0"/>
        <pt x="35" y="244" on="1"/>
        <pt x="59" y="244" on="0"/>
        <pt x="379" y="66" on="0"/>
        <pt x="500" y="66" on="1"/>
        <pt x="596" y="66" on="0"/>
        <pt x="711" y="172" on="0"/>
        <pt x="711" y="260" on="1"/>
        <pt x="711" y="389" on="0"/>
        <pt x="477" y="515" on="1"/>
        <pt x="416" y="548" on="0"/>
        <pt x="383" y="567" on="1"/>
        <pt x="266" y="635" on="0"/>
        <pt x="154" y="802" on="0"/>
        <pt x="154" y="909" on="1"/>
        <pt x="154" y="1078" on="0"/>
        <pt x="378" y="1303" on="0"/>
        <pt x="547" y="1303" on="1"/>
        <pt x="669" y="1303" on="0"/>
        <pt x="883" y="1169" on="0"/>
        <pt x="883" y="1114" on="1"/>
        <pt x="883" y="1075" on="0"/>
        <pt x="849" y="932" on="0"/>
      </contour>
    </TTGlyph>
    <TTGlyph name="Scaron" xMin="-72" yMin="-41" xMax="934" yMax="1801">
      <component glyphName="S" x="0" y="0" flags="0x4"/>
      <component glyphName="caron" x="31" y="451" flags="0x4"/>
    </TTGlyph>
    <TTGlyph name="Scedilla" xMin="-72" yMin="-463" xMax="883" yMax="1303">
      <component glyphName="S" x="0" y="0" flags="0x4"/>
      <component glyphName="cedilla" x="76" y="0" flags="0x4"/>
    </TTGlyph>
    <TTGlyph name="T" xMin="123" yMin="-14" xMax="1034" yMax="1327">
      <contour>
        <pt x="123" y="1110" on="1"/>
        <pt x="135" y="1243" on="1"/>
        <pt x="239" y="1274" on="0"/>
        <pt x="691" y="1316" on="0"/>
        <pt x="1034" y="1327" on="1"/>
        <pt x="1010" y="1196" on="1"/>
        <pt x="921" y="1186" on="0"/>
        <pt x="746" y="1175" on="0"/>
        <pt x="655" y="1173" on="1"/>
        <pt x="611" y="941" on="0"/>
        <pt x="552" y="438" on="0"/>
        <pt x="539" y="174" on="1"/>
        <pt x="538" y="160" on="0"/>
        <pt x="538" y="134" on="1"/>
        <pt x="536" y="44" on="0"/>
        <pt x="487" y="25" on="1"/>
        <pt x="398" y="-12" on="1"/>
        <pt x="396" y="-13" on="0"/>
        <pt x="392" y="-14" on="0"/>
        <pt x="389" y="-14" on="1"/>
        <pt x="378" y="-14" on="0"/>
        <pt x="362" y="11" on="0"/>
        <pt x="362" y="31" on="1"/>
        <pt x="362" y="117" on="0"/>
        <pt x="445" y="780" on="0"/>
        <pt x="510" y="1165" on="1"/>
        <pt x="379" y="1153" on="0"/>
        <pt x="194" y="1126" on="0"/>
      </contour>
    </TTGlyph>
    <TTGlyph name="Thorn" xMin="123" yMin="-4" xMax="967" yMax="1298">
      <contour>
        <pt x="352" y="395" on="1"/>
        <pt x="569" y="445" on="0"/>
        <pt x="821" y="673" on="0"/>
        <pt x="821" y="815" on="1"/>
        <pt x="821" y="905" on="0"/>
        <pt x="716" y="1004" on="0"/>
        <pt x="618" y="1004" on="1"/>
        <pt x="583" y="1004" on="0"/>
        <pt x="493" y="989" on="0"/>
        <pt x="428" y="973" on="1"/>
        <pt x="407" y="864" on="0"/>
        <pt x="370" y="578" on="0"/>
      </contour>
      <contour>
        <pt x="270" y="934" on="1"/>
        <pt x="241" y="928" on="0"/>
        <pt x="172" y="907" on="0"/>
        <pt x="123" y="889" on="1"/>
        <pt x="123" y="979" on="1"/>
        <pt x="166" y="1000" on="0"/>
        <pt x="247" y="1030" on="0"/>
        <pt x="287" y="1040" on="1"/>
        <pt x="304" y="1126" on="0"/>
        <pt x="325" y="1231" on="0"/>
        <pt x="334" y="1278" on="1"/>
        <pt x="494" y="1298" on="1"/>
        <pt x="475" y="1233" on="0"/>
        <pt x="449" y="1127" on="0"/>
        <pt x="442" y="1087" on="1"/>
        <pt x="509" y="1102" on="0"/>
        <pt x="616" y="1116" on="0"/>
        <pt x="662" y="1116" on="1"/>
        <pt x="813" y="1116" on="0"/>
        <pt x="967" y="980" on="0"/>
        <pt x="967" y="846" on="1"/>
        <pt x="967" y="657" on="0"/>
        <pt x="626" y="350" on="0"/>
        <pt x="343" y="289" on="1"/>
        <pt x="339" y="249" on="0"/>
        <pt x="337" y="187" on="1"/>
        <pt x="332" y="53" on="0"/>
        <pt x="283" y="33" on="1"/>
        <pt x="197" y="-2" on="1"/>
        <pt x="194" y="-3" on="0"/>
        <pt x="191" y="-4" on="0"/>
        <pt x="186" y="-4" on="1"/>
        <pt x="177" y="-4" on="0"/>
        <pt x="166" y="14" on="0"/>
        <pt x="166" y="29" on="1"/>
        <pt x="166" y="159" on="0"/>
        <pt x="221" y="654" on="0"/>
      </contour>
    </TTGlyph>
    <TTGlyph name="U" xMin="49" yMin="-10" xMax="926" yMax="1296">
      <contour>
        <pt x="199" y="1276" on="1"/>
        <pt x="358" y="1296" on="1"/>
        <pt x="285" y="1003" on="0"/>
        <pt x="199" y="475" on="0"/>
        <pt x="199" y="356" on="1"/>
        <pt x="199" y="255" on="0"/>
        <pt x="295" y="143" on="0"/>
        <pt x="383" y="143" on="1"/>
        <pt x="461" y="143" on="0"/>
        <pt x="601" y="239" on="0"/>
        <pt x="664" y="336" on="1"/>
        <pt x="664" y="387" on="1"/>
        <pt x="664" y="547" on="0"/>
        <pt x="715" y="969" on="0"/>
        <pt x="766" y="1223" on="1"/>
        <pt x="926" y="1247" on="1"/>
        <pt x="872" y="1047" on="0"/>
        <pt x="815" y="640" on="0"/>
        <pt x="815" y="461" on="1"/>
        <pt x="815" y="269" on="0"/>
        <pt x="860" y="71" on="1"/>
        <pt x="868" y="32" on="0"/>
        <pt x="868" y="25" on="1"/>
        <pt x="868" y="19" on="0"/>
        <pt x="860" y="12" on="0"/>
        <pt x="842" y="8" on="1"/>
        <pt x="754" y="-8" on="1"/>
        <pt x="739" y="-10" on="0"/>
        <pt x="733" y="-10" on="1"/>
        <pt x="714" y="-10" on="0"/>
        <pt x="694" y="64" on="0"/>
        <pt x="682" y="219" on="1"/>
        <pt x="588" y="106" on="0"/>
        <pt x="423" y="4" on="0"/>
        <pt x="334" y="4" on="1"/>
        <pt x="195" y="4" on="0"/>
        <pt x="49" y="188" on="0"/>
        <pt x="49" y="362" on="1"/>
        <pt x="49" y="473" on="0"/>
        <pt x="121" y="911" on="0"/>
      </contour>
    </TTGlyph>
    <TTGlyph name="Uacute" xMin="49" yMin="-10" xMax="951" yMax="1821">
      <component glyphName="U" x="0" y="0" flags="0x4"/>
      <component glyphName="acute" x="31" y="451" flags="0x4"/>
    </TTGlyph>
    <TTGlyph name="Ucircumflex" xMin="49" yMin="-10" xMax="934" yMax="1797">
      <component glyphName="U" x="0" y="0" flags="0x4"/>
      <component glyphName="circumflex" x="31" y="451" flags="0x4"/>
    </TTGlyph>
    <TTGlyph name="Udieresis" xMin="49" yMin="-10" xMax="967" yMax="1762">
      <component glyphName="U" x="0" y="0" flags="0x4"/>
      <component glyphName="dieresis" x="31" y="451" flags="0x4"/>
    </TTGlyph>
    <TTGlyph name="Ugrave" xMin="49" yMin="-10" xMax="926" yMax="1821">
      <component glyphName="U" x="0" y="0" flags="0x4"/>
      <component glyphName="grave" x="31" y="451" flags="0x4"/>
    </TTGlyph>
    <TTGlyph name="V" xMin="180" yMin="0" xMax="971" yMax="1319">
      <contour>
        <pt x="205" y="1239" on="1"/>
        <pt x="393" y="1284" on="1"/>
        <pt x="361" y="1152" on="0"/>
        <pt x="330" y="886" on="0"/>
        <pt x="330" y="743" on="1"/>
        <pt x="330" y="594" on="0"/>
        <pt x="367" y="317" on="0"/>
        <pt x="401" y="205" on="1"/>
        <pt x="562" y="418" on="0"/>
        <pt x="758" y="930" on="0"/>
        <pt x="758" y="1120" on="1"/>
        <pt x="758" y="1130" on="0"/>
        <pt x="756" y="1189" on="0"/>
        <pt x="756" y="1208" on="1"/>
        <pt x="756" y="1255" on="0"/>
        <pt x="792" y="1297" on="0"/>
        <pt x="838" y="1303" on="1"/>
        <pt x="971" y="1319" on="1"/>
        <pt x="929" y="1079" on="0"/>
        <pt x="777" y="633" on="0"/>
        <pt x="668" y="428" on="1"/>
        <pt x="546" y="199" on="0"/>
        <pt x="397" y="0" on="0"/>
        <pt x="348" y="0" on="1"/>
        <pt x="310" y="0" on="0"/>
        <pt x="266" y="42" on="0"/>
        <pt x="250" y="94" on="1"/>
        <pt x="221" y="186" on="0"/>
        <pt x="180" y="551" on="0"/>
        <pt x="180" y="756" on="1"/>
        <pt x="180" y="849" on="0"/>
        <pt x="192" y="1079" on="0"/>
      </contour>
    </TTGlyph>
    <TTGlyph name="W" xMin="31" yMin="-29" xMax="969" yMax="1263">
      <contour>
        <pt x="139" y="1223" on="1"/>
        <pt x="332" y="1263" on="1"/>
        <pt x="322" y="1203" on="0"/>
        <pt x="279" y="1103" on="0"/>
        <pt x="244" y="1057" on="1"/>
        <pt x="207" y="935" on="0"/>
        <pt x="168" y="625" on="0"/>
        <pt x="168" y="459" on="1"/>
        <pt x="168" y="376" on="0"/>
        <pt x="199" y="217" on="0"/>
        <pt x="231" y="137" on="1"/>
        <pt x="302" y="204" on="0"/>
        <pt x="400" y="398" on="0"/>
        <pt x="426" y="522" on="1"/>
        <pt x="423" y="562" on="0"/>
        <pt x="420" y="630" on="0"/>
        <pt x="420" y="659" on="1"/>
        <pt x="420" y="772" on="0"/>
        <pt x="449" y="945" on="0"/>
        <pt x="479" y="1016" on="1"/>
        <pt x="558" y="1039" on="1"/>
        <pt x="559" y="1039" on="0"/>
        <pt x="564" y="1040" on="0"/>
        <pt x="569" y="1040" on="1"/>
        <pt x="587" y="1040" on="0"/>
        <pt x="610" y="1004" on="0"/>
        <pt x="610" y="975" on="1"/>
        <pt x="610" y="927" on="0"/>
        <pt x="584" y="752" on="0"/>
        <pt x="551" y="580" on="1"/>
        <pt x="551" y="549" on="1"/>
        <pt x="551" y="452" on="0"/>
        <pt x="603" y="245" on="0"/>
        <pt x="651" y="150" on="1"/>
        <pt x="743" y="332" on="0"/>
        <pt x="842" y="744" on="0"/>
        <pt x="842" y="940" on="1"/>
        <pt x="842" y="995" on="0"/>
        <pt x="831" y="1123" on="0"/>
        <pt x="819" y="1200" on="1"/>
        <pt x="962" y="1241" on="1"/>
        <pt x="966" y="1193" on="0"/>
        <pt x="969" y="1111" on="0"/>
        <pt x="969" y="1077" on="1"/>
        <pt x="969" y="897" on="0"/>
        <pt x="887" y="456" on="0"/>
        <pt x="813" y="246" on="1"/>
        <pt x="765" y="106" on="0"/>
        <pt x="689" y="-4" on="0"/>
        <pt x="645" y="-4" on="1"/>
        <pt x="590" y="-4" on="0"/>
        <pt x="506" y="150" on="0"/>
        <pt x="465" y="328" on="1"/>
        <pt x="384" y="154" on="0"/>
        <pt x="244" y="-29" on="0"/>
        <pt x="193" y="-29" on="1"/>
        <pt x="120" y="-29" on="0"/>
        <pt x="31" y="240" on="0"/>
        <pt x="31" y="463" on="1"/>
        <pt x="31" y="655" on="0"/>
        <pt x="85" y="1036" on="0"/>
      </contour>
    </TTGlyph>
    <TTGlyph name="X" xMin="-47" yMin="-27" xMax="936" yMax="1309">
      <contour>
        <pt x="821" y="-25" on="1"/>
        <pt x="820" y="-25" on="0"/>
        <pt x="814" y="-27" on="0"/>
        <pt x="809" y="-27" on="1"/>
        <pt x="760" y="-27" on="0"/>
        <pt x="592" y="213" on="0"/>
        <pt x="432" y="516" on="1"/>
        <pt x="328" y="357" on="0"/>
        <pt x="145" y="128" on="0"/>
        <pt x="55" y="43" on="1"/>
        <pt x="-47" y="100" on="1"/>
        <pt x="64" y="213" on="0"/>
        <pt x="274" y="474" on="0"/>
        <pt x="375" y="625" on="1"/>
        <pt x="293" y="799" on="0"/>
        <pt x="190" y="1082" on="0"/>
        <pt x="164" y="1206" on="1"/>
        <pt x="309" y="1286" on="1"/>
        <pt x="337" y="1149" on="0"/>
        <pt x="420" y="896" on="0"/>
        <pt x="477" y="776" on="1"/>
        <pt x="568" y="906" on="0"/>
        <pt x="735" y="1170" on="0"/>
        <pt x="815" y="1309" on="1"/>
        <pt x="934" y="1288" on="1"/>
        <pt x="855" y="1146" on="0"/>
        <pt x="661" y="837" on="0"/>
        <pt x="535" y="653" on="1"/>
        <pt x="617" y="487" on="0"/>
        <pt x="764" y="240" on="0"/>
        <pt x="829" y="160" on="1"/>
        <pt x="850" y="134" on="0"/>
        <pt x="936" y="55" on="0"/>
        <pt x="936" y="35" on="1"/>
        <pt x="936" y="25" on="0"/>
        <pt x="927" y="14" on="0"/>
        <pt x="913" y="8" on="1"/>
      </contour>
    </TTGlyph>
    <TTGlyph name="Y" xMin="178" yMin="-16" xMax="989" yMax="1303">
      <contour>
        <pt x="178" y="1233" on="1"/>
        <pt x="330" y="1294" on="1"/>
        <pt x="332" y="886" on="0"/>
        <pt x="402" y="553" on="0"/>
        <pt x="487" y="479" on="1"/>
        <pt x="582" y="659" on="0"/>
        <pt x="744" y="1046" on="0"/>
        <pt x="829" y="1303" on="1"/>
        <pt x="989" y="1303" on="1"/>
        <pt x="839" y="903" on="0"/>
        <pt x="541" y="277" on="0"/>
        <pt x="373" y="0" on="1"/>
        <pt x="274" y="-12" on="1"/>
        <pt x="271" y="-13" on="0"/>
        <pt x="268" y="-13" on="1"/>
        <pt x="251" y="-16" on="0"/>
        <pt x="246" y="-16" on="1"/>
        <pt x="233" y="-16" on="0"/>
        <pt x="217" y="6" on="0"/>
        <pt x="217" y="25" on="1"/>
        <pt x="217" y="47" on="0"/>
        <pt x="367" y="249" on="0"/>
        <pt x="418" y="352" on="1"/>
        <pt x="297" y="438" on="0"/>
        <pt x="187" y="834" on="0"/>
      </contour>
    </TTGlyph>
    <TTGlyph name="Yacute" xMin="178" yMin="-16" xMax="989" yMax="1821">
      <component glyphName="Y" x="0" y="0" flags="0x4"/>
      <component glyphName="acute" x="31" y="451" flags="0x4"/>
    </TTGlyph>
    <TTGlyph name="Ydieresis" xMin="178" yMin="-16" xMax="989" yMax="1762">
      <component glyphName="Y" x="0" y="0" flags="0x4"/>
      <component glyphName="dieresis" x="31" y="451" flags="0x4"/>
    </TTGlyph>
    <TTGlyph name="Z" xMin="111" yMin="-41" xMax="819" yMax="1292">
      <contour>
        <pt x="111" y="47" on="1"/>
        <pt x="135" y="168" on="1"/>
        <pt x="282" y="360" on="0"/>
        <pt x="515" y="821" on="0"/>
        <pt x="624" y="1143" on="1"/>
        <pt x="592" y="1144" on="0"/>
        <pt x="534" y="1145" on="0"/>
        <pt x="502" y="1145" on="1"/>
        <pt x="429" y="1145" on="0"/>
        <pt x="265" y="1134" on="0"/>
        <pt x="174" y="1123" on="1"/>
        <pt x="201" y="1243" on="1"/>
        <pt x="208" y="1275" on="0"/>
        <pt x="317" y="1292" on="0"/>
        <pt x="567" y="1292" on="1"/>
        <pt x="627" y="1292" on="0"/>
        <pt x="749" y="1287" on="0"/>
        <pt x="819" y="1282" on="1"/>
        <pt x="726" y="945" on="0"/>
        <pt x="478" y="398" on="0"/>
        <pt x="313" y="166" on="1"/>
        <pt x="390" y="143" on="0"/>
        <pt x="567" y="121" on="0"/>
        <pt x="672" y="121" on="1"/>
        <pt x="695" y="121" on="0"/>
        <pt x="769" y="129" on="0"/>
        <pt x="784" y="129" on="1"/>
        <pt x="800" y="129" on="0"/>
        <pt x="819" y="121" on="0"/>
        <pt x="819" y="115" on="1"/>
        <pt x="819" y="106" on="0"/>
        <pt x="812" y="78" on="0"/>
        <pt x="805" y="63" on="1"/>
        <pt x="776" y="-2" on="1"/>
        <pt x="767" y="-22" on="0"/>
        <pt x="730" y="-41" on="0"/>
        <pt x="698" y="-41" on="1"/>
        <pt x="582" y="-41" on="0"/>
        <pt x="294" y="2" on="0"/>
      </contour>
    </TTGlyph>
    <TTGlyph name="Zcaron" xMin="111" yMin="-41" xMax="934" yMax="1801">
      <component glyphName="Z" x="0" y="0" flags="0x4"/>
      <component glyphName="caron" x="31" y="451" flags="0x4"/>
    </TTGlyph>
    <TTGlyph name="a" xMin="0" yMin="-66" xMax="983" yMax="934">
      <contour>
        <pt x="549" y="229" on="1"/>
        <pt x="464" y="84" on="0"/>
        <pt x="289" y="-61" on="0"/>
        <pt x="201" y="-61" on="1"/>
        <pt x="109" y="-61" on="0"/>
        <pt x="0" y="89" on="0"/>
        <pt x="0" y="217" on="1"/>
        <pt x="0" y="373" on="0"/>
        <pt x="135" y="691" on="0"/>
        <pt x="246" y="799" on="1"/>
        <pt x="304" y="856" on="0"/>
        <pt x="461" y="928" on="0"/>
        <pt x="520" y="928" on="1"/>
        <pt x="552" y="928" on="0"/>
        <pt x="582" y="899" on="0"/>
        <pt x="582" y="868" on="1"/>
        <pt x="582" y="815" on="0"/>
        <pt x="529" y="741" on="0"/>
        <pt x="489" y="741" on="1"/>
        <pt x="466" y="741" on="0"/>
        <pt x="408" y="761" on="0"/>
        <pt x="369" y="782" on="1"/>
        <pt x="259" y="658" on="0"/>
        <pt x="154" y="404" on="0"/>
        <pt x="154" y="268" on="1"/>
        <pt x="154" y="181" on="0"/>
        <pt x="214" y="84" on="0"/>
        <pt x="268" y="84" on="1"/>
        <pt x="326" y="84" on="0"/>
        <pt x="448" y="220" on="0"/>
        <pt x="537" y="386" on="1"/>
        <pt x="543" y="438" on="0"/>
        <pt x="554" y="530" on="1"/>
        <pt x="603" y="934" on="0"/>
        <pt x="707" y="934" on="1"/>
        <pt x="761" y="934" on="0"/>
        <pt x="829" y="894" on="0"/>
        <pt x="829" y="864" on="1"/>
        <pt x="829" y="849" on="0"/>
        <pt x="811" y="791" on="0"/>
        <pt x="793" y="745" on="1"/>
        <pt x="670" y="434" on="1"/>
        <pt x="686" y="181" on="1"/>
        <pt x="690" y="122" on="0"/>
        <pt x="736" y="68" on="0"/>
        <pt x="782" y="68" on="1"/>
        <pt x="810" y="68" on="0"/>
        <pt x="874" y="96" on="0"/>
        <pt x="936" y="139" on="1"/>
        <pt x="983" y="66" on="1"/>
        <pt x="898" y="-6" on="0"/>
        <pt x="779" y="-66" on="0"/>
        <pt x="725" y="-66" on="1"/>
        <pt x="640" y="-66" on="0"/>
        <pt x="549" y="83" on="0"/>
        <pt x="549" y="221" on="1"/>
      </contour>
    </TTGlyph>
    <TTGlyph name="aacute" xMin="0" yMin="-66" xMax="983" yMax="1370">
      <component glyphName="a" x="0" y="0" flags="0x4"/>
      <component glyphName="acute" x="0" y="0" flags="0x4"/>
    </TTGlyph>
    <TTGlyph name="acircumflex" xMin="0" yMin="-66" xMax="983" yMax="1346">
      <component glyphName="a" x="0" y="0" flags="0x4"/>
      <component glyphName="circumflex" x="0" y="0" flags="0x4"/>
    </TTGlyph>
    <TTGlyph name="acute" xMin="344" yMin="1034" xMax="920" yMax="1370">
      <contour>
        <pt x="344" y="1087" on="1"/>
        <pt x="821" y="1366" on="1"/>
        <pt x="825" y="1368" on="0"/>
        <pt x="834" y="1370" on="0"/>
        <pt x="838" y="1370" on="1"/>
        <pt x="850" y="1370" on="0"/>
        <pt x="874" y="1354" on="0"/>
        <pt x="883" y="1339" on="1"/>
        <pt x="915" y="1281" on="1"/>
        <pt x="918" y="1276" on="0"/>
        <pt x="920" y="1266" on="0"/>
        <pt x="920" y="1257" on="1"/>
        <pt x="920" y="1245" on="0"/>
        <pt x="905" y="1223" on="0"/>
        <pt x="892" y="1218" on="1"/>
        <pt x="371" y="1034" on="1"/>
      </contour>
    </TTGlyph>
    <TTGlyph name="adieresis" xMin="0" yMin="-66" xMax="983" yMax="1311">
      <component glyphName="a" x="0" y="0" flags="0x4"/>
      <component glyphName="dieresis" x="0" y="0" flags="0x4"/>
    </TTGlyph>
    <TTGlyph name="ae" xMin="-37" yMin="-98" xMax="958" yMax="963">
      <contour>
        <pt x="516" y="324" on="1"/>
        <pt x="668" y="417" on="0"/>
        <pt x="815" y="623" on="0"/>
        <pt x="815" y="743" on="1"/>
        <pt x="815" y="804" on="0"/>
        <pt x="774" y="860" on="0"/>
        <pt x="731" y="860" on="1"/>
        <pt x="643" y="860" on="0"/>
        <pt x="514" y="604" on="0"/>
        <pt x="514" y="414" on="1"/>
        <pt x="514" y="381" on="0"/>
        <pt x="515" y="342" on="0"/>
      </contour>
      <contour>
        <pt x="926" y="51" on="1"/>
        <pt x="954" y="-41" on="1"/>
        <pt x="895" y="-69" on="0"/>
        <pt x="767" y="-98" on="0"/>
        <pt x="702" y="-98" on="1"/>
        <pt x="590" y="-98" on="0"/>
        <pt x="446" y="9" on="0"/>
        <pt x="414" y="117" on="1"/>
        <pt x="358" y="32" on="0"/>
        <pt x="220" y="-63" on="0"/>
        <pt x="154" y="-63" on="1"/>
        <pt x="65" y="-63" on="0"/>
        <pt x="-37" y="85" on="0"/>
        <pt x="-37" y="213" on="1"/>
        <pt x="-37" y="333" on="0"/>
        <pt x="54" y="611" on="0"/>
        <pt x="129" y="719" on="1"/>
        <pt x="206" y="828" on="0"/>
        <pt x="342" y="930" on="0"/>
        <pt x="412" y="930" on="1"/>
        <pt x="448" y="930" on="0"/>
        <pt x="475" y="902" on="0"/>
        <pt x="475" y="866" on="1"/>
        <pt x="475" y="815" on="0"/>
        <pt x="421" y="741" on="0"/>
        <pt x="381" y="741" on="1"/>
        <pt x="362" y="741" on="0"/>
        <pt x="319" y="757" on="0"/>
        <pt x="289" y="774" on="1"/>
        <pt x="199" y="660" on="0"/>
        <pt x="102" y="393" on="0"/>
        <pt x="102" y="260" on="1"/>
        <pt x="102" y="176" on="0"/>
        <pt x="162" y="84" on="0"/>
        <pt x="215" y="84" on="1"/>
        <pt x="257" y="84" on="0"/>
        <pt x="344" y="156" on="0"/>
        <pt x="385" y="225" on="1"/>
        <pt x="381" y="253" on="0"/>
        <pt x="377" y="316" on="0"/>
        <pt x="377" y="352" on="1"/>
        <pt x="377" y="610" on="0"/>
        <pt x="597" y="963" on="0"/>
        <pt x="758" y="963" on="1"/>
        <pt x="851" y="963" on="0"/>
        <pt x="958" y="849" on="0"/>
        <pt x="958" y="750" on="1"/>
        <pt x="958" y="610" on="0"/>
        <pt x="746" y="343" on="0"/>
        <pt x="539" y="221" on="1"/>
        <pt x="555" y="119" on="0"/>
        <pt x="654" y="12" on="0"/>
        <pt x="731" y="12" on="1"/>
        <pt x="778" y="12" on="0"/>
        <pt x="874" y="32" on="0"/>
      </contour>
    </TTGlyph>
    <TTGlyph name="agrave" xMin="0" yMin="-66" xMax="983" yMax="1370">
      <component glyphName="a" x="0" y="0" flags="0x4"/>
      <component glyphName="grave" x="0" y="0" flags="0x4"/>
    </TTGlyph>
    <TTGlyph name="ampersand" xMin="68" yMin="-31" xMax="840" yMax="1296">
      <contour>
        <pt x="672" y="31" on="1"/>
        <pt x="582" y="31" on="1"/>
        <pt x="563" y="92" on="1"/>
        <pt x="454" y="25" on="0"/>
        <pt x="304" y="-31" on="0"/>
        <pt x="238" y="-31" on="1"/>
        <pt x="155" y="-31" on="0"/>
        <pt x="68" y="66" on="0"/>
        <pt x="68" y="158" on="1"/>
        <pt x="68" y="283" on="0"/>
        <pt x="216" y="519" on="0"/>
        <pt x="358" y="621" on="1"/>
        <pt x="261" y="628" on="0"/>
        <pt x="172" y="699" on="0"/>
        <pt x="172" y="768" on="1"/>
        <pt x="172" y="846" on="0"/>
        <pt x="280" y="1018" on="0"/>
        <pt x="393" y="1120" on="1"/>
        <pt x="489" y="1206" on="0"/>
        <pt x="673" y="1296" on="0"/>
        <pt x="750" y="1296" on="1"/>
        <pt x="794" y="1296" on="0"/>
        <pt x="840" y="1269" on="0"/>
        <pt x="840" y="1241" on="1"/>
        <pt x="840" y="1236" on="0"/>
        <pt x="835" y="1207" on="0"/>
        <pt x="831" y="1191" on="1"/>
        <pt x="797" y="1032" on="1"/>
        <pt x="682" y="1010" on="1"/>
        <pt x="698" y="1103" on="1"/>
        <pt x="699" y="1108" on="0"/>
        <pt x="700" y="1120" on="0"/>
        <pt x="700" y="1133" on="1"/>
        <pt x="700" y="1153" on="0"/>
        <pt x="681" y="1171" on="0"/>
        <pt x="659" y="1171" on="1"/>
        <pt x="615" y="1171" on="0"/>
        <pt x="474" y="1064" on="0"/>
        <pt x="391" y="967" on="1"/>
        <pt x="347" y="914" on="0"/>
        <pt x="301" y="826" on="0"/>
        <pt x="301" y="793" on="1"/>
        <pt x="301" y="759" on="0"/>
        <pt x="339" y="733" on="0"/>
        <pt x="389" y="733" on="1"/>
        <pt x="474" y="733" on="0"/>
        <pt x="699" y="823" on="0"/>
        <pt x="713" y="823" on="1"/>
        <pt x="722" y="823" on="0"/>
        <pt x="737" y="809" on="0"/>
        <pt x="737" y="801" on="1"/>
        <pt x="741" y="737" on="1"/>
        <pt x="741" y="733" on="1"/>
        <pt x="741" y="705" on="0"/>
        <pt x="665" y="677" on="1"/>
        <pt x="632" y="665" on="0"/>
        <pt x="612" y="657" on="1"/>
        <pt x="433" y="583" on="0"/>
        <pt x="205" y="327" on="0"/>
        <pt x="205" y="211" on="1"/>
        <pt x="205" y="154" on="0"/>
        <pt x="259" y="92" on="0"/>
        <pt x="309" y="92" on="1"/>
        <pt x="348" y="92" on="0"/>
        <pt x="493" y="167" on="0"/>
        <pt x="582" y="233" on="1"/>
        <pt x="606" y="362" on="1"/>
        <pt x="530" y="356" on="1"/>
        <pt x="518" y="356" on="1"/>
        <pt x="489" y="356" on="0"/>
        <pt x="459" y="384" on="0"/>
        <pt x="459" y="412" on="1"/>
        <pt x="459" y="467" on="0"/>
        <pt x="549" y="508" on="0"/>
        <pt x="686" y="508" on="1"/>
        <pt x="745" y="508" on="0"/>
        <pt x="795" y="478" on="0"/>
        <pt x="795" y="444" on="1"/>
        <pt x="795" y="414" on="0"/>
        <pt x="769" y="378" on="0"/>
        <pt x="741" y="371" on="1"/>
        <pt x="735" y="343" on="1"/>
        <pt x="687" y="118" on="0"/>
      </contour>
    </TTGlyph>
    <TTGlyph name="apple" xMin="39" yMin="-35" xMax="985" yMax="1085">
      <contour>
        <pt x="529" y="815" on="1"/>
        <pt x="528" y="834" on="1"/>
        <pt x="528" y="924" on="0"/>
        <pt x="654" y="1066" on="0"/>
        <pt x="754" y="1085" on="1"/>
        <pt x="755" y="1077" on="0"/>
        <pt x="756" y="1062" on="0"/>
        <pt x="756" y="1047" on="1"/>
        <pt x="756" y="955" on="0"/>
        <pt x="615" y="813" on="0"/>
        <pt x="547" y="813" on="1"/>
        <pt x="541" y="813" on="1"/>
        <pt x="537" y="813" on="0"/>
        <pt x="532" y="814" on="0"/>
      </contour>
      <contour>
        <pt x="985" y="262" on="1"/>
        <pt x="909" y="96" on="0"/>
        <pt x="784" y="-35" on="0"/>
        <pt x="707" y="-35" on="1"/>
        <pt x="672" y="-35" on="0"/>
        <pt x="562" y="8" on="0"/>
        <pt x="532" y="8" on="1"/>
        <pt x="504" y="8" on="0"/>
        <pt x="389" y="-35" on="0"/>
        <pt x="360" y="-35" on="1"/>
        <pt x="316" y="-35" on="0"/>
        <pt x="229" y="24" on="0"/>
        <pt x="184" y="84" on="1"/>
        <pt x="116" y="178" on="0"/>
        <pt x="39" y="390" on="0"/>
        <pt x="39" y="485" on="1"/>
        <pt x="39" y="637" on="0"/>
        <pt x="208" y="825" on="0"/>
        <pt x="344" y="825" on="1"/>
        <pt x="390" y="825" on="0"/>
        <pt x="508" y="778" on="0"/>
        <pt x="532" y="778" on="1"/>
        <pt x="556" y="778" on="0"/>
        <pt x="674" y="825" on="0"/>
        <pt x="719" y="825" on="1"/>
        <pt x="795" y="825" on="0"/>
        <pt x="914" y="771" on="0"/>
        <pt x="963" y="715" on="1"/>
        <pt x="893" y="670" on="0"/>
        <pt x="825" y="560" on="0"/>
        <pt x="825" y="492" on="1"/>
        <pt x="825" y="415" on="0"/>
        <pt x="907" y="297" on="0"/>
      </contour>
    </TTGlyph>
    <TTGlyph name="approxequal" xMin="82" yMin="395" xMax="944" yMax="973">
      <contour>
        <pt x="944" y="827" on="1"/>
        <pt x="870" y="779" on="0"/>
        <pt x="751" y="735" on="0"/>
        <pt x="698" y="735" on="1"/>
        <pt x="637" y="735" on="0"/>
        <pt x="387" y="821" on="0"/>
        <pt x="319" y="821" on="1"/>
        <pt x="268" y="821" on="0"/>
        <pt x="148" y="771" on="0"/>
        <pt x="82" y="721" on="1"/>
        <pt x="82" y="866" on="1"/>
        <pt x="153" y="912" on="0"/>
        <pt x="272" y="956" on="0"/>
        <pt x="324" y="956" on="1"/>
        <pt x="392" y="956" on="0"/>
        <pt x="646" y="870" on="0"/>
        <pt x="702" y="870" on="1"/>
        <pt x="756" y="870" on="0"/>
        <pt x="874" y="920" on="0"/>
        <pt x="944" y="973" on="1"/>
      </contour>
      <contour>
        <pt x="944" y="502" on="1"/>
        <pt x="870" y="454" on="0"/>
        <pt x="751" y="410" on="0"/>
        <pt x="698" y="410" on="1"/>
        <pt x="637" y="410" on="0"/>
        <pt x="387" y="496" on="0"/>
        <pt x="319" y="496" on="1"/>
        <pt x="268" y="496" on="0"/>
        <pt x="148" y="445" on="0"/>
        <pt x="82" y="395" on="1"/>
        <pt x="82" y="539" on="1"/>
        <pt x="156" y="586" on="0"/>
        <pt x="273" y="631" on="0"/>
        <pt x="324" y="631" on="1"/>
        <pt x="392" y="631" on="0"/>
        <pt x="646" y="545" on="0"/>
        <pt x="702" y="545" on="1"/>
        <pt x="756" y="545" on="0"/>
        <pt x="874" y="595" on="0"/>
        <pt x="944" y="647" on="1"/>
      </contour>
    </TTGlyph>
    <TTGlyph name="aring" xMin="0" yMin="-66" xMax="983" yMax="1530">
      <contour>
        <pt x="549" y="229" on="1"/>
        <pt x="464" y="84" on="0"/>
        <pt x="289" y="-61" on="0"/>
        <pt x="201" y="-61" on="1"/>
        <pt x="109" y="-61" on="0"/>
        <pt x="0" y="89" on="0"/>
        <pt x="0" y="217" on="1"/>
        <pt x="0" y="373" on="0"/>
        <pt x="135" y="691" on="0"/>
        <pt x="246" y="799" on="1"/>
        <pt x="304" y="856" on="0"/>
        <pt x="461" y="928" on="0"/>
        <pt x="520" y="928" on="1"/>
        <pt x="552" y="928" on="0"/>
        <pt x="582" y="899" on="0"/>
        <pt x="582" y="868" on="1"/>
        <pt x="582" y="815" on="0"/>
        <pt x="529" y="741" on="0"/>
        <pt x="489" y="741" on="1"/>
        <pt x="466" y="741" on="0"/>
        <pt x="408" y="761" on="0"/>
        <pt x="369" y="782" on="1"/>
        <pt x="259" y="658" on="0"/>
        <pt x="154" y="404" on="0"/>
        <pt x="154" y="268" on="1"/>
        <pt x="154" y="181" on="0"/>
        <pt x="214" y="84" on="0"/>
        <pt x="268" y="84" on="1"/>
        <pt x="326" y="84" on="0"/>
        <pt x="448" y="220" on="0"/>
        <pt x="537" y="386" on="1"/>
        <pt x="543" y="438" on="0"/>
        <pt x="554" y="530" on="1"/>
        <pt x="603" y="934" on="0"/>
        <pt x="707" y="934" on="1"/>
        <pt x="761" y="934" on="0"/>
        <pt x="829" y="894" on="0"/>
        <pt x="829" y="864" on="1"/>
        <pt x="829" y="849" on="0"/>
        <pt x="811" y="791" on="0"/>
        <pt x="793" y="745" on="1"/>
        <pt x="670" y="434" on="1"/>
        <pt x="686" y="181" on="1"/>
        <pt x="690" y="122" on="0"/>
        <pt x="736" y="68" on="0"/>
        <pt x="782" y="68" on="1"/>
        <pt x="810" y="68" on="0"/>
        <pt x="874" y="96" on="0"/>
        <pt x="936" y="139" on="1"/>
        <pt x="983" y="66" on="1"/>
        <pt x="898" y="-6" on="0"/>
        <pt x="779" y="-66" on="0"/>
        <pt x="725" y="-66" on="1"/>
        <pt x="640" y="-66" on="0"/>
        <pt x="549" y="83" on="0"/>
        <pt x="549" y="221" on="1"/>
      </contour>
      <contour>
        <pt x="371" y="1278" on="1"/>
        <pt x="371" y="1384" on="0"/>
        <pt x="518" y="1530" on="0"/>
        <pt x="625" y="1530" on="1"/>
        <pt x="731" y="1530" on="0"/>
        <pt x="877" y="1384" on="0"/>
        <pt x="877" y="1278" on="1"/>
        <pt x="877" y="1172" on="0"/>
        <pt x="729" y="1024" on="0"/>
        <pt x="623" y="1024" on="1"/>
        <pt x="518" y="1024" on="0"/>
        <pt x="371" y="1172" on="0"/>
      </contour>
      <contour>
        <pt x="489" y="1276" on="1"/>
        <pt x="489" y="1219" on="0"/>
        <pt x="568" y="1141" on="0"/>
        <pt x="625" y="1141" on="1"/>
        <pt x="681" y="1141" on="0"/>
        <pt x="760" y="1220" on="0"/>
        <pt x="760" y="1276" on="1"/>
        <pt x="760" y="1331" on="0"/>
        <pt x="680" y="1411" on="0"/>
        <pt x="625" y="1411" on="1"/>
        <pt x="568" y="1411" on="0"/>
        <pt x="489" y="1333" on="0"/>
      </contour>
    </TTGlyph>
    <TTGlyph name="asciicircum" xMin="-10" yMin="793" xMax="1034" yMax="1382">
      <contour>
        <pt x="143" y="793" on="1"/>
        <pt x="-10" y="793" on="1"/>
        <pt x="457" y="1382" on="1"/>
        <pt x="567" y="1382" on="1"/>
        <pt x="1034" y="793" on="1"/>
        <pt x="881" y="793" on="1"/>
        <pt x="512" y="1243" on="1"/>
      </contour>
    </TTGlyph>
    <TTGlyph name="asciitilde" xMin="82" yMin="557" xMax="944" yMax="813">
      <contour>
        <pt x="82" y="557" on="1"/>
        <pt x="82" y="705" on="1"/>
        <pt x="151" y="751" on="0"/>
        <pt x="272" y="797" on="0"/>
        <pt x="324" y="797" on="1"/>
        <pt x="392" y="797" on="0"/>
        <pt x="645" y="711" on="0"/>
        <pt x="702" y="711" on="1"/>
        <pt x="755" y="711" on="0"/>
        <pt x="875" y="762" on="0"/>
        <pt x="944" y="813" on="1"/>
        <pt x="944" y="666" on="1"/>
        <pt x="874" y="619" on="0"/>
        <pt x="753" y="573" on="0"/>
        <pt x="698" y="573" on="1"/>
        <pt x="638" y="573" on="0"/>
        <pt x="387" y="659" on="0"/>
        <pt x="319" y="659" on="1"/>
        <pt x="270" y="659" on="0"/>
        <pt x="149" y="607" on="0"/>
      </contour>
    </TTGlyph>
    <TTGlyph name="asterisk" xMin="233" yMin="774" xMax="895" yMax="1520">
      <contour>
        <pt x="616" y="995" on="1"/>
        <pt x="608" y="995" on="0"/>
        <pt x="598" y="890" on="0"/>
        <pt x="590" y="854" on="1"/>
        <pt x="579" y="808" on="0"/>
        <pt x="535" y="774" on="0"/>
        <pt x="473" y="774" on="1"/>
        <pt x="440" y="774" on="0"/>
        <pt x="412" y="794" on="0"/>
        <pt x="412" y="817" on="1"/>
        <pt x="412" y="858" on="0"/>
        <pt x="485" y="995" on="0"/>
        <pt x="485" y="1001" on="1"/>
        <pt x="485" y="1012" on="0"/>
        <pt x="480" y="1020" on="0"/>
        <pt x="475" y="1020" on="1"/>
        <pt x="463" y="1020" on="0"/>
        <pt x="352" y="928" on="0"/>
        <pt x="303" y="928" on="1"/>
        <pt x="273" y="928" on="0"/>
        <pt x="233" y="982" on="0"/>
        <pt x="233" y="1020" on="1"/>
        <pt x="233" y="1083" on="0"/>
        <pt x="430" y="1147" on="0"/>
        <pt x="430" y="1153" on="1"/>
        <pt x="430" y="1164" on="0"/>
        <pt x="256" y="1247" on="0"/>
        <pt x="256" y="1303" on="1"/>
        <pt x="256" y="1352" on="0"/>
        <pt x="309" y="1423" on="0"/>
        <pt x="350" y="1423" on="1"/>
        <pt x="387" y="1423" on="0"/>
        <pt x="495" y="1296" on="0"/>
        <pt x="510" y="1296" on="1"/>
        <pt x="530" y="1296" on="0"/>
        <pt x="536" y="1376" on="1"/>
        <pt x="539" y="1408" on="0"/>
        <pt x="541" y="1425" on="1"/>
        <pt x="547" y="1474" on="0"/>
        <pt x="588" y="1520" on="0"/>
        <pt x="627" y="1520" on="1"/>
        <pt x="675" y="1520" on="0"/>
        <pt x="721" y="1488" on="0"/>
        <pt x="721" y="1454" on="1"/>
        <pt x="721" y="1408" on="0"/>
        <pt x="649" y="1286" on="0"/>
        <pt x="649" y="1276" on="1"/>
        <pt x="650" y="1271" on="0"/>
        <pt x="654" y="1268" on="0"/>
        <pt x="659" y="1268" on="1"/>
        <pt x="664" y="1268" on="0"/>
        <pt x="775" y="1319" on="0"/>
        <pt x="821" y="1319" on="1"/>
        <pt x="855" y="1319" on="0"/>
        <pt x="895" y="1272" on="0"/>
        <pt x="895" y="1231" on="1"/>
        <pt x="895" y="1175" on="0"/>
        <pt x="824" y="1130" on="0"/>
        <pt x="729" y="1130" on="1"/>
        <pt x="697" y="1130" on="0"/>
        <pt x="676" y="1122" on="0"/>
        <pt x="676" y="1112" on="1"/>
        <pt x="676" y="1102" on="0"/>
        <pt x="842" y="994" on="0"/>
        <pt x="842" y="932" on="1"/>
        <pt x="842" y="892" on="0"/>
        <pt x="794" y="836" on="0"/>
        <pt x="762" y="836" on="1"/>
        <pt x="719" y="836" on="0"/>
        <pt x="625" y="995" on="0"/>
      </contour>
    </TTGlyph>
    <TTGlyph name="at" xMin="66" yMin="-63" xMax="874" yMax="1276">
      <contour>
        <pt x="846" y="367" on="1"/>
        <pt x="755" y="343" on="0"/>
        <pt x="612" y="319" on="0"/>
        <pt x="555" y="319" on="1"/>
        <pt x="440" y="319" on="0"/>
        <pt x="311" y="421" on="0"/>
        <pt x="311" y="510" on="1"/>
        <pt x="311" y="610" on="0"/>
        <pt x="468" y="721" on="0"/>
        <pt x="610" y="721" on="1"/>
        <pt x="646" y="721" on="0"/>
        <pt x="724" y="716" on="0"/>
        <pt x="770" y="711" on="1"/>
        <pt x="773" y="731" on="0"/>
        <pt x="776" y="759" on="0"/>
        <pt x="776" y="768" on="1"/>
        <pt x="776" y="819" on="0"/>
        <pt x="718" y="864" on="0"/>
        <pt x="651" y="864" on="1"/>
        <pt x="614" y="864" on="0"/>
        <pt x="538" y="846" on="0"/>
        <pt x="496" y="827" on="1"/>
        <pt x="473" y="905" on="1"/>
        <pt x="518" y="926" on="0"/>
        <pt x="612" y="946" on="0"/>
        <pt x="662" y="946" on="1"/>
        <pt x="692" y="946" on="0"/>
        <pt x="748" y="936" on="0"/>
        <pt x="774" y="926" on="1"/>
        <pt x="774" y="932" on="0"/>
        <pt x="776" y="954" on="0"/>
        <pt x="776" y="958" on="1"/>
        <pt x="776" y="1063" on="0"/>
        <pt x="658" y="1184" on="0"/>
        <pt x="555" y="1184" on="1"/>
        <pt x="371" y="1184" on="0"/>
        <pt x="160" y="788" on="0"/>
        <pt x="160" y="442" on="1"/>
        <pt x="160" y="276" on="0"/>
        <pt x="330" y="45" on="0"/>
        <pt x="451" y="45" on="1"/>
        <pt x="511" y="45" on="0"/>
        <pt x="631" y="106" on="0"/>
        <pt x="700" y="172" on="1"/>
        <pt x="760" y="102" on="1"/>
        <pt x="686" y="22" on="0"/>
        <pt x="517" y="-63" on="0"/>
        <pt x="434" y="-63" on="1"/>
        <pt x="257" y="-63" on="0"/>
        <pt x="66" y="209" on="0"/>
        <pt x="66" y="461" on="1"/>
        <pt x="66" y="832" on="0"/>
        <pt x="335" y="1276" on="0"/>
        <pt x="561" y="1276" on="1"/>
        <pt x="716" y="1276" on="0"/>
        <pt x="874" y="1074" on="0"/>
        <pt x="874" y="874" on="1"/>
        <pt x="874" y="800" on="0"/>
        <pt x="860" y="538" on="0"/>
      </contour>
      <contour>
        <pt x="768" y="625" on="1"/>
        <pt x="715" y="631" on="0"/>
        <pt x="638" y="637" on="0"/>
        <pt x="616" y="637" on="1"/>
        <pt x="511" y="637" on="0"/>
        <pt x="401" y="576" on="0"/>
        <pt x="401" y="518" on="1"/>
        <pt x="401" y="464" on="0"/>
        <pt x="490" y="406" on="0"/>
        <pt x="573" y="406" on="1"/>
        <pt x="612" y="406" on="0"/>
        <pt x="704" y="420" on="0"/>
        <pt x="754" y="434" on="1"/>
      </contour>
    </TTGlyph>
    <TTGlyph name="atilde" xMin="0" yMin="-66" xMax="983" yMax="1303">
      <component glyphName="a" x="0" y="0" flags="0x4"/>
      <component glyphName="tilde" x="0" y="0" flags="0x4"/>
    </TTGlyph>
    <TTGlyph name="b" xMin="88" yMin="-39" xMax="860" yMax="1427">
      <contour>
        <pt x="274" y="756" on="1"/>
        <pt x="337" y="821" on="0"/>
        <pt x="490" y="891" on="0"/>
        <pt x="571" y="891" on="1"/>
        <pt x="707" y="891" on="0"/>
        <pt x="860" y="695" on="0"/>
        <pt x="860" y="518" on="1"/>
        <pt x="860" y="286" on="0"/>
        <pt x="617" y="-39" on="0"/>
        <pt x="442" y="-39" on="1"/>
        <pt x="361" y="-39" on="0"/>
        <pt x="248" y="32" on="0"/>
        <pt x="248" y="80" on="1"/>
        <pt x="248" y="129" on="0"/>
        <pt x="303" y="203" on="0"/>
        <pt x="338" y="203" on="1"/>
        <pt x="367" y="203" on="0"/>
        <pt x="383" y="170" on="1"/>
        <pt x="387" y="162" on="0"/>
        <pt x="389" y="158" on="1"/>
        <pt x="391" y="154" on="0"/>
        <pt x="396" y="145" on="1"/>
        <pt x="438" y="70" on="0"/>
        <pt x="494" y="70" on="1"/>
        <pt x="590" y="70" on="0"/>
        <pt x="707" y="281" on="0"/>
        <pt x="707" y="459" on="1"/>
        <pt x="707" y="622" on="0"/>
        <pt x="605" y="782" on="0"/>
        <pt x="502" y="782" on="1"/>
        <pt x="383" y="782" on="0"/>
        <pt x="244" y="580" on="0"/>
        <pt x="229" y="383" on="1"/>
        <pt x="224" y="310" on="0"/>
        <pt x="221" y="193" on="1"/>
        <pt x="216" y="11" on="0"/>
        <pt x="174" y="8" on="1"/>
        <pt x="131" y="6" on="1"/>
        <pt x="129" y="6" on="1"/>
        <pt x="110" y="6" on="0"/>
        <pt x="88" y="71" on="0"/>
        <pt x="88" y="127" on="1"/>
        <pt x="88" y="345" on="0"/>
        <pt x="150" y="877" on="0"/>
        <pt x="203" y="1102" on="1"/>
        <pt x="207" y="1121" on="0"/>
        <pt x="215" y="1156" on="1"/>
        <pt x="279" y="1427" on="0"/>
        <pt x="330" y="1427" on="1"/>
        <pt x="333" y="1427" on="0"/>
        <pt x="343" y="1425" on="0"/>
        <pt x="348" y="1423" on="1"/>
        <pt x="434" y="1395" on="1"/>
        <pt x="450" y="1388" on="0"/>
        <pt x="471" y="1361" on="0"/>
        <pt x="471" y="1348" on="1"/>
        <pt x="471" y="1324" on="0"/>
        <pt x="302" y="940" on="0"/>
      </contour>
    </TTGlyph>
    <TTGlyph name="backslash" xMin="233" yMin="-244" xMax="784" yMax="1393">
      <contour>
        <pt x="676" y="-172" on="1"/>
        <pt x="242" y="1304" on="1"/>
        <pt x="237" y="1324" on="0"/>
        <pt x="233" y="1344" on="0"/>
        <pt x="233" y="1350" on="1"/>
        <pt x="233" y="1363" on="0"/>
        <pt x="248" y="1386" on="0"/>
        <pt x="254" y="1386" on="1"/>
        <pt x="297" y="1393" on="1"/>
        <pt x="301" y="1393" on="1"/>
        <pt x="320" y="1393" on="0"/>
        <pt x="338" y="1333" on="1"/>
        <pt x="341" y="1325" on="0"/>
        <pt x="342" y="1321" on="1"/>
        <pt x="776" y="-158" on="1"/>
        <pt x="780" y="-169" on="0"/>
        <pt x="784" y="-193" on="0"/>
        <pt x="784" y="-203" on="1"/>
        <pt x="784" y="-216" on="0"/>
        <pt x="772" y="-236" on="0"/>
        <pt x="764" y="-238" on="1"/>
        <pt x="721" y="-244" on="1"/>
        <pt x="717" y="-244" on="1"/>
        <pt x="707" y="-244" on="0"/>
        <pt x="690" y="-215" on="0"/>
      </contour>
    </TTGlyph>
    <TTGlyph name="bar" xMin="428" yMin="-535" xMax="596" yMax="1614">
      <contour>
        <pt x="596" y="-483" on="1"/>
        <pt x="594" y="-504" on="0"/>
        <pt x="546" y="-535" on="0"/>
        <pt x="512" y="-535" on="1"/>
        <pt x="478" y="-535" on="0"/>
        <pt x="430" y="-504" on="0"/>
        <pt x="428" y="-483" on="1"/>
        <pt x="428" y="1564" on="1"/>
        <pt x="430" y="1585" on="0"/>
        <pt x="478" y="1614" on="0"/>
        <pt x="512" y="1614" on="1"/>
        <pt x="546" y="1614" on="0"/>
        <pt x="594" y="1585" on="0"/>
        <pt x="596" y="1564" on="1"/>
      </contour>
    </TTGlyph>
    <TTGlyph name="braceleft" xMin="209" yMin="-274" xMax="762" yMax="1303">
      <contour>
        <pt x="584" y="-170" on="1"/>
        <pt x="682" y="-170" on="1"/>
        <pt x="707" y="-170" on="0"/>
        <pt x="721" y="-192" on="0"/>
        <pt x="721" y="-219" on="1"/>
        <pt x="721" y="-259" on="0"/>
        <pt x="680" y="-274" on="0"/>
        <pt x="559" y="-274" on="1"/>
        <pt x="433" y="-274" on="0"/>
        <pt x="379" y="-246" on="0"/>
        <pt x="379" y="-182" on="1"/>
        <pt x="379" y="-70" on="0"/>
        <pt x="401" y="285" on="0"/>
        <pt x="401" y="350" on="1"/>
        <pt x="401" y="404" on="0"/>
        <pt x="378" y="440" on="0"/>
        <pt x="338" y="440" on="1"/>
        <pt x="289" y="440" on="1"/>
        <pt x="237" y="440" on="0"/>
        <pt x="209" y="463" on="0"/>
        <pt x="209" y="496" on="1"/>
        <pt x="209" y="535" on="0"/>
        <pt x="235" y="569" on="0"/>
        <pt x="264" y="569" on="1"/>
        <pt x="280" y="569" on="0"/>
        <pt x="333" y="563" on="0"/>
        <pt x="344" y="563" on="1"/>
        <pt x="384" y="563" on="0"/>
        <pt x="416" y="608" on="0"/>
        <pt x="416" y="672" on="1"/>
        <pt x="416" y="741" on="1"/>
        <pt x="416" y="1044" on="1"/>
        <pt x="416" y="1163" on="0"/>
        <pt x="421" y="1266" on="0"/>
        <pt x="426" y="1274" on="1"/>
        <pt x="436" y="1290" on="0"/>
        <pt x="495" y="1303" on="0"/>
        <pt x="598" y="1303" on="1"/>
        <pt x="629" y="1303" on="1"/>
        <pt x="725" y="1303" on="0"/>
        <pt x="762" y="1287" on="0"/>
        <pt x="762" y="1249" on="1"/>
        <pt x="762" y="1221" on="0"/>
        <pt x="747" y="1198" on="0"/>
        <pt x="723" y="1198" on="1"/>
        <pt x="625" y="1198" on="1"/>
        <pt x="599" y="1198" on="0"/>
        <pt x="572" y="1189" on="0"/>
        <pt x="565" y="1178" on="1"/>
        <pt x="560" y="1168" on="0"/>
        <pt x="549" y="941" on="1"/>
        <pt x="542" y="785" on="0"/>
        <pt x="537" y="682" on="1"/>
        <pt x="536" y="673" on="0"/>
        <pt x="535" y="658" on="1"/>
        <pt x="529" y="514" on="0"/>
        <pt x="449" y="514" on="1"/>
        <pt x="442" y="514" on="1"/>
        <pt x="442" y="489" on="1"/>
        <pt x="453" y="489" on="1"/>
        <pt x="500" y="489" on="0"/>
        <pt x="528" y="450" on="0"/>
        <pt x="528" y="375" on="1"/>
        <pt x="528" y="350" on="0"/>
        <pt x="524" y="152" on="0"/>
        <pt x="524" y="78" on="1"/>
        <pt x="524" y="-1" on="0"/>
        <pt x="523" y="-84" on="1"/>
        <pt x="522" y="-104" on="0"/>
        <pt x="522" y="-109" on="1"/>
        <pt x="522" y="-144" on="0"/>
        <pt x="548" y="-170" on="0"/>
      </contour>
    </TTGlyph>
    <TTGlyph name="braceright" xMin="207" yMin="-274" xMax="760" yMax="1303">
      <contour>
        <pt x="383" y="1198" on="1"/>
        <pt x="285" y="1198" on="1"/>
        <pt x="261" y="1198" on="0"/>
        <pt x="246" y="1221" on="0"/>
        <pt x="246" y="1249" on="1"/>
        <pt x="246" y="1287" on="0"/>
        <pt x="283" y="1303" on="0"/>
        <pt x="379" y="1303" on="1"/>
        <pt x="410" y="1303" on="1"/>
        <pt x="541" y="1303" on="0"/>
        <pt x="590" y="1274" on="0"/>
        <pt x="590" y="1212" on="1"/>
        <pt x="590" y="1100" on="0"/>
        <pt x="565" y="741" on="0"/>
        <pt x="565" y="678" on="1"/>
        <pt x="565" y="625" on="0"/>
        <pt x="590" y="588" on="0"/>
        <pt x="631" y="588" on="1"/>
        <pt x="680" y="588" on="1"/>
        <pt x="732" y="588" on="0"/>
        <pt x="760" y="565" on="0"/>
        <pt x="760" y="532" on="1"/>
        <pt x="760" y="494" on="0"/>
        <pt x="735" y="461" on="0"/>
        <pt x="705" y="461" on="1"/>
        <pt x="693" y="461" on="0"/>
        <pt x="639" y="465" on="0"/>
        <pt x="625" y="465" on="1"/>
        <pt x="585" y="465" on="0"/>
        <pt x="551" y="420" on="0"/>
        <pt x="551" y="369" on="1"/>
        <pt x="551" y="366" on="0"/>
        <pt x="551" y="357" on="1"/>
        <pt x="553" y="320" on="0"/>
        <pt x="553" y="289" on="1"/>
        <pt x="553" y="-14" on="1"/>
        <pt x="553" y="-132" on="0"/>
        <pt x="548" y="-236" on="0"/>
        <pt x="543" y="-243" on="1"/>
        <pt x="532" y="-261" on="0"/>
        <pt x="465" y="-274" on="0"/>
        <pt x="369" y="-274" on="1"/>
        <pt x="248" y="-274" on="0"/>
        <pt x="207" y="-259" on="0"/>
        <pt x="207" y="-219" on="1"/>
        <pt x="207" y="-192" on="0"/>
        <pt x="221" y="-170" on="0"/>
        <pt x="246" y="-170" on="1"/>
        <pt x="344" y="-170" on="1"/>
        <pt x="369" y="-170" on="0"/>
        <pt x="397" y="-160" on="0"/>
        <pt x="403" y="-150" on="1"/>
        <pt x="410" y="-139" on="0"/>
        <pt x="417" y="41" on="1"/>
        <pt x="424" y="221" on="0"/>
        <pt x="430" y="346" on="1"/>
        <pt x="431" y="356" on="0"/>
        <pt x="432" y="372" on="1"/>
        <pt x="440" y="514" on="0"/>
        <pt x="520" y="514" on="1"/>
        <pt x="526" y="514" on="1"/>
        <pt x="526" y="539" on="1"/>
        <pt x="510" y="539" on="1"/>
        <pt x="467" y="539" on="0"/>
        <pt x="440" y="578" on="0"/>
        <pt x="440" y="655" on="1"/>
        <pt x="440" y="685" on="0"/>
        <pt x="442" y="856" on="0"/>
        <pt x="442" y="911" on="1"/>
        <pt x="442" y="989" on="1"/>
        <pt x="442" y="1021" on="0"/>
        <pt x="444" y="1108" on="0"/>
        <pt x="444" y="1120" on="1"/>
        <pt x="444" y="1168" on="0"/>
        <pt x="419" y="1198" on="0"/>
      </contour>
    </TTGlyph>
    <TTGlyph name="bracketleft" xMin="336" yMin="-274" xMax="719" yMax="1303">
      <contour>
        <pt x="543" y="-170" on="1"/>
        <pt x="641" y="-170" on="1"/>
        <pt x="666" y="-170" on="0"/>
        <pt x="680" y="-192" on="0"/>
        <pt x="680" y="-219" on="1"/>
        <pt x="680" y="-258" on="0"/>
        <pt x="639" y="-274" on="0"/>
        <pt x="516" y="-274" on="1"/>
        <pt x="387" y="-274" on="0"/>
        <pt x="336" y="-246" on="0"/>
        <pt x="336" y="-178" on="1"/>
        <pt x="336" y="-120" on="0"/>
        <pt x="377" y="615" on="0"/>
        <pt x="377" y="922" on="1"/>
        <pt x="377" y="957" on="0"/>
        <pt x="375" y="1083" on="0"/>
        <pt x="375" y="1110" on="1"/>
        <pt x="375" y="1196" on="1"/>
        <pt x="375" y="1270" on="0"/>
        <pt x="424" y="1303" on="0"/>
        <pt x="557" y="1303" on="1"/>
        <pt x="588" y="1303" on="1"/>
        <pt x="682" y="1303" on="0"/>
        <pt x="719" y="1287" on="0"/>
        <pt x="719" y="1249" on="1"/>
        <pt x="719" y="1221" on="0"/>
        <pt x="704" y="1198" on="0"/>
        <pt x="680" y="1198" on="1"/>
        <pt x="582" y="1198" on="1"/>
        <pt x="519" y="1198" on="0"/>
        <pt x="517" y="1129" on="1"/>
        <pt x="517" y="1111" on="0"/>
        <pt x="516" y="1100" on="1"/>
        <pt x="499" y="819" on="0"/>
        <pt x="481" y="262" on="0"/>
        <pt x="481" y="2" on="1"/>
        <pt x="481" y="-23" on="0"/>
        <pt x="485" y="-102" on="0"/>
        <pt x="485" y="-117" on="1"/>
        <pt x="485" y="-150" on="0"/>
        <pt x="510" y="-170" on="0"/>
      </contour>
    </TTGlyph>
    <TTGlyph name="bracketright" xMin="227" yMin="-274" xMax="610" yMax="1303">
      <contour>
        <pt x="403" y="1198" on="1"/>
        <pt x="305" y="1198" on="1"/>
        <pt x="281" y="1198" on="0"/>
        <pt x="266" y="1221" on="0"/>
        <pt x="266" y="1249" on="1"/>
        <pt x="266" y="1287" on="0"/>
        <pt x="304" y="1303" on="0"/>
        <pt x="399" y="1303" on="1"/>
        <pt x="430" y="1303" on="1"/>
        <pt x="559" y="1303" on="0"/>
        <pt x="610" y="1274" on="0"/>
        <pt x="610" y="1208" on="1"/>
        <pt x="610" y="1130" on="0"/>
        <pt x="569" y="432" on="0"/>
        <pt x="569" y="166" on="1"/>
        <pt x="569" y="112" on="0"/>
        <pt x="571" y="2" on="0"/>
        <pt x="571" y="2" on="1"/>
        <pt x="571" y="-82" on="1"/>
        <pt x="571" y="-168" on="1"/>
        <pt x="571" y="-242" on="0"/>
        <pt x="523" y="-274" on="0"/>
        <pt x="389" y="-274" on="1"/>
        <pt x="268" y="-274" on="0"/>
        <pt x="227" y="-259" on="0"/>
        <pt x="227" y="-219" on="1"/>
        <pt x="227" y="-192" on="0"/>
        <pt x="241" y="-170" on="0"/>
        <pt x="266" y="-170" on="1"/>
        <pt x="365" y="-170" on="1"/>
        <pt x="427" y="-170" on="0"/>
        <pt x="429" y="-99" on="1"/>
        <pt x="429" y="-81" on="0"/>
        <pt x="430" y="-70" on="1"/>
        <pt x="447" y="199" on="0"/>
        <pt x="465" y="753" on="0"/>
        <pt x="465" y="1026" on="1"/>
        <pt x="465" y="1057" on="0"/>
        <pt x="461" y="1133" on="0"/>
        <pt x="461" y="1139" on="1"/>
        <pt x="461" y="1180" on="0"/>
        <pt x="436" y="1198" on="0"/>
      </contour>
    </TTGlyph>
    <TTGlyph name="breve" xMin="176" yMin="1083" xMax="942" yMax="1354">
      <contour>
        <pt x="559" y="1083" on="1"/>
        <pt x="395" y="1083" on="0"/>
        <pt x="176" y="1222" on="0"/>
        <pt x="176" y="1313" on="1"/>
        <pt x="176" y="1334" on="0"/>
        <pt x="190" y="1354" on="0"/>
        <pt x="205" y="1354" on="1"/>
        <pt x="234" y="1354" on="0"/>
        <pt x="292" y="1276" on="0"/>
        <pt x="311" y="1262" on="1"/>
        <pt x="349" y="1236" on="0"/>
        <pt x="474" y="1210" on="0"/>
        <pt x="559" y="1210" on="1"/>
        <pt x="647" y="1210" on="0"/>
        <pt x="772" y="1235" on="0"/>
        <pt x="807" y="1260" on="1"/>
        <pt x="827" y="1273" on="0"/>
        <pt x="885" y="1354" on="0"/>
        <pt x="913" y="1354" on="1"/>
        <pt x="928" y="1354" on="0"/>
        <pt x="942" y="1334" on="0"/>
        <pt x="942" y="1313" on="1"/>
        <pt x="942" y="1222" on="0"/>
        <pt x="723" y="1083" on="0"/>
      </contour>
    </TTGlyph>
    <TTGlyph name="brokenbar" xMin="451" yMin="-352" xMax="571" yMax="1432">
      <contour>
        <pt x="451" y="674" on="1"/>
        <pt x="451" y="1432" on="1"/>
        <pt x="571" y="1432" on="1"/>
        <pt x="571" y="674" on="1"/>
      </contour>
      <contour>
        <pt x="451" y="-352" on="1"/>
        <pt x="451" y="408" on="1"/>
        <pt x="571" y="408" on="1"/>
        <pt x="571" y="-352" on="1"/>
      </contour>
    </TTGlyph>
    <TTGlyph name="bullet" xMin="352" yMin="524" xMax="672" yMax="846">
      <contour>
        <pt x="352" y="684" on="1"/>
        <pt x="352" y="751" on="0"/>
        <pt x="446" y="846" on="0"/>
        <pt x="512" y="846" on="1"/>
        <pt x="578" y="846" on="0"/>
        <pt x="672" y="750" on="0"/>
        <pt x="672" y="684" on="1"/>
        <pt x="672" y="618" on="0"/>
        <pt x="578" y="524" on="0"/>
        <pt x="512" y="524" on="1"/>
        <pt x="445" y="524" on="0"/>
        <pt x="352" y="617" on="0"/>
      </contour>
    </TTGlyph>
    <TTGlyph name="c" xMin="27" yMin="-82" xMax="915" yMax="928">
      <contour>
        <pt x="643" y="410" on="1"/>
        <pt x="575" y="416" on="1"/>
        <pt x="584" y="480" on="0"/>
        <pt x="592" y="576" on="0"/>
        <pt x="592" y="614" on="1"/>
        <pt x="592" y="715" on="0"/>
        <pt x="526" y="805" on="0"/>
        <pt x="455" y="805" on="1"/>
        <pt x="356" y="805" on="0"/>
        <pt x="188" y="534" on="0"/>
        <pt x="188" y="369" on="1"/>
        <pt x="188" y="198" on="0"/>
        <pt x="349" y="43" on="0"/>
        <pt x="524" y="43" on="1"/>
        <pt x="617" y="43" on="0"/>
        <pt x="789" y="81" on="0"/>
        <pt x="879" y="121" on="1"/>
        <pt x="915" y="31" on="1"/>
        <pt x="810" y="-26" on="0"/>
        <pt x="587" y="-82" on="0"/>
        <pt x="463" y="-82" on="1"/>
        <pt x="248" y="-82" on="0"/>
        <pt x="27" y="110" on="0"/>
        <pt x="27" y="297" on="1"/>
        <pt x="27" y="422" on="0"/>
        <pt x="121" y="678" on="0"/>
        <pt x="201" y="770" on="1"/>
        <pt x="272" y="853" on="0"/>
        <pt x="428" y="928" on="0"/>
        <pt x="526" y="928" on="1"/>
        <pt x="643" y="928" on="0"/>
        <pt x="739" y="874" on="0"/>
        <pt x="739" y="788" on="1"/>
        <pt x="739" y="711" on="0"/>
        <pt x="693" y="527" on="0"/>
      </contour>
    </TTGlyph>
    <TTGlyph name="cacute" xMin="27" yMin="-82" xMax="920" yMax="1370">
      <component glyphName="c" x="0" y="0" flags="0x4"/>
      <component glyphName="acute" x="0" y="0" flags="0x4"/>
    </TTGlyph>
    <TTGlyph name="caron" xMin="215" yMin="1047" xMax="903" yMax="1350">
      <contour>
        <pt x="559" y="1190" on="1"/>
        <pt x="847" y="1343" on="1"/>
        <pt x="852" y="1346" on="0"/>
        <pt x="862" y="1350" on="0"/>
        <pt x="866" y="1350" on="1"/>
        <pt x="882" y="1350" on="0"/>
        <pt x="903" y="1327" on="0"/>
        <pt x="903" y="1311" on="1"/>
        <pt x="903" y="1303" on="0"/>
        <pt x="897" y="1291" on="0"/>
        <pt x="891" y="1286" on="1"/>
        <pt x="614" y="1067" on="1"/>
        <pt x="601" y="1057" on="0"/>
        <pt x="573" y="1047" on="0"/>
        <pt x="559" y="1047" on="1"/>
        <pt x="543" y="1047" on="0"/>
        <pt x="516" y="1057" on="0"/>
        <pt x="504" y="1067" on="1"/>
        <pt x="227" y="1286" on="1"/>
        <pt x="221" y="1291" on="0"/>
        <pt x="215" y="1303" on="0"/>
        <pt x="215" y="1311" on="1"/>
        <pt x="215" y="1326" on="0"/>
        <pt x="237" y="1348" on="0"/>
        <pt x="252" y="1348" on="1"/>
        <pt x="259" y="1348" on="0"/>
        <pt x="268" y="1345" on="0"/>
        <pt x="271" y="1343" on="1"/>
      </contour>
    </TTGlyph>
    <TTGlyph name="ccaron" xMin="27" yMin="-82" xMax="915" yMax="1350">
      <component glyphName="c" x="0" y="0" flags="0x4"/>
      <component glyphName="caron" x="0" y="0" flags="0x4"/>
    </TTGlyph>
    <TTGlyph name="ccedilla" xMin="27" yMin="-463" xMax="915" yMax="928">
      <component glyphName="c" x="0" y="0" flags="0x4"/>
      <component glyphName="cedilla" x="0" y="0" flags="0x4"/>
    </TTGlyph>
    <TTGlyph name="cedilla" xMin="115" yMin="-463" xMax="596" yMax="-39">
      <contour>
        <pt x="401" y="-39" on="1"/>
        <pt x="381" y="-137" on="1"/>
        <pt x="386" y="-137" on="0"/>
        <pt x="409" y="-135" on="0"/>
        <pt x="414" y="-135" on="1"/>
        <pt x="499" y="-135" on="0"/>
        <pt x="596" y="-220" on="0"/>
        <pt x="596" y="-295" on="1"/>
        <pt x="596" y="-374" on="0"/>
        <pt x="483" y="-463" on="0"/>
        <pt x="381" y="-463" on="1"/>
        <pt x="287" y="-463" on="0"/>
        <pt x="115" y="-399" on="0"/>
        <pt x="115" y="-360" on="1"/>
        <pt x="115" y="-345" on="0"/>
        <pt x="140" y="-324" on="0"/>
        <pt x="160" y="-324" on="1"/>
        <pt x="172" y="-324" on="0"/>
        <pt x="307" y="-373" on="0"/>
        <pt x="358" y="-373" on="1"/>
        <pt x="403" y="-373" on="0"/>
        <pt x="449" y="-331" on="0"/>
        <pt x="449" y="-291" on="1"/>
        <pt x="449" y="-255" on="0"/>
        <pt x="399" y="-217" on="0"/>
        <pt x="350" y="-217" on="1"/>
        <pt x="341" y="-217" on="0"/>
        <pt x="315" y="-220" on="0"/>
        <pt x="297" y="-223" on="1"/>
        <pt x="336" y="-39" on="1"/>
      </contour>
    </TTGlyph>
    <TTGlyph name="cent" xMin="162" yMin="-190" xMax="836" yMax="1386">
      <contour>
        <pt x="373" y="-190" on="1"/>
        <pt x="384" y="-30" on="0"/>
        <pt x="407" y="218" on="0"/>
        <pt x="420" y="328" on="1"/>
        <pt x="291" y="358" on="0"/>
        <pt x="162" y="487" on="0"/>
        <pt x="162" y="586" on="1"/>
        <pt x="162" y="709" on="0"/>
        <pt x="368" y="957" on="0"/>
        <pt x="512" y="995" on="1"/>
        <pt x="522" y="1068" on="0"/>
        <pt x="549" y="1227" on="0"/>
        <pt x="573" y="1358" on="1"/>
        <pt x="686" y="1386" on="1"/>
        <pt x="666" y="1274" on="0"/>
        <pt x="638" y="1085" on="0"/>
        <pt x="631" y="1008" on="1"/>
        <pt x="731" y="1004" on="0"/>
        <pt x="836" y="953" on="0"/>
        <pt x="836" y="907" on="1"/>
        <pt x="836" y="866" on="0"/>
        <pt x="775" y="793" on="0"/>
        <pt x="735" y="793" on="1"/>
        <pt x="711" y="793" on="0"/>
        <pt x="610" y="877" on="0"/>
        <pt x="557" y="877" on="1"/>
        <pt x="460" y="877" on="0"/>
        <pt x="317" y="726" on="0"/>
        <pt x="317" y="614" on="1"/>
        <pt x="317" y="523" on="0"/>
        <pt x="425" y="426" on="0"/>
        <pt x="526" y="426" on="1"/>
        <pt x="644" y="426" on="0"/>
        <pt x="744" y="506" on="1"/>
        <pt x="762" y="520" on="0"/>
        <pt x="766" y="520" on="1"/>
        <pt x="780" y="520" on="0"/>
        <pt x="799" y="496" on="0"/>
        <pt x="799" y="477" on="1"/>
        <pt x="799" y="433" on="0"/>
        <pt x="651" y="353" on="0"/>
        <pt x="532" y="336" on="1"/>
        <pt x="520" y="231" on="0"/>
        <pt x="498" y="6" on="0"/>
        <pt x="485" y="-145" on="1"/>
      </contour>
    </TTGlyph>
    <TTGlyph name="circumflex" xMin="215" yMin="1042" xMax="903" yMax="1346">
      <contour>
        <pt x="559" y="1202" on="1"/>
        <pt x="273" y="1049" on="1"/>
        <pt x="270" y="1047" on="0"/>
        <pt x="262" y="1045" on="0"/>
        <pt x="254" y="1044" on="1"/>
        <pt x="238" y="1044" on="0"/>
        <pt x="215" y="1065" on="0"/>
        <pt x="215" y="1081" on="1"/>
        <pt x="215" y="1090" on="0"/>
        <pt x="222" y="1104" on="0"/>
        <pt x="227" y="1108" on="1"/>
        <pt x="504" y="1325" on="1"/>
        <pt x="517" y="1335" on="0"/>
        <pt x="545" y="1346" on="0"/>
        <pt x="559" y="1346" on="1"/>
        <pt x="573" y="1345" on="0"/>
        <pt x="601" y="1335" on="0"/>
        <pt x="614" y="1325" on="1"/>
        <pt x="891" y="1108" on="1"/>
        <pt x="897" y="1103" on="0"/>
        <pt x="903" y="1090" on="0"/>
        <pt x="903" y="1081" on="1"/>
        <pt x="903" y="1065" on="0"/>
        <pt x="882" y="1042" on="0"/>
        <pt x="866" y="1042" on="1"/>
        <pt x="861" y="1043" on="0"/>
        <pt x="852" y="1046" on="0"/>
        <pt x="847" y="1049" on="1"/>
      </contour>
    </TTGlyph>
    <TTGlyph name="colon" xMin="270" yMin="63" xMax="664" yMax="920">
      <contour>
        <pt x="492" y="573" on="1"/>
        <pt x="482" y="573" on="0"/>
        <pt x="448" y="596" on="0"/>
        <pt x="418" y="623" on="1"/>
        <pt x="375" y="659" on="0"/>
        <pt x="319" y="730" on="0"/>
        <pt x="319" y="745" on="1"/>
        <pt x="319" y="754" on="0"/>
        <pt x="342" y="790" on="0"/>
        <pt x="365" y="815" on="1"/>
        <pt x="406" y="862" on="0"/>
        <pt x="478" y="920" on="0"/>
        <pt x="494" y="920" on="1"/>
        <pt x="505" y="920" on="0"/>
        <pt x="557" y="881" on="0"/>
        <pt x="592" y="846" on="1"/>
        <pt x="626" y="811" on="0"/>
        <pt x="664" y="757" on="0"/>
        <pt x="664" y="745" on="1"/>
        <pt x="664" y="733" on="0"/>
        <pt x="624" y="680" on="0"/>
        <pt x="590" y="647" on="1"/>
        <pt x="553" y="610" on="0"/>
        <pt x="504" y="573" on="0"/>
      </contour>
      <contour>
        <pt x="442" y="63" on="1"/>
        <pt x="432" y="63" on="0"/>
        <pt x="399" y="86" on="0"/>
        <pt x="369" y="113" on="1"/>
        <pt x="326" y="149" on="0"/>
        <pt x="270" y="220" on="0"/>
        <pt x="270" y="236" on="1"/>
        <pt x="270" y="245" on="0"/>
        <pt x="291" y="277" on="0"/>
        <pt x="315" y="305" on="1"/>
        <pt x="357" y="352" on="0"/>
        <pt x="429" y="410" on="0"/>
        <pt x="444" y="410" on="1"/>
        <pt x="455" y="410" on="0"/>
        <pt x="505" y="372" on="0"/>
        <pt x="541" y="336" on="1"/>
        <pt x="577" y="300" on="0"/>
        <pt x="616" y="247" on="0"/>
        <pt x="616" y="236" on="1"/>
        <pt x="616" y="223" on="0"/>
        <pt x="575" y="168" on="0"/>
        <pt x="541" y="135" on="1"/>
        <pt x="506" y="100" on="0"/>
        <pt x="455" y="63" on="0"/>
      </contour>
    </TTGlyph>
    <TTGlyph name="comma" xMin="158" yMin="-373" xMax="592" yMax="229">
      <contour>
        <pt x="352" y="-82" on="1"/>
        <pt x="299" y="-27" on="0"/>
        <pt x="246" y="41" on="0"/>
        <pt x="246" y="55" on="1"/>
        <pt x="246" y="65" on="0"/>
        <pt x="266" y="97" on="0"/>
        <pt x="291" y="125" on="1"/>
        <pt x="332" y="171" on="0"/>
        <pt x="405" y="229" on="0"/>
        <pt x="420" y="229" on="1"/>
        <pt x="432" y="229" on="0"/>
        <pt x="484" y="190" on="0"/>
        <pt x="522" y="152" on="1"/>
        <pt x="556" y="118" on="0"/>
        <pt x="592" y="66" on="0"/>
        <pt x="592" y="51" on="1"/>
        <pt x="592" y="-5" on="0"/>
        <pt x="386" y="-257" on="0"/>
        <pt x="229" y="-373" on="1"/>
        <pt x="158" y="-307" on="1"/>
        <pt x="237" y="-234" on="0"/>
        <pt x="333" y="-123" on="0"/>
      </contour>
    </TTGlyph>
    <TTGlyph name="copyright" xMin="6" yMin="178" xMax="1018" yMax="1190">
      <contour>
        <pt x="512" y="1118" on="1"/>
        <pt x="332" y="1118" on="0"/>
        <pt x="80" y="864" on="0"/>
        <pt x="80" y="684" on="1"/>
        <pt x="80" y="504" on="0"/>
        <pt x="332" y="252" on="0"/>
        <pt x="512" y="252" on="1"/>
        <pt x="692" y="252" on="0"/>
        <pt x="944" y="504" on="0"/>
        <pt x="944" y="684" on="1"/>
        <pt x="944" y="864" on="0"/>
        <pt x="691" y="1118" on="0"/>
      </contour>
      <contour>
        <pt x="6" y="684" on="1"/>
        <pt x="6" y="784" on="0"/>
        <pt x="82" y="967" on="0"/>
        <pt x="154" y="1040" on="1"/>
        <pt x="226" y="1112" on="0"/>
        <pt x="413" y="1190" on="0"/>
        <pt x="514" y="1190" on="1"/>
        <pt x="613" y="1190" on="0"/>
        <pt x="800" y="1113" on="0"/>
        <pt x="870" y="1042" on="1"/>
        <pt x="940" y="973" on="0"/>
        <pt x="1018" y="783" on="0"/>
        <pt x="1018" y="684" on="1"/>
        <pt x="1018" y="474" on="0"/>
        <pt x="723" y="178" on="0"/>
        <pt x="512" y="178" on="1"/>
        <pt x="410" y="178" on="0"/>
        <pt x="225" y="254" on="0"/>
        <pt x="154" y="326" on="1"/>
        <pt x="82" y="396" on="0"/>
        <pt x="6" y="580" on="0"/>
      </contour>
      <contour>
        <pt x="616" y="518" on="1"/>
        <pt x="713" y="494" on="1"/>
        <pt x="694" y="407" on="0"/>
        <pt x="596" y="317" on="0"/>
        <pt x="520" y="317" on="1"/>
        <pt x="407" y="317" on="0"/>
        <pt x="289" y="506" on="0"/>
        <pt x="289" y="686" on="1"/>
        <pt x="289" y="863" on="0"/>
        <pt x="404" y="1053" on="0"/>
        <pt x="512" y="1053" on="1"/>
        <pt x="599" y="1053" on="0"/>
        <pt x="703" y="949" on="0"/>
        <pt x="711" y="854" on="1"/>
        <pt x="604" y="846" on="1"/>
        <pt x="594" y="904" on="0"/>
        <pt x="551" y="954" on="0"/>
        <pt x="512" y="954" on="1"/>
        <pt x="457" y="954" on="0"/>
        <pt x="401" y="820" on="0"/>
        <pt x="401" y="686" on="1"/>
        <pt x="401" y="546" on="0"/>
        <pt x="459" y="418" on="0"/>
        <pt x="522" y="418" on="1"/>
        <pt x="559" y="418" on="0"/>
        <pt x="600" y="461" on="0"/>
      </contour>
    </TTGlyph>
    <TTGlyph name="currency" xMin="78" yMin="-82" xMax="922" yMax="1300">
      <contour>
        <pt x="922" y="1165" on="1"/>
        <pt x="922" y="1110" on="0"/>
        <pt x="887" y="972" on="0"/>
        <pt x="858" y="913" on="1"/>
        <pt x="762" y="936" on="1"/>
        <pt x="776" y="976" on="0"/>
        <pt x="795" y="1071" on="0"/>
        <pt x="795" y="1106" on="1"/>
        <pt x="760" y="1137" on="0"/>
        <pt x="671" y="1171" on="0"/>
        <pt x="629" y="1171" on="1"/>
        <pt x="572" y="1171" on="0"/>
        <pt x="444" y="968" on="0"/>
        <pt x="408" y="817" on="1"/>
        <pt x="729" y="817" on="1"/>
        <pt x="744" y="817" on="0"/>
        <pt x="756" y="810" on="0"/>
        <pt x="756" y="801" on="1"/>
        <pt x="756" y="797" on="0"/>
        <pt x="751" y="784" on="1"/>
        <pt x="749" y="778" on="0"/>
        <pt x="748" y="775" on="1"/>
        <pt x="735" y="743" on="1"/>
        <pt x="724" y="715" on="0"/>
        <pt x="704" y="698" on="0"/>
        <pt x="682" y="698" on="1"/>
        <pt x="385" y="698" on="1"/>
        <pt x="380" y="659" on="0"/>
        <pt x="375" y="587" on="0"/>
        <pt x="375" y="553" on="1"/>
        <pt x="375" y="532" on="1"/>
        <pt x="612" y="532" on="1"/>
        <pt x="627" y="532" on="0"/>
        <pt x="639" y="525" on="0"/>
        <pt x="639" y="516" on="1"/>
        <pt x="639" y="512" on="0"/>
        <pt x="634" y="499" on="1"/>
        <pt x="632" y="493" on="0"/>
        <pt x="631" y="490" on="1"/>
        <pt x="618" y="458" on="1"/>
        <pt x="607" y="430" on="0"/>
        <pt x="587" y="414" on="0"/>
        <pt x="565" y="414" on="1"/>
        <pt x="379" y="414" on="1"/>
        <pt x="391" y="220" on="0"/>
        <pt x="488" y="25" on="0"/>
        <pt x="573" y="25" on="1"/>
        <pt x="611" y="25" on="0"/>
        <pt x="702" y="92" on="0"/>
        <pt x="756" y="160" on="1"/>
        <pt x="809" y="113" on="1"/>
        <pt x="733" y="5" on="0"/>
        <pt x="605" y="-82" on="0"/>
        <pt x="522" y="-82" on="1"/>
        <pt x="390" y="-82" on="0"/>
        <pt x="229" y="178" on="0"/>
        <pt x="215" y="414" on="1"/>
        <pt x="104" y="414" on="1"/>
        <pt x="90" y="414" on="0"/>
        <pt x="78" y="421" on="0"/>
        <pt x="78" y="430" on="1"/>
        <pt x="78" y="434" on="0"/>
        <pt x="82" y="446" on="1"/>
        <pt x="85" y="453" on="0"/>
        <pt x="86" y="457" on="1"/>
        <pt x="98" y="487" on="1"/>
        <pt x="109" y="516" on="0"/>
        <pt x="129" y="532" on="0"/>
        <pt x="152" y="532" on="1"/>
        <pt x="213" y="532" on="1"/>
        <pt x="213" y="569" on="0"/>
        <pt x="220" y="650" on="0"/>
        <pt x="227" y="698" on="1"/>
        <pt x="139" y="698" on="1"/>
        <pt x="125" y="698" on="0"/>
        <pt x="113" y="706" on="0"/>
        <pt x="113" y="715" on="1"/>
        <pt x="113" y="719" on="0"/>
        <pt x="117" y="731" on="1"/>
        <pt x="120" y="738" on="0"/>
        <pt x="121" y="742" on="1"/>
        <pt x="133" y="772" on="1"/>
        <pt x="144" y="800" on="0"/>
        <pt x="164" y="817" on="0"/>
        <pt x="186" y="817" on="1"/>
        <pt x="252" y="817" on="1"/>
        <pt x="275" y="901" on="0"/>
        <pt x="342" y="1048" on="0"/>
        <pt x="383" y="1106" on="1"/>
        <pt x="448" y="1197" on="0"/>
        <pt x="608" y="1300" on="0"/>
        <pt x="684" y="1300" on="1"/>
        <pt x="734" y="1300" on="0"/>
        <pt x="833" y="1270" on="0"/>
        <pt x="874" y="1241" on="1"/>
        <pt x="906" y="1220" on="0"/>
        <pt x="922" y="1193" on="0"/>
      </contour>
    </TTGlyph>
    <TTGlyph name="d" xMin="25" yMin="-66" xMax="987" yMax="1427">
      <contour>
        <pt x="639" y="709" on="1"/>
        <pt x="560" y="735" on="0"/>
        <pt x="435" y="762" on="0"/>
        <pt x="387" y="762" on="1"/>
        <pt x="342" y="762" on="0"/>
        <pt x="284" y="726" on="0"/>
        <pt x="260" y="682" on="1"/>
        <pt x="225" y="618" on="0"/>
        <pt x="178" y="427" on="0"/>
        <pt x="178" y="344" on="1"/>
        <pt x="178" y="222" on="0"/>
        <pt x="263" y="78" on="0"/>
        <pt x="334" y="78" on="1"/>
        <pt x="438" y="78" on="0"/>
        <pt x="605" y="419" on="0"/>
      </contour>
      <contour>
        <pt x="592" y="160" on="1"/>
        <pt x="516" y="43" on="0"/>
        <pt x="372" y="-66" on="0"/>
        <pt x="293" y="-66" on="1"/>
        <pt x="173" y="-66" on="0"/>
        <pt x="25" y="137" on="0"/>
        <pt x="25" y="303" on="1"/>
        <pt x="25" y="414" on="0"/>
        <pt x="89" y="643" on="0"/>
        <pt x="145" y="733" on="1"/>
        <pt x="195" y="814" on="0"/>
        <pt x="356" y="891" on="0"/>
        <pt x="475" y="891" on="1"/>
        <pt x="521" y="891" on="0"/>
        <pt x="618" y="876" on="0"/>
        <pt x="672" y="860" on="1"/>
        <pt x="684" y="918" on="0"/>
        <pt x="704" y="1019" on="1"/>
        <pt x="787" y="1427" on="0"/>
        <pt x="848" y="1427" on="1"/>
        <pt x="851" y="1427" on="0"/>
        <pt x="856" y="1426" on="0"/>
        <pt x="865" y="1423" on="1"/>
        <pt x="950" y="1395" on="1"/>
        <pt x="966" y="1388" on="0"/>
        <pt x="987" y="1360" on="0"/>
        <pt x="987" y="1346" on="1"/>
        <pt x="987" y="1323" on="0"/>
        <pt x="888" y="1076" on="0"/>
        <pt x="854" y="971" on="1"/>
        <pt x="803" y="812" on="0"/>
        <pt x="745" y="435" on="0"/>
        <pt x="745" y="262" on="1"/>
        <pt x="745" y="164" on="0"/>
        <pt x="759" y="90" on="0"/>
        <pt x="776" y="90" on="1"/>
        <pt x="802" y="90" on="0"/>
        <pt x="895" y="140" on="1"/>
        <pt x="919" y="153" on="0"/>
        <pt x="931" y="159" on="1"/>
        <pt x="975" y="72" on="1"/>
        <pt x="886" y="15" on="0"/>
        <pt x="720" y="-55" on="0"/>
        <pt x="684" y="-55" on="1"/>
        <pt x="642" y="-55" on="0"/>
        <pt x="602" y="31" on="0"/>
      </contour>
    </TTGlyph>
    <TTGlyph name="dagger" xMin="133" yMin="-14" xMax="946" yMax="1305">
      <contour>
        <pt x="649" y="1305" on="1"/>
        <pt x="636" y="1226" on="0"/>
        <pt x="607" y="1027" on="0"/>
        <pt x="606" y="1020" on="1"/>
        <pt x="701" y="1028" on="0"/>
        <pt x="869" y="1037" on="0"/>
        <pt x="946" y="1038" on="1"/>
        <pt x="926" y="909" on="1"/>
        <pt x="865" y="901" on="0"/>
        <pt x="638" y="886" on="0"/>
        <pt x="588" y="880" on="1"/>
        <pt x="563" y="656" on="0"/>
        <pt x="534" y="262" on="0"/>
        <pt x="530" y="114" on="1"/>
        <pt x="530" y="81" on="0"/>
        <pt x="507" y="41" on="0"/>
        <pt x="481" y="29" on="1"/>
        <pt x="397" y="-12" on="1"/>
        <pt x="396" y="-13" on="0"/>
        <pt x="393" y="-14" on="0"/>
        <pt x="389" y="-14" on="1"/>
        <pt x="377" y="-14" on="0"/>
        <pt x="362" y="12" on="0"/>
        <pt x="362" y="35" on="1"/>
        <pt x="362" y="71" on="0"/>
        <pt x="401" y="451" on="0"/>
        <pt x="446" y="868" on="1"/>
        <pt x="366" y="864" on="0"/>
        <pt x="209" y="841" on="0"/>
        <pt x="133" y="823" on="1"/>
        <pt x="145" y="954" on="1"/>
        <pt x="224" y="976" on="0"/>
        <pt x="384" y="1003" on="0"/>
        <pt x="465" y="1008" on="1"/>
        <pt x="470" y="1058" on="0"/>
        <pt x="491" y="1192" on="0"/>
        <pt x="510" y="1294" on="1"/>
      </contour>
    </TTGlyph>
    <TTGlyph name="daggerdbl" xMin="102" yMin="-14" xMax="946" yMax="1305">
      <contour>
        <pt x="649" y="1305" on="1"/>
        <pt x="636" y="1226" on="0"/>
        <pt x="607" y="1027" on="0"/>
        <pt x="606" y="1020" on="1"/>
        <pt x="701" y="1028" on="0"/>
        <pt x="869" y="1037" on="0"/>
        <pt x="946" y="1038" on="1"/>
        <pt x="926" y="909" on="1"/>
        <pt x="865" y="901" on="0"/>
        <pt x="638" y="886" on="0"/>
        <pt x="588" y="880" on="1"/>
        <pt x="581" y="821" on="0"/>
        <pt x="568" y="676" on="0"/>
        <pt x="561" y="576" on="1"/>
        <pt x="662" y="586" on="0"/>
        <pt x="836" y="597" on="0"/>
        <pt x="915" y="598" on="1"/>
        <pt x="893" y="467" on="1"/>
        <pt x="825" y="459" on="0"/>
        <pt x="582" y="441" on="0"/>
        <pt x="549" y="438" on="1"/>
        <pt x="539" y="345" on="0"/>
        <pt x="536" y="212" on="1"/>
        <pt x="533" y="54" on="0"/>
        <pt x="481" y="29" on="1"/>
        <pt x="397" y="-12" on="1"/>
        <pt x="396" y="-13" on="0"/>
        <pt x="393" y="-14" on="0"/>
        <pt x="389" y="-14" on="1"/>
        <pt x="377" y="-14" on="0"/>
        <pt x="362" y="12" on="0"/>
        <pt x="362" y="35" on="1"/>
        <pt x="362" y="60" on="0"/>
        <pt x="382" y="277" on="0"/>
        <pt x="397" y="426" on="1"/>
        <pt x="307" y="419" on="0"/>
        <pt x="165" y="397" on="0"/>
        <pt x="102" y="381" on="1"/>
        <pt x="113" y="512" on="1"/>
        <pt x="184" y="533" on="0"/>
        <pt x="334" y="558" on="0"/>
        <pt x="413" y="563" on="1"/>
        <pt x="422" y="633" on="0"/>
        <pt x="438" y="780" on="0"/>
        <pt x="446" y="868" on="1"/>
        <pt x="366" y="864" on="0"/>
        <pt x="209" y="841" on="0"/>
        <pt x="133" y="823" on="1"/>
        <pt x="145" y="954" on="1"/>
        <pt x="224" y="976" on="0"/>
        <pt x="384" y="1003" on="0"/>
        <pt x="465" y="1008" on="1"/>
        <pt x="470" y="1058" on="0"/>
        <pt x="491" y="1192" on="0"/>
        <pt x="510" y="1294" on="1"/>
      </contour>
    </TTGlyph>
    <TTGlyph name="dcroat" xMin="25" yMin="-66" xMax="1159" yMax="1427">
      <contour>
        <pt x="727" y="1141" on="1"/>
        <pt x="734" y="1169" on="0"/>
        <pt x="747" y="1222" on="1"/>
        <pt x="799" y="1427" on="0"/>
        <pt x="844" y="1427" on="1"/>
        <pt x="849" y="1427" on="0"/>
        <pt x="859" y="1425" on="1"/>
        <pt x="862" y="1424" on="0"/>
        <pt x="864" y="1423" on="1"/>
        <pt x="950" y="1395" on="1"/>
        <pt x="966" y="1388" on="0"/>
        <pt x="987" y="1360" on="0"/>
        <pt x="987" y="1346" on="1"/>
        <pt x="987" y="1320" on="0"/>
        <pt x="950" y="1233" on="1"/>
        <pt x="925" y="1175" on="0"/>
        <pt x="912" y="1139" on="1"/>
        <pt x="960" y="1136" on="0"/>
        <pt x="1040" y="1133" on="0"/>
        <pt x="1071" y="1133" on="1"/>
        <pt x="1096" y="1133" on="1"/>
        <pt x="1135" y="1133" on="0"/>
        <pt x="1159" y="1116" on="0"/>
        <pt x="1159" y="1096" on="1"/>
        <pt x="1159" y="1062" on="0"/>
        <pt x="1098" y="1028" on="0"/>
        <pt x="1038" y="1028" on="1"/>
        <pt x="979" y="1028" on="0"/>
        <pt x="909" y="1029" on="0"/>
        <pt x="875" y="1030" on="1"/>
        <pt x="812" y="848" on="0"/>
        <pt x="745" y="453" on="0"/>
        <pt x="745" y="262" on="1"/>
        <pt x="745" y="164" on="0"/>
        <pt x="759" y="90" on="0"/>
        <pt x="776" y="90" on="1"/>
        <pt x="802" y="90" on="0"/>
        <pt x="895" y="140" on="1"/>
        <pt x="919" y="153" on="0"/>
        <pt x="931" y="159" on="1"/>
        <pt x="975" y="72" on="1"/>
        <pt x="886" y="15" on="0"/>
        <pt x="720" y="-55" on="0"/>
        <pt x="684" y="-55" on="1"/>
        <pt x="642" y="-55" on="0"/>
        <pt x="602" y="31" on="0"/>
        <pt x="592" y="160" on="1"/>
        <pt x="516" y="43" on="0"/>
        <pt x="372" y="-66" on="0"/>
        <pt x="293" y="-66" on="1"/>
        <pt x="173" y="-66" on="0"/>
        <pt x="25" y="137" on="0"/>
        <pt x="25" y="303" on="1"/>
        <pt x="25" y="414" on="0"/>
        <pt x="89" y="643" on="0"/>
        <pt x="145" y="733" on="1"/>
        <pt x="195" y="814" on="0"/>
        <pt x="356" y="891" on="0"/>
        <pt x="475" y="891" on="1"/>
        <pt x="524" y="891" on="0"/>
        <pt x="620" y="876" on="0"/>
        <pt x="672" y="861" on="1"/>
        <pt x="679" y="910" on="0"/>
        <pt x="694" y="994" on="0"/>
        <pt x="702" y="1030" on="1"/>
        <pt x="630" y="1028" on="0"/>
        <pt x="485" y="1022" on="0"/>
        <pt x="481" y="1022" on="1"/>
        <pt x="447" y="1022" on="0"/>
        <pt x="422" y="1047" on="0"/>
        <pt x="422" y="1077" on="1"/>
        <pt x="422" y="1113" on="0"/>
        <pt x="458" y="1143" on="0"/>
        <pt x="504" y="1143" on="1"/>
        <pt x="506" y="1143" on="0"/>
        <pt x="519" y="1142" on="1"/>
        <pt x="580" y="1141" on="0"/>
        <pt x="643" y="1141" on="1"/>
      </contour>
      <contour>
        <pt x="639" y="709" on="1"/>
        <pt x="560" y="735" on="0"/>
        <pt x="435" y="762" on="0"/>
        <pt x="387" y="762" on="1"/>
        <pt x="342" y="762" on="0"/>
        <pt x="284" y="726" on="0"/>
        <pt x="260" y="682" on="1"/>
        <pt x="225" y="618" on="0"/>
        <pt x="178" y="427" on="0"/>
        <pt x="178" y="344" on="1"/>
        <pt x="178" y="222" on="0"/>
        <pt x="263" y="78" on="0"/>
        <pt x="334" y="78" on="1"/>
        <pt x="438" y="78" on="0"/>
        <pt x="605" y="419" on="0"/>
      </contour>
    </TTGlyph>
    <TTGlyph name="degree" xMin="350" yMin="915" xMax="858" yMax="1550">
      <contour>
        <pt x="735" y="1337" on="1"/>
        <pt x="735" y="1385" on="0"/>
        <pt x="686" y="1442" on="0"/>
        <pt x="645" y="1442" on="1"/>
        <pt x="577" y="1442" on="0"/>
        <pt x="467" y="1240" on="0"/>
        <pt x="467" y="1120" on="1"/>
        <pt x="467" y="1077" on="0"/>
        <pt x="517" y="1024" on="0"/>
        <pt x="557" y="1024" on="1"/>
        <pt x="627" y="1024" on="0"/>
        <pt x="735" y="1215" on="0"/>
      </contour>
      <contour>
        <pt x="676" y="1550" on="1"/>
        <pt x="754" y="1550" on="0"/>
        <pt x="858" y="1430" on="0"/>
        <pt x="858" y="1337" on="1"/>
        <pt x="858" y="1176" on="0"/>
        <pt x="660" y="915" on="0"/>
        <pt x="539" y="915" on="1"/>
        <pt x="455" y="915" on="0"/>
        <pt x="350" y="1034" on="0"/>
        <pt x="350" y="1130" on="1"/>
        <pt x="350" y="1293" on="0"/>
        <pt x="549" y="1550" on="0"/>
      </contour>
    </TTGlyph>
    <TTGlyph name="dieresis" xMin="184" yMin="1069" xMax="936" yMax="1311">
      <contour>
        <pt x="694" y="1192" on="1"/>
        <pt x="694" y="1240" on="0"/>
        <pt x="766" y="1311" on="0"/>
        <pt x="815" y="1311" on="1"/>
        <pt x="865" y="1311" on="0"/>
        <pt x="936" y="1241" on="0"/>
        <pt x="936" y="1192" on="1"/>
        <pt x="936" y="1138" on="0"/>
        <pt x="868" y="1069" on="0"/>
        <pt x="815" y="1069" on="1"/>
        <pt x="765" y="1069" on="0"/>
        <pt x="694" y="1141" on="0"/>
      </contour>
      <contour>
        <pt x="184" y="1192" on="1"/>
        <pt x="184" y="1240" on="0"/>
        <pt x="256" y="1311" on="0"/>
        <pt x="305" y="1311" on="1"/>
        <pt x="354" y="1311" on="0"/>
        <pt x="424" y="1241" on="0"/>
        <pt x="424" y="1192" on="1"/>
        <pt x="424" y="1138" on="0"/>
        <pt x="357" y="1069" on="0"/>
        <pt x="305" y="1069" on="1"/>
        <pt x="255" y="1069" on="0"/>
        <pt x="184" y="1141" on="0"/>
      </contour>
    </TTGlyph>
    <TTGlyph name="divide" xMin="80" yMin="268" xMax="944" yMax="1106">
      <contour>
        <pt x="408" y="1001" on="1"/>
        <pt x="408" y="1045" on="0"/>
        <pt x="469" y="1106" on="0"/>
        <pt x="512" y="1106" on="1"/>
        <pt x="553" y="1106" on="0"/>
        <pt x="616" y="1043" on="0"/>
        <pt x="616" y="1001" on="1"/>
        <pt x="616" y="959" on="0"/>
        <pt x="554" y="897" on="0"/>
        <pt x="512" y="897" on="1"/>
        <pt x="469" y="897" on="0"/>
        <pt x="408" y="958" on="0"/>
      </contour>
      <contour>
        <pt x="410" y="373" on="1"/>
        <pt x="410" y="415" on="0"/>
        <pt x="470" y="477" on="0"/>
        <pt x="512" y="477" on="1"/>
        <pt x="553" y="477" on="0"/>
        <pt x="616" y="414" on="0"/>
        <pt x="616" y="373" on="1"/>
        <pt x="616" y="331" on="0"/>
        <pt x="554" y="268" on="0"/>
        <pt x="512" y="268" on="1"/>
        <pt x="468" y="268" on="0"/>
        <pt x="410" y="328" on="0"/>
      </contour>
      <contour>
        <pt x="80" y="616" on="1"/>
        <pt x="80" y="756" on="1"/>
        <pt x="944" y="756" on="1"/>
        <pt x="944" y="616" on="1"/>
      </contour>
    </TTGlyph>
    <TTGlyph name="dollar" xMin="135" yMin="-268" xMax="858" yMax="1478">
      <contour>
        <pt x="377" y="-268" on="1"/>
        <pt x="383" y="-163" on="0"/>
        <pt x="405" y="61" on="1"/>
        <pt x="407" y="86" on="1"/>
        <pt x="381" y="86" on="1"/>
        <pt x="248" y="86" on="0"/>
        <pt x="135" y="152" on="0"/>
        <pt x="135" y="229" on="1"/>
        <pt x="135" y="315" on="0"/>
        <pt x="200" y="424" on="0"/>
        <pt x="252" y="424" on="1"/>
        <pt x="281" y="424" on="0"/>
        <pt x="317" y="396" on="0"/>
        <pt x="317" y="375" on="1"/>
        <pt x="317" y="358" on="0"/>
        <pt x="299" y="292" on="0"/>
        <pt x="299" y="279" on="1"/>
        <pt x="299" y="247" on="0"/>
        <pt x="362" y="215" on="0"/>
        <pt x="426" y="215" on="1"/>
        <pt x="548" y="215" on="0"/>
        <pt x="682" y="311" on="0"/>
        <pt x="682" y="397" on="1"/>
        <pt x="682" y="449" on="0"/>
        <pt x="588" y="531" on="0"/>
        <pt x="436" y="598" on="1"/>
        <pt x="420" y="605" on="0"/>
        <pt x="388" y="619" on="1"/>
        <pt x="182" y="708" on="0"/>
        <pt x="182" y="807" on="1"/>
        <pt x="182" y="902" on="0"/>
        <pt x="344" y="1069" on="0"/>
        <pt x="487" y="1120" on="1"/>
        <pt x="496" y="1217" on="0"/>
        <pt x="517" y="1384" on="0"/>
        <pt x="528" y="1450" on="1"/>
        <pt x="651" y="1478" on="1"/>
        <pt x="647" y="1399" on="0"/>
        <pt x="633" y="1248" on="1"/>
        <pt x="629" y="1199" on="0"/>
        <pt x="627" y="1174" on="1"/>
        <pt x="664" y="1183" on="0"/>
        <pt x="722" y="1192" on="0"/>
        <pt x="741" y="1192" on="1"/>
        <pt x="803" y="1192" on="0"/>
        <pt x="858" y="1140" on="0"/>
        <pt x="858" y="1081" on="1"/>
        <pt x="858" y="993" on="0"/>
        <pt x="819" y="918" on="0"/>
        <pt x="770" y="918" on="1"/>
        <pt x="734" y="918" on="0"/>
        <pt x="711" y="937" on="0"/>
        <pt x="711" y="965" on="1"/>
        <pt x="711" y="972" on="0"/>
        <pt x="715" y="1012" on="0"/>
        <pt x="715" y="1024" on="1"/>
        <pt x="715" y="1035" on="0"/>
        <pt x="688" y="1055" on="0"/>
        <pt x="670" y="1055" on="1"/>
        <pt x="574" y="1055" on="0"/>
        <pt x="348" y="920" on="0"/>
        <pt x="348" y="850" on="1"/>
        <pt x="348" y="801" on="0"/>
        <pt x="473" y="747" on="1"/>
        <pt x="569" y="706" on="0"/>
        <pt x="637" y="672" on="1"/>
        <pt x="741" y="620" on="0"/>
        <pt x="838" y="491" on="0"/>
        <pt x="838" y="401" on="1"/>
        <pt x="838" y="296" on="0"/>
        <pt x="674" y="137" on="0"/>
        <pt x="528" y="104" on="1"/>
        <pt x="526" y="34" on="0"/>
        <pt x="518" y="-121" on="0"/>
        <pt x="512" y="-217" on="1"/>
      </contour>
    </TTGlyph>
    <TTGlyph name="dotaccent" xMin="434" yMin="1079" xMax="686" yMax="1333">
      <contour>
        <pt x="561" y="1333" on="1"/>
        <pt x="613" y="1333" on="0"/>
        <pt x="686" y="1259" on="0"/>
        <pt x="686" y="1206" on="1"/>
        <pt x="686" y="1151" on="0"/>
        <pt x="616" y="1079" on="0"/>
        <pt x="561" y="1079" on="1"/>
        <pt x="508" y="1079" on="0"/>
        <pt x="434" y="1153" on="0"/>
        <pt x="434" y="1206" on="1"/>
        <pt x="434" y="1257" on="0"/>
        <pt x="510" y="1333" on="0"/>
      </contour>
    </TTGlyph>
    <TTGlyph name="dotlessi" xMin="-88" yMin="-74" xMax="981" yMax="887">
      <contour>
        <pt x="332" y="344" on="1"/>
        <pt x="238" y="268" on="0"/>
        <pt x="52" y="128" on="0"/>
        <pt x="-41" y="66" on="1"/>
        <pt x="-88" y="139" on="1"/>
        <pt x="3" y="201" on="0"/>
        <pt x="210" y="356" on="0"/>
        <pt x="333" y="456" on="1"/>
        <pt x="337" y="473" on="0"/>
        <pt x="344" y="506" on="1"/>
        <pt x="423" y="887" on="0"/>
        <pt x="598" y="887" on="1"/>
        <pt x="615" y="887" on="0"/>
        <pt x="627" y="873" on="0"/>
        <pt x="627" y="846" on="1"/>
        <pt x="627" y="770" on="0"/>
        <pt x="548" y="610" on="0"/>
        <pt x="469" y="524" on="1"/>
        <pt x="464" y="471" on="0"/>
        <pt x="459" y="374" on="0"/>
        <pt x="459" y="328" on="1"/>
        <pt x="459" y="166" on="0"/>
        <pt x="542" y="37" on="0"/>
        <pt x="641" y="37" on="1"/>
        <pt x="705" y="37" on="0"/>
        <pt x="850" y="89" on="0"/>
        <pt x="938" y="143" on="1"/>
        <pt x="981" y="68" on="1"/>
        <pt x="890" y="0" on="0"/>
        <pt x="689" y="-74" on="0"/>
        <pt x="598" y="-74" on="1"/>
        <pt x="459" y="-74" on="0"/>
        <pt x="332" y="106" on="0"/>
        <pt x="332" y="303" on="1"/>
      </contour>
    </TTGlyph>
    <TTGlyph name="e" xMin="35" yMin="-98" xMax="985" yMax="963">
      <contour>
        <pt x="203" y="295" on="1"/>
        <pt x="371" y="386" on="0"/>
        <pt x="553" y="615" on="0"/>
        <pt x="553" y="733" on="1"/>
        <pt x="553" y="793" on="0"/>
        <pt x="506" y="856" on="0"/>
        <pt x="461" y="856" on="1"/>
        <pt x="373" y="856" on="0"/>
        <pt x="190" y="577" on="0"/>
        <pt x="190" y="412" on="1"/>
        <pt x="190" y="386" on="0"/>
        <pt x="197" y="327" on="0"/>
      </contour>
      <contour>
        <pt x="231" y="190" on="1"/>
        <pt x="265" y="111" on="0"/>
        <pt x="403" y="35" on="0"/>
        <pt x="516" y="35" on="1"/>
        <pt x="620" y="35" on="0"/>
        <pt x="834" y="89" on="0"/>
        <pt x="944" y="143" on="1"/>
        <pt x="985" y="68" on="1"/>
        <pt x="866" y="-12" on="0"/>
        <pt x="595" y="-98" on="0"/>
        <pt x="463" y="-98" on="1"/>
        <pt x="258" y="-98" on="0"/>
        <pt x="35" y="123" on="0"/>
        <pt x="35" y="326" on="1"/>
        <pt x="35" y="578" on="0"/>
        <pt x="317" y="963" on="0"/>
        <pt x="496" y="963" on="1"/>
        <pt x="595" y="963" on="0"/>
        <pt x="723" y="846" on="0"/>
        <pt x="723" y="756" on="1"/>
        <pt x="723" y="623" on="0"/>
        <pt x="476" y="338" on="0"/>
      </contour>
    </TTGlyph>
    <TTGlyph name="eacute" xMin="35" yMin="-98" xMax="985" yMax="1370">
      <component glyphName="e" x="0" y="0" flags="0x4"/>
      <component glyphName="acute" x="-57" y="0" flags="0x4"/>
    </TTGlyph>
    <TTGlyph name="ecircumflex" xMin="35" yMin="-98" xMax="985" yMax="1346">
      <component glyphName="e" x="0" y="0" flags="0x4"/>
      <component glyphName="circumflex" x="-57" y="0" flags="0x4"/>
    </TTGlyph>
    <TTGlyph name="edieresis" xMin="35" yMin="-98" xMax="985" yMax="1311">
      <component glyphName="e" x="0" y="0" flags="0x4"/>
      <component glyphName="dieresis" x="-57" y="0" flags="0x4"/>
    </TTGlyph>
    <TTGlyph name="egrave" xMin="35" yMin="-98" xMax="985" yMax="1370">
      <component glyphName="e" x="0" y="0" flags="0x4"/>
      <component glyphName="grave" x="-57" y="0" flags="0x4"/>
    </TTGlyph>
    <TTGlyph name="eight" xMin="145" yMin="-37" xMax="842" yMax="1280">
      <contour>
        <pt x="453" y="559" on="1"/>
        <pt x="368" y="474" on="0"/>
        <pt x="272" y="306" on="0"/>
        <pt x="272" y="244" on="1"/>
        <pt x="272" y="171" on="0"/>
        <pt x="361" y="86" on="0"/>
        <pt x="436" y="86" on="1"/>
        <pt x="518" y="86" on="0"/>
        <pt x="625" y="189" on="0"/>
        <pt x="625" y="270" on="1"/>
        <pt x="625" y="336" on="0"/>
        <pt x="541" y="477" on="0"/>
      </contour>
      <contour>
        <pt x="473" y="745" on="1"/>
        <pt x="516" y="795" on="1"/>
        <pt x="728" y="1036" on="0"/>
        <pt x="795" y="1036" on="1"/>
        <pt x="815" y="1036" on="0"/>
        <pt x="842" y="1008" on="0"/>
        <pt x="842" y="987" on="1"/>
        <pt x="842" y="932" on="0"/>
        <pt x="702" y="813" on="1"/>
        <pt x="597" y="723" on="0"/>
        <pt x="537" y="662" on="1"/>
        <pt x="562" y="635" on="1"/>
        <pt x="756" y="433" on="0"/>
        <pt x="756" y="303" on="1"/>
        <pt x="756" y="157" on="0"/>
        <pt x="550" y="-37" on="0"/>
        <pt x="393" y="-37" on="1"/>
        <pt x="279" y="-37" on="0"/>
        <pt x="145" y="98" on="0"/>
        <pt x="145" y="213" on="1"/>
        <pt x="145" y="316" on="0"/>
        <pt x="255" y="523" on="0"/>
        <pt x="371" y="637" on="1"/>
        <pt x="316" y="698" on="0"/>
        <pt x="258" y="835" on="0"/>
        <pt x="258" y="903" on="1"/>
        <pt x="258" y="1065" on="0"/>
        <pt x="508" y="1280" on="0"/>
        <pt x="705" y="1280" on="1"/>
        <pt x="738" y="1280" on="0"/>
        <pt x="780" y="1258" on="0"/>
        <pt x="780" y="1241" on="1"/>
        <pt x="780" y="1198" on="0"/>
        <pt x="729" y="1126" on="0"/>
        <pt x="694" y="1126" on="1"/>
        <pt x="681" y="1126" on="0"/>
        <pt x="624" y="1133" on="0"/>
        <pt x="608" y="1133" on="1"/>
        <pt x="514" y="1133" on="0"/>
        <pt x="395" y="1010" on="0"/>
        <pt x="395" y="913" on="1"/>
        <pt x="395" y="865" on="0"/>
        <pt x="433" y="784" on="0"/>
      </contour>
    </TTGlyph>
    <TTGlyph name="ellipsis" xMin="0" yMin="-90" xMax="1024" yMax="205">
      <contour>
        <pt x="510" y="-90" on="1"/>
        <pt x="503" y="-90" on="0"/>
        <pt x="472" y="-69" on="0"/>
        <pt x="446" y="-47" on="1"/>
        <pt x="410" y="-16" on="0"/>
        <pt x="365" y="44" on="0"/>
        <pt x="365" y="57" on="1"/>
        <pt x="365" y="80" on="0"/>
        <pt x="490" y="205" on="0"/>
        <pt x="512" y="205" on="1"/>
        <pt x="521" y="205" on="0"/>
        <pt x="561" y="174" on="0"/>
        <pt x="592" y="143" on="1"/>
        <pt x="625" y="108" on="0"/>
        <pt x="657" y="66" on="0"/>
        <pt x="657" y="57" on="1"/>
        <pt x="657" y="50" on="0"/>
        <pt x="637" y="20" on="0"/>
        <pt x="616" y="-2" on="1"/>
        <pt x="579" y="-44" on="0"/>
        <pt x="523" y="-90" on="0"/>
      </contour>
      <contour>
        <pt x="877" y="-90" on="1"/>
        <pt x="869" y="-90" on="0"/>
        <pt x="839" y="-69" on="0"/>
        <pt x="813" y="-47" on="1"/>
        <pt x="777" y="-16" on="0"/>
        <pt x="731" y="44" on="0"/>
        <pt x="731" y="57" on="1"/>
        <pt x="731" y="80" on="0"/>
        <pt x="855" y="205" on="0"/>
        <pt x="877" y="205" on="1"/>
        <pt x="886" y="205" on="0"/>
        <pt x="929" y="173" on="0"/>
        <pt x="958" y="143" on="1"/>
        <pt x="992" y="108" on="0"/>
        <pt x="1024" y="66" on="0"/>
        <pt x="1024" y="57" on="1"/>
        <pt x="1024" y="50" on="0"/>
        <pt x="1003" y="20" on="0"/>
        <pt x="983" y="-2" on="1"/>
        <pt x="945" y="-44" on="0"/>
        <pt x="890" y="-90" on="0"/>
      </contour>
      <contour>
        <pt x="145" y="-90" on="1"/>
        <pt x="139" y="-90" on="0"/>
        <pt x="112" y="-72" on="0"/>
        <pt x="84" y="-47" on="1"/>
        <pt x="47" y="-15" on="0"/>
        <pt x="0" y="45" on="0"/>
        <pt x="0" y="57" on="1"/>
        <pt x="0" y="80" on="0"/>
        <pt x="126" y="205" on="0"/>
        <pt x="147" y="205" on="1"/>
        <pt x="157" y="205" on="0"/>
        <pt x="197" y="174" on="0"/>
        <pt x="227" y="143" on="1"/>
        <pt x="261" y="108" on="0"/>
        <pt x="293" y="66" on="0"/>
        <pt x="293" y="57" on="1"/>
        <pt x="293" y="51" on="0"/>
        <pt x="276" y="26" on="0"/>
        <pt x="252" y="-2" on="1"/>
        <pt x="214" y="-44" on="0"/>
        <pt x="158" y="-90" on="0"/>
      </contour>
    </TTGlyph>
    <TTGlyph name="emdash" xMin="0" yMin="475" xMax="1024" yMax="596">
      <contour>
        <pt x="86" y="475" on="1"/>
        <pt x="38" y="475" on="0"/>
        <pt x="0" y="499" on="0"/>
        <pt x="0" y="526" on="1"/>
        <pt x="0" y="565" on="0"/>
        <pt x="42" y="596" on="0"/>
        <pt x="98" y="596" on="1"/>
        <pt x="150" y="596" on="0"/>
        <pt x="301" y="594" on="0"/>
        <pt x="324" y="594" on="1"/>
        <pt x="597" y="594" on="0"/>
        <pt x="850" y="587" on="1"/>
        <pt x="886" y="586" on="0"/>
        <pt x="893" y="586" on="1"/>
        <pt x="913" y="586" on="0"/>
        <pt x="958" y="588" on="0"/>
        <pt x="961" y="588" on="1"/>
        <pt x="991" y="588" on="0"/>
        <pt x="1024" y="566" on="0"/>
        <pt x="1024" y="547" on="1"/>
        <pt x="1024" y="515" on="0"/>
        <pt x="929" y="479" on="0"/>
        <pt x="842" y="479" on="1"/>
        <pt x="828" y="479" on="0"/>
        <pt x="594" y="483" on="0"/>
        <pt x="492" y="483" on="1"/>
        <pt x="293" y="483" on="0"/>
        <pt x="115" y="476" on="1"/>
        <pt x="91" y="475" on="0"/>
      </contour>
    </TTGlyph>
    <TTGlyph name="endash" xMin="254" yMin="475" xMax="770" yMax="596">
      <contour>
        <pt x="295" y="475" on="1"/>
        <pt x="272" y="475" on="0"/>
        <pt x="254" y="499" on="0"/>
        <pt x="254" y="532" on="1"/>
        <pt x="254" y="568" on="0"/>
        <pt x="279" y="596" on="0"/>
        <pt x="309" y="596" on="1"/>
        <pt x="311" y="596" on="0"/>
        <pt x="321" y="596" on="1"/>
        <pt x="366" y="594" on="0"/>
        <pt x="412" y="594" on="1"/>
        <pt x="582" y="594" on="1"/>
        <pt x="706" y="594" on="0"/>
        <pt x="770" y="576" on="0"/>
        <pt x="770" y="549" on="1"/>
        <pt x="770" y="515" on="0"/>
        <pt x="723" y="479" on="0"/>
        <pt x="678" y="479" on="1"/>
        <pt x="663" y="479" on="0"/>
        <pt x="548" y="483" on="0"/>
        <pt x="504" y="483" on="1"/>
        <pt x="401" y="483" on="0"/>
        <pt x="309" y="476" on="1"/>
        <pt x="297" y="475" on="0"/>
      </contour>
    </TTGlyph>
    <TTGlyph name="equal" xMin="121" yMin="355" xMax="762" yMax="805">
      <contour>
        <pt x="145" y="782" on="1"/>
        <pt x="376" y="786" on="0"/>
        <pt x="668" y="797" on="0"/>
        <pt x="762" y="805" on="1"/>
        <pt x="739" y="686" on="1"/>
        <pt x="645" y="678" on="0"/>
        <pt x="351" y="667" on="0"/>
        <pt x="121" y="664" on="1"/>
      </contour>
      <contour>
        <pt x="146" y="473" on="1"/>
        <pt x="376" y="477" on="0"/>
        <pt x="668" y="487" on="0"/>
        <pt x="762" y="496" on="1"/>
        <pt x="739" y="377" on="1"/>
        <pt x="645" y="369" on="0"/>
        <pt x="352" y="358" on="0"/>
        <pt x="121" y="355" on="1"/>
      </contour>
    </TTGlyph>
    <TTGlyph name="eth" xMin="66" yMin="-78" xMax="950" yMax="1421">
      <contour>
        <pt x="676" y="680" on="1"/>
        <pt x="621" y="714" on="0"/>
        <pt x="519" y="750" on="0"/>
        <pt x="477" y="750" on="1"/>
        <pt x="371" y="750" on="0"/>
        <pt x="233" y="502" on="0"/>
        <pt x="233" y="309" on="1"/>
        <pt x="233" y="178" on="0"/>
        <pt x="307" y="61" on="0"/>
        <pt x="389" y="61" on="1"/>
        <pt x="508" y="61" on="0"/>
        <pt x="676" y="389" on="0"/>
        <pt x="676" y="635" on="1"/>
      </contour>
      <contour>
        <pt x="666" y="831" on="1"/>
        <pt x="655" y="890" on="0"/>
        <pt x="628" y="986" on="0"/>
        <pt x="610" y="1030" on="1"/>
        <pt x="554" y="1011" on="0"/>
        <pt x="422" y="954" on="0"/>
        <pt x="412" y="954" on="1"/>
        <pt x="395" y="954" on="0"/>
        <pt x="369" y="999" on="0"/>
        <pt x="369" y="1022" on="1"/>
        <pt x="369" y="1041" on="0"/>
        <pt x="461" y="1091" on="0"/>
        <pt x="561" y="1126" on="1"/>
        <pt x="536" y="1184" on="0"/>
        <pt x="463" y="1316" on="0"/>
        <pt x="463" y="1329" on="1"/>
        <pt x="463" y="1359" on="0"/>
        <pt x="563" y="1421" on="0"/>
        <pt x="600" y="1421" on="1"/>
        <pt x="628" y="1421" on="0"/>
        <pt x="679" y="1331" on="0"/>
        <pt x="725" y="1194" on="1"/>
        <pt x="800" y="1221" on="0"/>
        <pt x="884" y="1245" on="0"/>
        <pt x="903" y="1245" on="1"/>
        <pt x="923" y="1245" on="0"/>
        <pt x="950" y="1198" on="0"/>
        <pt x="950" y="1165" on="1"/>
        <pt x="950" y="1141" on="0"/>
        <pt x="886" y="1126" on="1"/>
        <pt x="815" y="1109" on="0"/>
        <pt x="762" y="1090" on="1"/>
        <pt x="788" y="1009" on="0"/>
        <pt x="815" y="813" on="0"/>
        <pt x="815" y="702" on="1"/>
        <pt x="815" y="372" on="0"/>
        <pt x="550" y="-78" on="0"/>
        <pt x="356" y="-78" on="1"/>
        <pt x="222" y="-78" on="0"/>
        <pt x="66" y="109" on="0"/>
        <pt x="66" y="270" on="1"/>
        <pt x="66" y="503" on="0"/>
        <pt x="327" y="887" on="0"/>
        <pt x="483" y="887" on="1"/>
        <pt x="531" y="887" on="0"/>
        <pt x="623" y="859" on="0"/>
      </contour>
    </TTGlyph>
    <TTGlyph name="exclam" xMin="276" yMin="-70" xMax="688" yMax="1333">
      <contour>
        <pt x="418" y="-70" on="1"/>
        <pt x="407" y="-70" on="0"/>
        <pt x="357" y="-32" on="0"/>
        <pt x="324" y="2" on="1"/>
        <pt x="304" y="21" on="0"/>
        <pt x="276" y="63" on="0"/>
        <pt x="276" y="72" on="1"/>
        <pt x="276" y="93" on="0"/>
        <pt x="396" y="211" on="0"/>
        <pt x="418" y="211" on="1"/>
        <pt x="439" y="211" on="0"/>
        <pt x="557" y="92" on="0"/>
        <pt x="557" y="72" on="1"/>
        <pt x="557" y="62" on="0"/>
        <pt x="527" y="21" on="0"/>
        <pt x="500" y="-6" on="1"/>
        <pt x="470" y="-36" on="0"/>
        <pt x="426" y="-70" on="0"/>
      </contour>
      <contour>
        <pt x="688" y="1333" on="1"/>
        <pt x="661" y="1135" on="0"/>
        <pt x="587" y="727" on="0"/>
        <pt x="541" y="518" on="1"/>
        <pt x="538" y="508" on="1"/>
        <pt x="506" y="356" on="0"/>
        <pt x="449" y="356" on="1"/>
        <pt x="411" y="356" on="0"/>
        <pt x="375" y="388" on="0"/>
        <pt x="375" y="420" on="1"/>
        <pt x="375" y="446" on="0"/>
        <pt x="452" y="904" on="0"/>
        <pt x="467" y="1110" on="1"/>
        <pt x="468" y="1127" on="0"/>
        <pt x="470" y="1160" on="1"/>
        <pt x="478" y="1310" on="0"/>
        <pt x="541" y="1317" on="1"/>
      </contour>
    </TTGlyph>
    <TTGlyph name="exclamdown" xMin="276" yMin="-70" xMax="688" yMax="1333">
      <contour>
        <pt x="547" y="1333" on="1"/>
        <pt x="557" y="1333" on="0"/>
        <pt x="607" y="1295" on="0"/>
        <pt x="641" y="1262" on="1"/>
        <pt x="661" y="1241" on="0"/>
        <pt x="688" y="1200" on="0"/>
        <pt x="688" y="1192" on="1"/>
        <pt x="688" y="1170" on="0"/>
        <pt x="568" y="1053" on="0"/>
        <pt x="547" y="1053" on="1"/>
        <pt x="526" y="1053" on="0"/>
        <pt x="408" y="1172" on="0"/>
        <pt x="408" y="1192" on="1"/>
        <pt x="408" y="1201" on="0"/>
        <pt x="438" y="1240" on="0"/>
        <pt x="467" y="1270" on="1"/>
        <pt x="501" y="1304" on="0"/>
        <pt x="538" y="1333" on="0"/>
      </contour>
      <contour>
        <pt x="276" y="-70" on="1"/>
        <pt x="305" y="138" on="0"/>
        <pt x="379" y="548" on="0"/>
        <pt x="424" y="745" on="1"/>
        <pt x="427" y="759" on="1"/>
        <pt x="459" y="907" on="0"/>
        <pt x="518" y="907" on="1"/>
        <pt x="555" y="907" on="0"/>
        <pt x="590" y="876" on="0"/>
        <pt x="590" y="844" on="1"/>
        <pt x="590" y="815" on="0"/>
        <pt x="511" y="356" on="0"/>
        <pt x="498" y="154" on="1"/>
        <pt x="497" y="136" on="0"/>
        <pt x="495" y="104" on="1"/>
        <pt x="487" y="-46" on="0"/>
        <pt x="424" y="-53" on="1"/>
      </contour>
    </TTGlyph>
    <TTGlyph name="f" xMin="70" yMin="-438" xMax="817" yMax="1376">
      <contour>
        <pt x="293" y="485" on="1"/>
        <pt x="253" y="437" on="0"/>
        <pt x="172" y="355" on="0"/>
        <pt x="127" y="317" on="1"/>
        <pt x="70" y="391" on="1"/>
        <pt x="164" y="471" on="0"/>
        <pt x="296" y="626" on="0"/>
        <pt x="340" y="711" on="1"/>
        <pt x="412" y="848" on="0"/>
        <pt x="521" y="1204" on="0"/>
        <pt x="524" y="1212" on="1"/>
        <pt x="542" y="1258" on="0"/>
        <pt x="580" y="1304" on="0"/>
        <pt x="625" y="1325" on="1"/>
        <pt x="692" y="1359" on="0"/>
        <pt x="742" y="1376" on="0"/>
        <pt x="760" y="1376" on="1"/>
        <pt x="785" y="1376" on="0"/>
        <pt x="817" y="1345" on="0"/>
        <pt x="817" y="1321" on="1"/>
        <pt x="817" y="1291" on="0"/>
        <pt x="571" y="934" on="0"/>
        <pt x="498" y="793" on="1"/>
        <pt x="428" y="656" on="0"/>
        <pt x="315" y="119" on="0"/>
        <pt x="315" y="-117" on="1"/>
        <pt x="315" y="-256" on="0"/>
        <pt x="391" y="-338" on="0"/>
        <pt x="506" y="-338" on="1"/>
        <pt x="573" y="-338" on="0"/>
        <pt x="606" y="-265" on="0"/>
        <pt x="606" y="-57" on="1"/>
        <pt x="606" y="-4" on="0"/>
        <pt x="602" y="105" on="0"/>
        <pt x="598" y="160" on="1"/>
        <pt x="582" y="184" on="1"/>
        <pt x="446" y="386" on="0"/>
        <pt x="446" y="471" on="1"/>
        <pt x="446" y="559" on="0"/>
        <pt x="489" y="659" on="0"/>
        <pt x="526" y="659" on="1"/>
        <pt x="585" y="659" on="0"/>
        <pt x="674" y="457" on="0"/>
        <pt x="696" y="270" on="1"/>
        <pt x="803" y="154" on="1"/>
        <pt x="748" y="88" on="1"/>
        <pt x="715" y="123" on="1"/>
        <pt x="730" y="37" on="0"/>
        <pt x="745" y="-116" on="0"/>
        <pt x="745" y="-182" on="1"/>
        <pt x="745" y="-345" on="0"/>
        <pt x="645" y="-438" on="0"/>
        <pt x="510" y="-438" on="1"/>
        <pt x="338" y="-438" on="0"/>
        <pt x="164" y="-290" on="0"/>
        <pt x="164" y="-145" on="1"/>
        <pt x="164" y="-40" on="0"/>
        <pt x="275" y="414" on="1"/>
      </contour>
    </TTGlyph>
    <TTGlyph name="fi" xMin="-27" yMin="-434" xMax="1053" yMax="1382">
      <contour>
        <pt x="807" y="1133" on="1"/>
        <pt x="768" y="1171" on="1"/>
        <pt x="797" y="1225" on="0"/>
        <pt x="878" y="1330" on="0"/>
        <pt x="930" y="1382" on="1"/>
        <pt x="976" y="1368" on="0"/>
        <pt x="1033" y="1321" on="0"/>
        <pt x="1053" y="1280" on="1"/>
        <pt x="1011" y="1236" on="0"/>
        <pt x="892" y="1164" on="0"/>
      </contour>
      <contour>
        <pt x="29" y="326" on="1"/>
        <pt x="-27" y="391" on="1"/>
        <pt x="121" y="520" on="0"/>
        <pt x="293" y="799" on="0"/>
        <pt x="352" y="1028" on="1"/>
        <pt x="358" y="1050" on="0"/>
        <pt x="368" y="1091" on="1"/>
        <pt x="410" y="1256" on="0"/>
        <pt x="442" y="1288" on="1"/>
        <pt x="478" y="1322" on="0"/>
        <pt x="574" y="1368" on="0"/>
        <pt x="608" y="1368" on="1"/>
        <pt x="633" y="1368" on="0"/>
        <pt x="659" y="1344" on="0"/>
        <pt x="659" y="1321" on="1"/>
        <pt x="659" y="1291" on="0"/>
        <pt x="401" y="886" on="0"/>
        <pt x="330" y="678" on="1"/>
        <pt x="261" y="476" on="0"/>
        <pt x="176" y="-1" on="0"/>
        <pt x="176" y="-174" on="1"/>
        <pt x="176" y="-268" on="0"/>
        <pt x="236" y="-340" on="0"/>
        <pt x="311" y="-340" on="1"/>
        <pt x="392" y="-340" on="0"/>
        <pt x="434" y="-256" on="0"/>
        <pt x="434" y="-76" on="1"/>
        <pt x="434" y="-23" on="0"/>
        <pt x="431" y="97" on="0"/>
        <pt x="428" y="161" on="1"/>
        <pt x="372" y="237" on="0"/>
        <pt x="324" y="353" on="0"/>
        <pt x="324" y="412" on="1"/>
        <pt x="324" y="485" on="0"/>
        <pt x="366" y="584" on="0"/>
        <pt x="397" y="584" on="1"/>
        <pt x="417" y="584" on="0"/>
        <pt x="459" y="508" on="0"/>
        <pt x="473" y="446" on="1"/>
        <pt x="625" y="555" on="1"/>
        <pt x="676" y="807" on="0"/>
        <pt x="758" y="915" on="0"/>
        <pt x="844" y="915" on="1"/>
        <pt x="858" y="915" on="0"/>
        <pt x="872" y="892" on="0"/>
        <pt x="872" y="870" on="1"/>
        <pt x="872" y="764" on="0"/>
        <pt x="747" y="565" on="0"/>
        <pt x="744" y="556" on="1"/>
        <pt x="728" y="440" on="0"/>
        <pt x="715" y="285" on="0"/>
        <pt x="715" y="221" on="1"/>
        <pt x="715" y="117" on="0"/>
        <pt x="782" y="18" on="0"/>
        <pt x="852" y="18" on="1"/>
        <pt x="878" y="18" on="0"/>
        <pt x="933" y="29" on="0"/>
        <pt x="967" y="41" on="1"/>
        <pt x="991" y="-47" on="1"/>
        <pt x="948" y="-62" on="0"/>
        <pt x="876" y="-76" on="0"/>
        <pt x="842" y="-76" on="1"/>
        <pt x="710" y="-76" on="0"/>
        <pt x="592" y="76" on="0"/>
        <pt x="592" y="246" on="1"/>
        <pt x="592" y="285" on="0"/>
        <pt x="600" y="379" on="0"/>
        <pt x="608" y="438" on="1"/>
        <pt x="492" y="354" on="1"/>
        <pt x="518" y="212" on="0"/>
        <pt x="545" y="-58" on="0"/>
        <pt x="545" y="-190" on="1"/>
        <pt x="545" y="-348" on="0"/>
        <pt x="449" y="-434" on="0"/>
        <pt x="311" y="-434" on="1"/>
        <pt x="178" y="-434" on="0"/>
        <pt x="43" y="-306" on="0"/>
        <pt x="43" y="-180" on="1"/>
        <pt x="43" y="-123" on="0"/>
        <pt x="89" y="124" on="0"/>
        <pt x="166" y="459" on="1"/>
        <pt x="128" y="413" on="0"/>
        <pt x="61" y="347" on="0"/>
      </contour>
    </TTGlyph>
    <TTGlyph name="five" xMin="127" yMin="-37" xMax="846" yMax="1343">
      <contour>
        <pt x="240" y="1153" on="1"/>
        <pt x="266" y="1260" on="1"/>
        <pt x="367" y="1276" on="1"/>
        <pt x="391" y="1343" on="1"/>
        <pt x="549" y="1343" on="1"/>
        <pt x="526" y="1276" on="1"/>
        <pt x="799" y="1276" on="1"/>
        <pt x="820" y="1276" on="0"/>
        <pt x="846" y="1252" on="0"/>
        <pt x="846" y="1233" on="1"/>
        <pt x="846" y="1225" on="0"/>
        <pt x="841" y="1210" on="0"/>
        <pt x="836" y="1198" on="1"/>
        <pt x="811" y="1155" on="1"/>
        <pt x="802" y="1140" on="0"/>
        <pt x="753" y="1124" on="0"/>
        <pt x="715" y="1124" on="1"/>
        <pt x="473" y="1124" on="1"/>
        <pt x="449" y="1054" on="0"/>
        <pt x="382" y="879" on="0"/>
        <pt x="317" y="717" on="1"/>
        <pt x="334" y="690" on="1"/>
        <pt x="422" y="726" on="0"/>
        <pt x="539" y="756" on="0"/>
        <pt x="586" y="756" on="1"/>
        <pt x="694" y="756" on="0"/>
        <pt x="823" y="615" on="0"/>
        <pt x="823" y="498" on="1"/>
        <pt x="823" y="293" on="0"/>
        <pt x="517" y="-37" on="0"/>
        <pt x="313" y="-37" on="1"/>
        <pt x="216" y="-37" on="0"/>
        <pt x="127" y="19" on="0"/>
        <pt x="127" y="80" on="1"/>
        <pt x="127" y="116" on="0"/>
        <pt x="185" y="162" on="0"/>
        <pt x="229" y="162" on="1"/>
        <pt x="262" y="162" on="0"/>
        <pt x="322" y="74" on="0"/>
        <pt x="360" y="74" on="1"/>
        <pt x="447" y="74" on="0"/>
        <pt x="666" y="337" on="0"/>
        <pt x="666" y="465" on="1"/>
        <pt x="666" y="538" on="0"/>
        <pt x="589" y="618" on="0"/>
        <pt x="518" y="618" on="1"/>
        <pt x="464" y="618" on="0"/>
        <pt x="323" y="575" on="0"/>
        <pt x="307" y="575" on="1"/>
        <pt x="264" y="575" on="0"/>
        <pt x="184" y="663" on="0"/>
        <pt x="184" y="705" on="1"/>
        <pt x="184" y="763" on="0"/>
        <pt x="258" y="968" on="1"/>
        <pt x="299" y="1081" on="0"/>
        <pt x="322" y="1149" on="1"/>
      </contour>
    </TTGlyph>
    <TTGlyph name="fl" xMin="-27" yMin="-434" xMax="1051" yMax="1368">
      <contour>
        <pt x="29" y="326" on="1"/>
        <pt x="-27" y="391" on="1"/>
        <pt x="121" y="520" on="0"/>
        <pt x="293" y="799" on="0"/>
        <pt x="352" y="1028" on="1"/>
        <pt x="358" y="1050" on="0"/>
        <pt x="368" y="1091" on="1"/>
        <pt x="410" y="1256" on="0"/>
        <pt x="442" y="1288" on="1"/>
        <pt x="478" y="1322" on="0"/>
        <pt x="574" y="1368" on="0"/>
        <pt x="608" y="1368" on="1"/>
        <pt x="633" y="1368" on="0"/>
        <pt x="659" y="1344" on="0"/>
        <pt x="659" y="1321" on="1"/>
        <pt x="659" y="1291" on="0"/>
        <pt x="401" y="886" on="0"/>
        <pt x="330" y="678" on="1"/>
        <pt x="261" y="476" on="0"/>
        <pt x="176" y="-1" on="0"/>
        <pt x="176" y="-174" on="1"/>
        <pt x="176" y="-268" on="0"/>
        <pt x="236" y="-340" on="0"/>
        <pt x="311" y="-340" on="1"/>
        <pt x="392" y="-340" on="0"/>
        <pt x="434" y="-256" on="0"/>
        <pt x="434" y="-76" on="1"/>
        <pt x="434" y="-23" on="0"/>
        <pt x="431" y="97" on="0"/>
        <pt x="428" y="161" on="1"/>
        <pt x="372" y="237" on="0"/>
        <pt x="324" y="353" on="0"/>
        <pt x="324" y="412" on="1"/>
        <pt x="324" y="485" on="0"/>
        <pt x="366" y="584" on="0"/>
        <pt x="397" y="584" on="1"/>
        <pt x="415" y="584" on="0"/>
        <pt x="455" y="516" on="0"/>
        <pt x="469" y="461" on="1"/>
        <pt x="563" y="543" on="1"/>
        <pt x="580" y="891" on="0"/>
        <pt x="735" y="1352" on="0"/>
        <pt x="827" y="1352" on="1"/>
        <pt x="854" y="1352" on="0"/>
        <pt x="942" y="1315" on="0"/>
        <pt x="997" y="1282" on="1"/>
        <pt x="1027" y="1264" on="0"/>
        <pt x="1051" y="1223" on="0"/>
        <pt x="1051" y="1190" on="1"/>
        <pt x="1051" y="1121" on="0"/>
        <pt x="849" y="751" on="0"/>
        <pt x="691" y="558" on="1"/>
        <pt x="687" y="508" on="0"/>
        <pt x="684" y="427" on="0"/>
        <pt x="684" y="391" on="1"/>
        <pt x="684" y="192" on="0"/>
        <pt x="763" y="41" on="0"/>
        <pt x="862" y="41" on="1"/>
        <pt x="892" y="41" on="0"/>
        <pt x="962" y="53" on="0"/>
        <pt x="1001" y="66" on="1"/>
        <pt x="1022" y="-25" on="1"/>
        <pt x="970" y="-44" on="0"/>
        <pt x="869" y="-63" on="0"/>
        <pt x="821" y="-63" on="1"/>
        <pt x="680" y="-63" on="0"/>
        <pt x="563" y="124" on="0"/>
        <pt x="563" y="360" on="1"/>
        <pt x="563" y="422" on="1"/>
        <pt x="492" y="354" on="1"/>
        <pt x="518" y="212" on="0"/>
        <pt x="545" y="-58" on="0"/>
        <pt x="545" y="-190" on="1"/>
        <pt x="545" y="-348" on="0"/>
        <pt x="449" y="-434" on="0"/>
        <pt x="311" y="-434" on="1"/>
        <pt x="178" y="-434" on="0"/>
        <pt x="43" y="-306" on="0"/>
        <pt x="43" y="-180" on="1"/>
        <pt x="43" y="-123" on="0"/>
        <pt x="89" y="124" on="0"/>
        <pt x="166" y="459" on="1"/>
        <pt x="128" y="413" on="0"/>
        <pt x="61" y="347" on="0"/>
      </contour>
      <contour>
        <pt x="692" y="723" on="1"/>
        <pt x="793" y="867" on="0"/>
        <pt x="922" y="1134" on="0"/>
        <pt x="922" y="1180" on="1"/>
        <pt x="922" y="1197" on="0"/>
        <pt x="876" y="1229" on="0"/>
        <pt x="852" y="1229" on="1"/>
        <pt x="812" y="1229" on="0"/>
        <pt x="714" y="932" on="0"/>
      </contour>
    </TTGlyph>
    <TTGlyph name="florin" xMin="-156" yMin="-301" xMax="1053" yMax="1300">
      <contour>
        <pt x="418" y="766" on="1"/>
        <pt x="454" y="1084" on="0"/>
        <pt x="598" y="1300" on="0"/>
        <pt x="748" y="1300" on="1"/>
        <pt x="851" y="1300" on="0"/>
        <pt x="1053" y="1216" on="0"/>
        <pt x="1053" y="1176" on="1"/>
        <pt x="1053" y="1148" on="0"/>
        <pt x="987" y="1092" on="0"/>
        <pt x="961" y="1092" on="1"/>
        <pt x="922" y="1092" on="0"/>
        <pt x="801" y="1194" on="0"/>
        <pt x="745" y="1194" on="1"/>
        <pt x="630" y="1194" on="0"/>
        <pt x="574" y="814" on="1"/>
        <pt x="570" y="783" on="0"/>
        <pt x="568" y="766" on="1"/>
        <pt x="819" y="766" on="1"/>
        <pt x="835" y="766" on="0"/>
        <pt x="846" y="754" on="0"/>
        <pt x="846" y="731" on="1"/>
        <pt x="846" y="692" on="1"/>
        <pt x="846" y="660" on="0"/>
        <pt x="833" y="647" on="0"/>
        <pt x="795" y="647" on="1"/>
        <pt x="549" y="647" on="1"/>
        <pt x="541" y="591" on="0"/>
        <pt x="526" y="485" on="1"/>
        <pt x="417" y="-301" on="0"/>
        <pt x="150" y="-301" on="1"/>
        <pt x="46" y="-301" on="0"/>
        <pt x="-156" y="-216" on="0"/>
        <pt x="-156" y="-176" on="1"/>
        <pt x="-156" y="-149" on="0"/>
        <pt x="-90" y="-92" on="0"/>
        <pt x="-63" y="-92" on="1"/>
        <pt x="-26" y="-92" on="0"/>
        <pt x="98" y="-195" on="0"/>
        <pt x="156" y="-195" on="1"/>
        <pt x="280" y="-195" on="0"/>
        <pt x="360" y="362" on="1"/>
        <pt x="385" y="541" on="0"/>
        <pt x="401" y="645" on="1"/>
        <pt x="180" y="645" on="1"/>
        <pt x="156" y="646" on="0"/>
        <pt x="144" y="659" on="0"/>
        <pt x="143" y="692" on="1"/>
        <pt x="143" y="721" on="1"/>
        <pt x="143" y="752" on="0"/>
        <pt x="156" y="766" on="0"/>
        <pt x="176" y="766" on="1"/>
        <pt x="195" y="766" on="1"/>
      </contour>
    </TTGlyph>
    <TTGlyph name="four" xMin="55" yMin="-41" xMax="858" yMax="1309">
      <contour>
        <pt x="520" y="444" on="1"/>
        <pt x="540" y="568" on="0"/>
        <pt x="601" y="845" on="0"/>
        <pt x="645" y="1010" on="1"/>
        <pt x="610" y="1024" on="1"/>
        <pt x="485" y="816" on="0"/>
        <pt x="199" y="431" on="0"/>
        <pt x="199" y="414" on="1"/>
        <pt x="199" y="400" on="0"/>
        <pt x="212" y="381" on="0"/>
        <pt x="221" y="381" on="1"/>
        <pt x="227" y="381" on="0"/>
        <pt x="267" y="389" on="0"/>
        <pt x="295" y="395" on="1"/>
      </contour>
      <contour>
        <pt x="690" y="1309" on="1"/>
        <pt x="803" y="1276" on="1"/>
        <pt x="813" y="1273" on="0"/>
        <pt x="829" y="1254" on="0"/>
        <pt x="829" y="1245" on="1"/>
        <pt x="829" y="1233" on="0"/>
        <pt x="807" y="1150" on="1"/>
        <pt x="717" y="810" on="0"/>
        <pt x="666" y="477" on="1"/>
        <pt x="780" y="504" on="1"/>
        <pt x="783" y="504" on="0"/>
        <pt x="790" y="506" on="1"/>
        <pt x="821" y="512" on="0"/>
        <pt x="829" y="512" on="1"/>
        <pt x="843" y="512" on="0"/>
        <pt x="858" y="500" on="0"/>
        <pt x="858" y="489" on="1"/>
        <pt x="858" y="484" on="0"/>
        <pt x="857" y="478" on="0"/>
        <pt x="856" y="475" on="1"/>
        <pt x="846" y="428" on="1"/>
        <pt x="840" y="402" on="0"/>
        <pt x="810" y="377" on="0"/>
        <pt x="774" y="369" on="1"/>
        <pt x="649" y="338" on="1"/>
        <pt x="639" y="261" on="0"/>
        <pt x="633" y="145" on="1"/>
        <pt x="623" y="-41" on="0"/>
        <pt x="530" y="-41" on="1"/>
        <pt x="498" y="-41" on="0"/>
        <pt x="467" y="-3" on="0"/>
        <pt x="467" y="37" on="1"/>
        <pt x="467" y="68" on="0"/>
        <pt x="482" y="210" on="0"/>
        <pt x="496" y="301" on="1"/>
        <pt x="268" y="250" on="1"/>
        <pt x="242" y="244" on="0"/>
        <pt x="212" y="240" on="0"/>
        <pt x="201" y="240" on="1"/>
        <pt x="139" y="240" on="0"/>
        <pt x="55" y="323" on="0"/>
        <pt x="55" y="381" on="1"/>
        <pt x="55" y="397" on="0"/>
        <pt x="494" y="979" on="0"/>
      </contour>
    </TTGlyph>
    <TTGlyph name="fraction" xMin="125" yMin="-246" xMax="795" yMax="1395">
      <contour>
        <pt x="236" y="-176" on="1"/>
        <pt x="221" y="-216" on="0"/>
        <pt x="200" y="-246" on="0"/>
        <pt x="188" y="-246" on="1"/>
        <pt x="184" y="-246" on="1"/>
        <pt x="141" y="-236" on="1"/>
        <pt x="135" y="-233" on="0"/>
        <pt x="125" y="-214" on="0"/>
        <pt x="125" y="-203" on="1"/>
        <pt x="125" y="-194" on="0"/>
        <pt x="131" y="-169" on="0"/>
        <pt x="137" y="-154" on="1"/>
        <pt x="684" y="1323" on="1"/>
        <pt x="700" y="1366" on="0"/>
        <pt x="720" y="1395" on="0"/>
        <pt x="731" y="1395" on="1"/>
        <pt x="735" y="1395" on="1"/>
        <pt x="778" y="1382" on="1"/>
        <pt x="785" y="1381" on="0"/>
        <pt x="795" y="1360" on="0"/>
        <pt x="795" y="1346" on="1"/>
        <pt x="795" y="1342" on="0"/>
        <pt x="788" y="1321" on="0"/>
        <pt x="782" y="1303" on="1"/>
      </contour>
    </TTGlyph>
    <TTGlyph name="franc" xMin="14" yMin="0" xMax="1024" yMax="1370">
      <contour>
        <pt x="168" y="641" on="1"/>
        <pt x="168" y="0" on="1"/>
        <pt x="14" y="0" on="1"/>
        <pt x="14" y="1370" on="1"/>
        <pt x="750" y="1370" on="1"/>
        <pt x="750" y="1233" on="1"/>
        <pt x="168" y="1233" on="1"/>
        <pt x="168" y="772" on="1"/>
        <pt x="485" y="772" on="1"/>
        <pt x="472" y="829" on="0"/>
        <pt x="438" y="946" on="0"/>
        <pt x="418" y="1006" on="1"/>
        <pt x="551" y="1006" on="1"/>
        <pt x="570" y="947" on="0"/>
        <pt x="600" y="833" on="0"/>
        <pt x="612" y="776" on="1"/>
        <pt x="672" y="897" on="0"/>
        <pt x="792" y="1018" on="0"/>
        <pt x="852" y="1018" on="1"/>
        <pt x="925" y="1018" on="0"/>
        <pt x="1024" y="875" on="0"/>
        <pt x="1024" y="766" on="1"/>
        <pt x="1024" y="734" on="0"/>
        <pt x="1023" y="702" on="0"/>
        <pt x="1021" y="688" on="1"/>
        <pt x="920" y="688" on="1"/>
        <pt x="920" y="698" on="1"/>
        <pt x="920" y="779" on="0"/>
        <pt x="874" y="864" on="0"/>
        <pt x="831" y="864" on="1"/>
        <pt x="752" y="864" on="0"/>
        <pt x="649" y="597" on="0"/>
        <pt x="649" y="377" on="1"/>
        <pt x="649" y="0" on="1"/>
        <pt x="510" y="0" on="1"/>
        <pt x="510" y="532" on="1"/>
        <pt x="510" y="574" on="0"/>
        <pt x="507" y="620" on="0"/>
        <pt x="503" y="641" on="1"/>
      </contour>
    </TTGlyph>
    <TTGlyph name="g" xMin="0" yMin="-449" xMax="866" yMax="934">
      <contour>
        <pt x="72" y="-127" on="1"/>
        <pt x="153" y="-141" on="1"/>
        <pt x="151" y="-156" on="0"/>
        <pt x="133" y="-255" on="0"/>
        <pt x="127" y="-285" on="1"/>
        <pt x="203" y="-303" on="0"/>
        <pt x="341" y="-322" on="0"/>
        <pt x="406" y="-322" on="1"/>
        <pt x="538" y="-322" on="0"/>
        <pt x="635" y="-217" on="0"/>
        <pt x="639" y="-2" on="1"/>
        <pt x="643" y="201" on="1"/>
        <pt x="551" y="98" on="0"/>
        <pt x="388" y="4" on="0"/>
        <pt x="301" y="4" on="1"/>
        <pt x="194" y="4" on="0"/>
        <pt x="78" y="140" on="0"/>
        <pt x="78" y="266" on="1"/>
        <pt x="78" y="385" on="0"/>
        <pt x="167" y="641" on="0"/>
        <pt x="242" y="739" on="1"/>
        <pt x="315" y="836" on="0"/>
        <pt x="495" y="934" on="0"/>
        <pt x="598" y="934" on="1"/>
        <pt x="708" y="934" on="0"/>
        <pt x="866" y="879" on="0"/>
        <pt x="866" y="846" on="1"/>
        <pt x="866" y="837" on="0"/>
        <pt x="857" y="819" on="0"/>
        <pt x="848" y="811" on="1"/>
        <pt x="793" y="764" on="1"/>
        <pt x="775" y="749" on="0"/>
        <pt x="758" y="739" on="0"/>
        <pt x="752" y="739" on="1"/>
        <pt x="729" y="739" on="0"/>
        <pt x="597" y="807" on="0"/>
        <pt x="543" y="807" on="1"/>
        <pt x="471" y="807" on="0"/>
        <pt x="369" y="740" on="0"/>
        <pt x="324" y="662" on="1"/>
        <pt x="277" y="583" on="0"/>
        <pt x="229" y="413" on="0"/>
        <pt x="229" y="324" on="1"/>
        <pt x="229" y="228" on="0"/>
        <pt x="308" y="127" on="0"/>
        <pt x="383" y="127" on="1"/>
        <pt x="510" y="127" on="0"/>
        <pt x="654" y="399" on="0"/>
        <pt x="674" y="676" on="1"/>
        <pt x="860" y="686" on="1"/>
        <pt x="814" y="592" on="0"/>
        <pt x="774" y="348" on="0"/>
        <pt x="774" y="121" on="1"/>
        <pt x="774" y="93" on="0"/>
        <pt x="776" y="-17" on="0"/>
        <pt x="776" y="-43" on="1"/>
        <pt x="776" y="-260" on="0"/>
        <pt x="554" y="-449" on="0"/>
        <pt x="299" y="-449" on="1"/>
        <pt x="164" y="-449" on="0"/>
        <pt x="0" y="-398" on="0"/>
        <pt x="0" y="-358" on="1"/>
        <pt x="0" y="-331" on="0"/>
        <pt x="28" y="-238" on="0"/>
      </contour>
    </TTGlyph>
    <TTGlyph name="gbreve" xMin="0" yMin="-449" xMax="942" yMax="1354">
      <component glyphName="g" x="0" y="0" flags="0x4"/>
      <component glyphName="breve" x="0" y="0" flags="0x4"/>
    </TTGlyph>
    <TTGlyph name="germandbls" xMin="78" yMin="-80" xMax="852" yMax="1288">
      <contour>
        <pt x="203" y="18" on="1"/>
        <pt x="112" y="-19" on="1"/>
        <pt x="111" y="-19" on="0"/>
        <pt x="107" y="-20" on="0"/>
        <pt x="104" y="-20" on="1"/>
        <pt x="93" y="-20" on="0"/>
        <pt x="78" y="4" on="0"/>
        <pt x="78" y="25" on="1"/>
        <pt x="78" y="71" on="0"/>
        <pt x="106" y="336" on="0"/>
        <pt x="129" y="483" on="1"/>
        <pt x="162" y="695" on="0"/>
        <pt x="214" y="944" on="0"/>
        <pt x="244" y="1034" on="1"/>
        <pt x="297" y="1197" on="0"/>
        <pt x="437" y="1288" on="0"/>
        <pt x="578" y="1288" on="1"/>
        <pt x="704" y="1288" on="0"/>
        <pt x="850" y="1170" on="0"/>
        <pt x="850" y="1069" on="1"/>
        <pt x="850" y="959" on="0"/>
        <pt x="690" y="764" on="0"/>
        <pt x="545" y="696" on="1"/>
        <pt x="689" y="675" on="0"/>
        <pt x="852" y="482" on="0"/>
        <pt x="852" y="332" on="1"/>
        <pt x="852" y="147" on="0"/>
        <pt x="651" y="-80" on="0"/>
        <pt x="485" y="-80" on="1"/>
        <pt x="388" y="-80" on="0"/>
        <pt x="285" y="-7" on="0"/>
        <pt x="285" y="61" on="1"/>
        <pt x="285" y="110" on="0"/>
        <pt x="320" y="170" on="0"/>
        <pt x="348" y="170" on="1"/>
        <pt x="369" y="170" on="0"/>
        <pt x="468" y="29" on="0"/>
        <pt x="543" y="29" on="1"/>
        <pt x="622" y="29" on="0"/>
        <pt x="717" y="165" on="0"/>
        <pt x="717" y="279" on="1"/>
        <pt x="717" y="394" on="0"/>
        <pt x="602" y="556" on="0"/>
        <pt x="498" y="588" on="1"/>
        <pt x="464" y="598" on="0"/>
        <pt x="413" y="603" on="1"/>
        <pt x="363" y="608" on="0"/>
        <pt x="362" y="629" on="1"/>
        <pt x="362" y="700" on="0"/>
        <pt x="408" y="721" on="1"/>
        <pt x="414" y="724" on="0"/>
        <pt x="416" y="725" on="1"/>
        <pt x="561" y="795" on="0"/>
        <pt x="700" y="939" on="0"/>
        <pt x="700" y="1018" on="1"/>
        <pt x="700" y="1087" on="0"/>
        <pt x="605" y="1176" on="0"/>
        <pt x="530" y="1176" on="1"/>
        <pt x="448" y="1176" on="0"/>
        <pt x="363" y="992" on="0"/>
        <pt x="307" y="631" on="1"/>
        <pt x="305" y="617" on="0"/>
        <pt x="300" y="584" on="1"/>
        <pt x="257" y="314" on="0"/>
        <pt x="252" y="97" on="1"/>
        <pt x="252" y="66" on="0"/>
        <pt x="228" y="28" on="0"/>
      </contour>
    </TTGlyph>
    <TTGlyph name="grave" xMin="201" yMin="1034" xMax="776" yMax="1370">
      <contour>
        <pt x="750" y="1034" on="1"/>
        <pt x="227" y="1219" on="1"/>
        <pt x="214" y="1223" on="0"/>
        <pt x="201" y="1245" on="0"/>
        <pt x="201" y="1262" on="1"/>
        <pt x="201" y="1268" on="0"/>
        <pt x="203" y="1277" on="0"/>
        <pt x="205" y="1280" on="1"/>
        <pt x="238" y="1339" on="1"/>
        <pt x="246" y="1354" on="0"/>
        <pt x="271" y="1370" on="0"/>
        <pt x="285" y="1370" on="1"/>
        <pt x="289" y="1370" on="0"/>
        <pt x="297" y="1368" on="0"/>
        <pt x="301" y="1366" on="1"/>
        <pt x="776" y="1087" on="1"/>
      </contour>
    </TTGlyph>
    <TTGlyph name="greater" xMin="150" yMin="217" xMax="872" yMax="956">
      <contour>
        <pt x="203" y="956" on="1"/>
        <pt x="413" y="848" on="0"/>
        <pt x="734" y="706" on="0"/>
        <pt x="872" y="659" on="1"/>
        <pt x="850" y="520" on="1"/>
        <pt x="728" y="480" on="0"/>
        <pt x="428" y="352" on="0"/>
        <pt x="150" y="217" on="1"/>
        <pt x="172" y="342" on="1"/>
        <pt x="350" y="437" on="0"/>
        <pt x="609" y="555" on="0"/>
        <pt x="717" y="590" on="1"/>
        <pt x="613" y="626" on="0"/>
        <pt x="349" y="748" on="0"/>
        <pt x="184" y="836" on="1"/>
      </contour>
    </TTGlyph>
    <TTGlyph name="greaterequal" xMin="80" yMin="225" xMax="944" yMax="1200">
      <contour>
        <pt x="944" y="225" on="1"/>
        <pt x="80" y="225" on="1"/>
        <pt x="80" y="352" on="1"/>
        <pt x="944" y="352" on="1"/>
      </contour>
      <contour>
        <pt x="944" y="913" on="1"/>
        <pt x="944" y="817" on="1"/>
        <pt x="80" y="530" on="1"/>
        <pt x="80" y="670" on="1"/>
        <pt x="702" y="864" on="1"/>
        <pt x="80" y="1059" on="1"/>
        <pt x="80" y="1200" on="1"/>
      </contour>
    </TTGlyph>
    <TTGlyph name="guillemotleft" xMin="207" yMin="88" xMax="784" yMax="827">
      <contour>
        <pt x="336" y="463" on="1"/>
        <pt x="438" y="173" on="1"/>
        <pt x="443" y="159" on="0"/>
        <pt x="448" y="135" on="0"/>
        <pt x="449" y="129" on="1"/>
        <pt x="449" y="113" on="0"/>
        <pt x="410" y="88" on="0"/>
        <pt x="383" y="88" on="1"/>
        <pt x="369" y="88" on="0"/>
        <pt x="339" y="111" on="0"/>
        <pt x="332" y="129" on="1"/>
        <pt x="217" y="430" on="1"/>
        <pt x="212" y="444" on="0"/>
        <pt x="207" y="464" on="0"/>
        <pt x="207" y="471" on="1"/>
        <pt x="207" y="482" on="0"/>
        <pt x="216" y="506" on="0"/>
        <pt x="225" y="520" on="1"/>
        <pt x="397" y="792" on="1"/>
        <pt x="408" y="808" on="0"/>
        <pt x="443" y="827" on="0"/>
        <pt x="461" y="827" on="1"/>
        <pt x="484" y="827" on="0"/>
        <pt x="516" y="798" on="0"/>
        <pt x="516" y="778" on="1"/>
        <pt x="516" y="772" on="0"/>
        <pt x="504" y="746" on="0"/>
        <pt x="494" y="727" on="1"/>
      </contour>
      <contour>
        <pt x="604" y="463" on="1"/>
        <pt x="704" y="173" on="1"/>
        <pt x="709" y="159" on="0"/>
        <pt x="715" y="134" on="0"/>
        <pt x="715" y="129" on="1"/>
        <pt x="715" y="112" on="0"/>
        <pt x="678" y="88" on="0"/>
        <pt x="651" y="88" on="1"/>
        <pt x="637" y="88" on="0"/>
        <pt x="607" y="111" on="0"/>
        <pt x="600" y="129" on="1"/>
        <pt x="483" y="431" on="1"/>
        <pt x="478" y="444" on="0"/>
        <pt x="473" y="465" on="0"/>
        <pt x="473" y="471" on="1"/>
        <pt x="473" y="481" on="0"/>
        <pt x="482" y="506" on="0"/>
        <pt x="492" y="521" on="1"/>
        <pt x="666" y="793" on="1"/>
        <pt x="676" y="808" on="0"/>
        <pt x="711" y="827" on="0"/>
        <pt x="729" y="827" on="1"/>
        <pt x="752" y="827" on="0"/>
        <pt x="784" y="798" on="0"/>
        <pt x="784" y="778" on="1"/>
        <pt x="784" y="773" on="0"/>
        <pt x="774" y="752" on="0"/>
        <pt x="760" y="727" on="1"/>
      </contour>
    </TTGlyph>
    <TTGlyph name="guillemotright" xMin="125" yMin="86" xMax="702" yMax="825">
      <contour>
        <pt x="305" y="453" on="1"/>
        <pt x="203" y="743" on="1"/>
        <pt x="198" y="756" on="0"/>
        <pt x="193" y="779" on="0"/>
        <pt x="193" y="784" on="1"/>
        <pt x="193" y="801" on="0"/>
        <pt x="231" y="825" on="0"/>
        <pt x="258" y="825" on="1"/>
        <pt x="273" y="825" on="0"/>
        <pt x="303" y="802" on="0"/>
        <pt x="309" y="786" on="1"/>
        <pt x="424" y="485" on="1"/>
        <pt x="430" y="468" on="0"/>
        <pt x="434" y="449" on="0"/>
        <pt x="434" y="442" on="1"/>
        <pt x="434" y="431" on="0"/>
        <pt x="425" y="407" on="0"/>
        <pt x="416" y="393" on="1"/>
        <pt x="243" y="120" on="1"/>
        <pt x="233" y="105" on="0"/>
        <pt x="198" y="86" on="0"/>
        <pt x="180" y="86" on="1"/>
        <pt x="158" y="86" on="0"/>
        <pt x="125" y="117" on="0"/>
        <pt x="125" y="137" on="1"/>
        <pt x="125" y="143" on="0"/>
        <pt x="133" y="161" on="0"/>
        <pt x="147" y="186" on="1"/>
      </contour>
      <contour>
        <pt x="571" y="453" on="1"/>
        <pt x="471" y="743" on="1"/>
        <pt x="466" y="757" on="0"/>
        <pt x="461" y="779" on="0"/>
        <pt x="461" y="784" on="1"/>
        <pt x="461" y="801" on="0"/>
        <pt x="497" y="825" on="0"/>
        <pt x="524" y="825" on="1"/>
        <pt x="539" y="825" on="0"/>
        <pt x="570" y="802" on="0"/>
        <pt x="575" y="786" on="1"/>
        <pt x="692" y="486" on="1"/>
        <pt x="697" y="471" on="0"/>
        <pt x="702" y="449" on="0"/>
        <pt x="702" y="442" on="1"/>
        <pt x="702" y="431" on="0"/>
        <pt x="693" y="407" on="0"/>
        <pt x="684" y="393" on="1"/>
        <pt x="512" y="121" on="1"/>
        <pt x="501" y="105" on="0"/>
        <pt x="465" y="86" on="0"/>
        <pt x="446" y="86" on="1"/>
        <pt x="424" y="86" on="0"/>
        <pt x="391" y="117" on="0"/>
        <pt x="391" y="137" on="1"/>
        <pt x="391" y="145" on="0"/>
        <pt x="408" y="173" on="1"/>
        <pt x="413" y="182" on="0"/>
        <pt x="416" y="187" on="1"/>
      </contour>
    </TTGlyph>
    <TTGlyph name="guilsinglleft" xMin="340" yMin="88" xMax="649" yMax="827">
      <contour>
        <pt x="469" y="463" on="1"/>
        <pt x="571" y="173" on="1"/>
        <pt x="576" y="159" on="0"/>
        <pt x="582" y="134" on="0"/>
        <pt x="582" y="129" on="1"/>
        <pt x="582" y="113" on="0"/>
        <pt x="544" y="88" on="0"/>
        <pt x="516" y="88" on="1"/>
        <pt x="502" y="88" on="0"/>
        <pt x="472" y="111" on="0"/>
        <pt x="465" y="129" on="1"/>
        <pt x="348" y="430" on="1"/>
        <pt x="344" y="441" on="0"/>
        <pt x="340" y="462" on="0"/>
        <pt x="340" y="471" on="1"/>
        <pt x="340" y="481" on="0"/>
        <pt x="349" y="506" on="0"/>
        <pt x="359" y="521" on="1"/>
        <pt x="530" y="792" on="1"/>
        <pt x="541" y="808" on="0"/>
        <pt x="576" y="827" on="0"/>
        <pt x="594" y="827" on="1"/>
        <pt x="617" y="827" on="0"/>
        <pt x="649" y="798" on="0"/>
        <pt x="649" y="778" on="1"/>
        <pt x="649" y="772" on="0"/>
        <pt x="638" y="746" on="0"/>
        <pt x="627" y="727" on="1"/>
      </contour>
    </TTGlyph>
</ttFont>
